<svg width="20" height="20" fill="none" xmlns="http://www.w3.org/2000/svg"><path d="M10 0C4.476 0 0 4.516 0 10c0 5.524 4.476 10 10 10 5.484 0 10-4.476 10-10 0-5.484-4.516-10-10-10zm6.976 4.839-2.54 2.54a5.574 5.574 0 0 0-1.815-1.814l2.54-2.54c.565.402 1.412 1.25 1.815 1.814zM10 13.87c-2.177 0-3.871-1.694-3.871-3.871A3.846 3.846 0 0 1 10 6.129 3.872 3.872 0 0 1 13.871 10 3.846 3.846 0 0 1 10 13.871zM4.798 3.024l2.54 2.54A5.574 5.574 0 0 0 5.525 7.38l-2.54-2.54c.403-.565 1.25-1.412 1.814-1.815zM2.984 15.202l2.54-2.54a5.573 5.573 0 0 0 1.815 1.814l-2.54 2.54c-.565-.403-1.412-1.25-1.815-1.814zm12.177 1.814-2.54-2.54a5.574 5.574 0 0 0 1.814-1.815l2.54 2.54c-.402.565-1.25 1.412-1.814 1.815z" fill="#fff"/></svg>