<svg width="14" height="20" fill="none" xmlns="http://www.w3.org/2000/svg"><path d="M3.818 17.739c0 .234.04.468.2.701l.675.975c.2.312.676.585 1.074.585h2.426c.398 0 .875-.273 1.074-.585l.676-.974c.12-.195.199-.507.199-.702v-1.52H3.818v1.52zM0 6.862a6.73 6.73 0 001.71 4.522c.676.74 1.67 2.3 2.068 3.587v.039h6.404v-.04c.397-1.286 1.392-2.845 2.068-3.586C13.324 10.175 14 8.616 14 6.862 14 3.08 10.818 0 6.96 0 2.903.039 0 3.236 0 6.862zm7-3.12c-1.79 0-3.182 1.404-3.182 3.12 0 .35-.318.623-.636.623a.622.622 0 01-.637-.623c0-2.379 1.99-4.367 4.455-4.367.318 0 .636.312.636.624 0 .35-.318.624-.636.624z" fill="#fff"/></svg>