<svg width="55" height="55" fill="none" xmlns="http://www.w3.org/2000/svg"><g clip-path="url(#a)"><path fill-rule="evenodd" clip-rule="evenodd" d="M39.126 21.427c1.601-.069 2.987 1.788 3.095 4.147.11 2.359-1.1 4.327-2.7 4.396-1.602.07-2.987-1.787-3.096-4.146-.108-2.36 1.1-4.328 2.701-4.397zm-23.386.214c1.581 0 2.863 1.893 2.863 4.227 0 2.335-1.282 4.228-2.862 4.228-1.581 0-2.863-1.893-2.863-4.227 0-2.335 1.282-4.228 2.863-4.228z" fill="#395360"/><path d="M33.795 26.785H21.833v13.658h11.962V26.785z" fill="#FBAA6F"/><path d="m29.708 33.81-.1-.098c-.598-.488-.797-1.269-.298-1.951.498-.586 1.296-.78 1.993-.293-.398.098-.897.293-1.196.78a1.88 1.88 0 0 0-.399 1.561zm-4.486 0c.1-.391 0-.976-.399-1.464-.299-.488-.797-.683-1.196-.78.598-.488 1.496-.293 1.994.292s.3 1.463-.299 1.951c0-.097 0 0-.1 0zm7.278-3.123h.498l-1.096 4.683-2.094 6.244h-4.287l-3.19-5.268 1.097-3.122a200.504 200.504 0 0 1 2.093 2.634c.499.488 2.692.488 3.789-.488.697-.683 1.694-2.244 3.19-4.682z" fill="#DC7F3C"/><path d="M13.658 29.712h5.284v-8.78h-4.087c.598-4.39 3.588-8 7.476-9.755.798-3.317 1.695-5.463 2.692-6.634l.2-.195.1-.098c.298-.195.697-.39 1.096-.487 1.296-.195 2.492.683 2.691 1.853.1.683-.1 1.268-.498 1.756l-.1.098-.299.292c-.498.488-.897.976-1.396 1.464 1.197-.976 2.194-1.464 2.991-1.464.2 0 .399.098.698.195.598.39.897 1.171.498 1.756a4.203 4.203 0 0 1-.598.683c5.284 1.073 9.371 5.366 10.069 10.731l.1.78h-3.789v7.805h4.785l1.795 13.072c-4.187 2.537-9.47 3.805-15.751 3.805-6.28 0-11.564-1.268-15.751-3.805l1.794-13.072zm15.054 9.17c2.591-4.195 3.887-6.634 3.887-7.414 0-2.146-3.19-4-4.884-4-1.695 0-4.885 1.756-4.885 4 0 .78 1.296 3.317 3.788 7.414.3.39.598.585 1.097.585.498 0 .797-.195.997-.585z" fill="#BDCFC8"/><path d="M45.26 59.2c-3.587 5.528-11.08.223-17.655.223-6.575 0-12.354-3.61-15.94-9.024l.92-7.24c.3.112.574.585.873.585 1.395 0 2.59-1.24 2.79-2.707v1.354c0 1.804 1.295 3.158 2.789 3.158 1.494 0 2.79-1.466 2.79-3.158v-1.354 3.158c0 1.805 1.295 3.159 2.79 3.159 1.494 0 2.789-1.467 2.789-3.159 0 1.805 1.295 3.159 2.79 3.159 1.593 0 2.789-1.467 2.789-3.159v-3.158 1.354c0 1.804 1.295 3.158 2.79 3.158 1.594 0 2.79-1.466 2.79-3.158v-1.354c.198 1.58 1.394 2.707 2.789 2.707.398 0 .697-.113.996-.225L45.26 59.2z" fill="#809EB0"/><path d="m12.367 45.016.19-1.886c.298.097.695.194.992.194 1.39 0 2.581-1.069 2.78-2.331v1.165c0 1.554 1.29 2.72 2.779 2.72 1.489 0 2.78-1.263 2.78-2.72v-1.165 2.72c0 1.553 1.29 2.72 2.778 2.72 1.49 0 2.78-1.264 2.78-2.72 0 1.553 1.29 2.72 2.779 2.72 1.588 0 2.78-1.264 2.78-2.72v-2.72 1.165c0 1.554 1.29 2.72 2.778 2.72 1.589 0 2.78-1.263 2.78-2.72v-1.165c.198 1.36 1.39 2.33 2.779 2.33.397 0 .695-.096.992-.193l.298 1.845a2.796 2.796 0 0 1-1.29.291c-1.39 0-2.58-1.068-2.78-2.33V44.1c0 1.554-1.29 2.72-2.779 2.72-1.588 0-2.779-1.263-2.779-2.72v-1.166 2.72c0 1.554-1.29 2.72-2.779 2.72-1.588 0-2.78-1.263-2.78-2.72 0 1.554-1.29 2.72-2.779 2.72-1.488 0-2.779-1.263-2.779-2.72v-2.72V44.1c0 1.554-1.29 2.72-2.779 2.72-1.489 0-2.78-1.263-2.78-2.72v-1.166c-.198 1.36-1.389 2.331-2.778 2.331-.497 0-.885-.153-1.183-.25z" fill="#738E9E"/><path d="M41.571 23.273c-.997-2.829-2.99-4.585-4.685-4.39-2.193.196-2.692 3.707-2.293 7.805.399 4.097 1.695 7.414 3.888 7.121 2.093-.195 3.987-3.804 3.688-7.804-.1 1.17-.498 2.244-1.395 2.341-1.097.098-1.396-1.17-1.595-2.731-.1-1.561-.1-2.927.997-3.024.598-.098 1.096.195 1.395.682z" fill="#86A196"/><path d="M40.774 22.688c-.598-1.17-1.495-1.854-2.393-1.854-1.495.196-1.894 2.537-1.595 5.366.3 2.83 1.197 5.073 2.692 4.878 1.097-.098 1.894-1.464 2.193-3.317-.2.293-.498.488-.897.585-1.097.098-1.396-1.17-1.595-2.731-.1-1.561-.1-2.927.997-3.024.2 0 .399 0 .598.097z" fill="#fff"/><path d="M13.459 23.273c.997-2.829 2.99-4.585 4.685-4.39 2.194.196 2.692 3.707 2.293 7.805-.399 4.097-1.695 7.414-3.888 7.121-2.093-.195-3.987-3.804-3.688-7.804.1 1.17.498 2.244 1.396 2.341 1.096.098 1.395-1.17 1.595-2.731.1-1.561.1-2.927-.997-3.024-.499-.098-.997.195-1.396.682z" fill="#86A196"/><path d="M14.121 22.653c.598-1.171 1.495-1.854 2.393-1.854 1.495.195 1.894 2.537 1.595 5.366-.3 2.829-1.197 5.072-2.692 4.877-1.097-.097-1.894-1.463-2.094-3.317.2.293.499.488.898.586 1.096.097 1.395-1.17 1.595-2.732.1-1.56.1-2.926-.997-3.024-.3 0-.499 0-.698.098z" fill="#fff"/><path d="M22.83 29.322c0-.195-.1-.488-.1-.683 0-2.439 1.196-5.17 4.885-5.17 3.688 0 4.884 2.731 4.884 5.17 0 .39 0 .683-.1.975-.797-1.268-2.292-2.146-4.784-2.146-2.293.098-3.888.78-4.785 1.854z" fill="#F4F8FF"/><path d="M30.486 10.396c-1.794-.097-2.89-.195-3.19-.195l3.888-1.17c0 .585-.2.975-.698 1.365zm-3.589-1.229-1.296.975c.898-1.17 1.595-2.439 1.994-3.61.3-.682.399-1.56.3-2.536.896.39 1.295 1.171 1.295 2.147 0 .39-.299 1.073-.797 1.463-.3.293-.798.78-1.496 1.56z" fill="#86A196"/></g><defs><clipPath id="a"><rect width="55" height="55" rx="27.5" fill="#fff"/></clipPath></defs></svg>