<svg width="400" height="210" fill="none" xmlns="http://www.w3.org/2000/svg"><g clip-path="url(#a)"><path fill="#F3F4F6" d="M0 0h400v210H0z"/><circle cx="200" cy="105" r="127.267" fill="#909090" fill-opacity=".02"/><circle cx="200.002" cy="105" r="91.527" fill="#909090" fill-opacity=".04"/><circle cx="200.001" cy="105.001" r="46.914" fill="#909090" fill-opacity=".05"/><path d="M217.269 94.138a.973.973 0 0 1-.688-1.66l2.736-2.738a.972.972 0 1 1 1.375 1.376l-2.736 2.737a.968.968 0 0 1-.687.285Zm-3.541-1.213a.973.973 0 0 1-.969-1.063l.358-3.854a.972.972 0 1 1 1.936.18l-.358 3.855a.972.972 0 0 1-.967.882Zm5.144 4.516a.972.972 0 0 1-.089-1.941l3.853-.358a.973.973 0 0 1 .179 1.938l-3.852.357a1.007 1.007 0 0 1-.091.005Z" fill="#EF4444"/><circle cx="314.121" cy=".773" r=".773" fill="#E2E8F0"/><circle cx="314.121" cy="5.413" r=".773" fill="#E2E8F0"/><circle cx="314.121" cy="10.053" r=".773" fill="#E2E8F0"/><circle cx="314.121" cy="14.692" r=".773" fill="#E2E8F0"/><circle cx="314.121" cy="19.331" r=".773" fill="#E2E8F0"/><circle cx="314.121" cy="23.971" r=".773" fill="#E2E8F0"/><circle cx="314.121" cy="28.61" r=".773" fill="#E2E8F0"/><circle cx="314.121" cy="33.25" r=".773" fill="#E2E8F0"/><circle cx="314.121" cy="37.889" r=".773" fill="#E2E8F0"/><circle cx="314.121" cy="42.529" r=".773" fill="#E2E8F0"/><circle cx="314.121" cy="47.169" r=".773" fill="#E2E8F0"/><circle cx="314.121" cy="51.807" r=".773" fill="#E2E8F0"/><circle cx="318.761" cy=".773" r=".773" fill="#E2E8F0"/><circle cx="318.761" cy="5.413" r=".773" fill="#E2E8F0"/><circle cx="318.761" cy="10.053" r=".773" fill="#E2E8F0"/><circle cx="318.761" cy="14.692" r=".773" fill="#E2E8F0"/><circle cx="318.761" cy="19.331" r=".773" fill="#E2E8F0"/><circle cx="318.761" cy="23.971" r=".773" fill="#E2E8F0"/><circle cx="318.761" cy="28.61" r=".773" fill="#E2E8F0"/><circle cx="318.761" cy="33.25" r=".773" fill="#E2E8F0"/><circle cx="318.761" cy="37.889" r=".773" fill="#E2E8F0"/><circle cx="318.761" cy="42.529" r=".773" fill="#E2E8F0"/><circle cx="318.761" cy="47.169" r=".773" fill="#E2E8F0"/><circle cx="318.761" cy="51.807" r=".773" fill="#E2E8F0"/><circle cx="323.4" cy=".773" r=".773" fill="#E2E8F0"/><circle cx="323.4" cy="5.413" r=".773" fill="#E2E8F0"/><circle cx="323.4" cy="10.053" r=".773" fill="#E2E8F0"/><circle cx="323.4" cy="14.692" r=".773" fill="#E2E8F0"/><circle cx="323.4" cy="19.331" r=".773" fill="#E2E8F0"/><circle cx="323.4" cy="23.971" r=".773" fill="#E2E8F0"/><circle cx="323.4" cy="28.61" r=".773" fill="#E2E8F0"/><circle cx="323.4" cy="33.25" r=".773" fill="#E2E8F0"/><circle cx="323.4" cy="37.889" r=".773" fill="#E2E8F0"/><circle cx="323.4" cy="42.529" r=".773" fill="#E2E8F0"/><circle cx="323.4" cy="47.169" r=".773" fill="#E2E8F0"/><circle cx="323.4" cy="51.807" r=".773" fill="#E2E8F0"/><circle cx="328.04" cy=".773" r=".773" fill="#E2E8F0"/><circle cx="328.04" cy="5.413" r=".773" fill="#E2E8F0"/><circle cx="328.04" cy="10.053" r=".773" fill="#E2E8F0"/><circle cx="328.04" cy="14.692" r=".773" fill="#E2E8F0"/><circle cx="328.04" cy="19.331" r=".773" fill="#E2E8F0"/><circle cx="328.04" cy="23.971" r=".773" fill="#E2E8F0"/><circle cx="328.04" cy="28.61" r=".773" fill="#E2E8F0"/><circle cx="328.04" cy="33.25" r=".773" fill="#E2E8F0"/><circle cx="328.04" cy="37.889" r=".773" fill="#E2E8F0"/><circle cx="328.04" cy="42.529" r=".773" fill="#E2E8F0"/><circle cx="328.04" cy="47.169" r=".773" fill="#E2E8F0"/><circle cx="328.04" cy="51.807" r=".773" fill="#E2E8F0"/><circle cx="332.68" cy=".773" r=".773" fill="#E2E8F0"/><circle cx="332.68" cy="5.413" r=".773" fill="#E2E8F0"/><circle cx="332.68" cy="10.053" r=".773" fill="#E2E8F0"/><circle cx="332.68" cy="14.692" r=".773" fill="#E2E8F0"/><circle cx="332.68" cy="19.331" r=".773" fill="#E2E8F0"/><circle cx="332.68" cy="23.971" r=".773" fill="#E2E8F0"/><circle cx="332.68" cy="28.61" r=".773" fill="#E2E8F0"/><circle cx="332.68" cy="33.25" r=".773" fill="#E2E8F0"/><circle cx="332.68" cy="37.889" r=".773" fill="#E2E8F0"/><circle cx="332.68" cy="42.529" r=".773" fill="#E2E8F0"/><circle cx="332.68" cy="47.169" r=".773" fill="#E2E8F0"/><circle cx="332.68" cy="51.807" r=".773" fill="#E2E8F0"/><circle cx="337.318" cy=".773" r=".773" fill="#E2E8F0"/><circle cx="337.318" cy="5.413" r=".773" fill="#E2E8F0"/><circle cx="337.318" cy="10.053" r=".773" fill="#E2E8F0"/><circle cx="337.318" cy="14.692" r=".773" fill="#E2E8F0"/><circle cx="337.318" cy="19.331" r=".773" fill="#E2E8F0"/><circle cx="337.318" cy="23.971" r=".773" fill="#E2E8F0"/><circle cx="337.318" cy="28.61" r=".773" fill="#E2E8F0"/><circle cx="337.318" cy="33.25" r=".773" fill="#E2E8F0"/><circle cx="337.318" cy="37.889" r=".773" fill="#E2E8F0"/><circle cx="337.318" cy="42.529" r=".773" fill="#E2E8F0"/><circle cx="337.318" cy="47.169" r=".773" fill="#E2E8F0"/><circle cx="337.318" cy="51.807" r=".773" fill="#E2E8F0"/><circle cx="341.958" cy=".773" r=".773" fill="#E2E8F0"/><circle cx="341.958" cy="5.413" r=".773" fill="#E2E8F0"/><circle cx="341.958" cy="10.053" r=".773" fill="#E2E8F0"/><circle cx="341.958" cy="14.692" r=".773" fill="#E2E8F0"/><circle cx="341.958" cy="19.331" r=".773" fill="#E2E8F0"/><circle cx="341.958" cy="23.971" r=".773" fill="#E2E8F0"/><circle cx="341.958" cy="28.61" r=".773" fill="#E2E8F0"/><circle cx="341.958" cy="33.25" r=".773" fill="#E2E8F0"/><circle cx="341.958" cy="37.889" r=".773" fill="#E2E8F0"/><circle cx="341.958" cy="42.529" r=".773" fill="#E2E8F0"/><circle cx="341.958" cy="47.169" r=".773" fill="#E2E8F0"/><circle cx="341.958" cy="51.807" r=".773" fill="#E2E8F0"/><circle cx="346.598" cy=".773" r=".773" fill="#E2E8F0"/><circle cx="346.598" cy="5.413" r=".773" fill="#E2E8F0"/><circle cx="346.598" cy="10.053" r=".773" fill="#E2E8F0"/><circle cx="346.598" cy="14.692" r=".773" fill="#E2E8F0"/><circle cx="346.598" cy="19.331" r=".773" fill="#E2E8F0"/><circle cx="346.598" cy="23.971" r=".773" fill="#E2E8F0"/><circle cx="346.598" cy="28.61" r=".773" fill="#E2E8F0"/><circle cx="346.598" cy="33.25" r=".773" fill="#E2E8F0"/><circle cx="346.598" cy="37.889" r=".773" fill="#E2E8F0"/><circle cx="346.598" cy="42.529" r=".773" fill="#E2E8F0"/><circle cx="346.598" cy="47.169" r=".773" fill="#E2E8F0"/><circle cx="346.598" cy="51.807" r=".773" fill="#E2E8F0"/><circle cx="351.237" cy=".773" r=".773" fill="#E2E8F0"/><circle cx="351.237" cy="5.413" r=".773" fill="#E2E8F0"/><circle cx="351.237" cy="10.053" r=".773" fill="#E2E8F0"/><circle cx="351.237" cy="14.692" r=".773" fill="#E2E8F0"/><circle cx="351.237" cy="19.331" r=".773" fill="#E2E8F0"/><circle cx="351.237" cy="23.971" r=".773" fill="#E2E8F0"/><circle cx="351.237" cy="28.61" r=".773" fill="#E2E8F0"/><circle cx="351.237" cy="33.25" r=".773" fill="#E2E8F0"/><circle cx="351.237" cy="37.889" r=".773" fill="#E2E8F0"/><circle cx="351.237" cy="42.529" r=".773" fill="#E2E8F0"/><circle cx="351.237" cy="47.169" r=".773" fill="#E2E8F0"/><circle cx="351.237" cy="51.807" r=".773" fill="#E2E8F0"/><circle cx="355.877" cy=".773" r=".773" fill="#E2E8F0"/><circle cx="355.877" cy="5.413" r=".773" fill="#E2E8F0"/><circle cx="355.877" cy="10.053" r=".773" fill="#E2E8F0"/><circle cx="355.877" cy="14.692" r=".773" fill="#E2E8F0"/><circle cx="355.877" cy="19.331" r=".773" fill="#E2E8F0"/><circle cx="355.877" cy="23.971" r=".773" fill="#E2E8F0"/><circle cx="355.877" cy="28.61" r=".773" fill="#E2E8F0"/><circle cx="355.877" cy="33.25" r=".773" fill="#E2E8F0"/><circle cx="355.877" cy="37.889" r=".773" fill="#E2E8F0"/><circle cx="355.877" cy="42.529" r=".773" fill="#E2E8F0"/><circle cx="355.877" cy="47.169" r=".773" fill="#E2E8F0"/><circle cx="355.877" cy="51.807" r=".773" fill="#E2E8F0"/><circle cx="360.516" cy=".773" r=".773" fill="#E2E8F0"/><circle cx="360.516" cy="5.413" r=".773" fill="#E2E8F0"/><circle cx="360.516" cy="10.053" r=".773" fill="#E2E8F0"/><circle cx="360.516" cy="14.692" r=".773" fill="#E2E8F0"/><circle cx="360.516" cy="19.331" r=".773" fill="#E2E8F0"/><circle cx="360.516" cy="23.971" r=".773" fill="#E2E8F0"/><circle cx="360.516" cy="28.61" r=".773" fill="#E2E8F0"/><circle cx="360.516" cy="33.25" r=".773" fill="#E2E8F0"/><circle cx="360.516" cy="37.889" r=".773" fill="#E2E8F0"/><circle cx="360.516" cy="42.529" r=".773" fill="#E2E8F0"/><circle cx="360.516" cy="47.169" r=".773" fill="#E2E8F0"/><circle cx="360.516" cy="51.807" r=".773" fill="#E2E8F0"/><circle cx="365.156" cy=".773" r=".773" fill="#E2E8F0"/><circle cx="365.156" cy="5.413" r=".773" fill="#E2E8F0"/><circle cx="365.156" cy="10.053" r=".773" fill="#E2E8F0"/><circle cx="365.156" cy="14.692" r=".773" fill="#E2E8F0"/><circle cx="365.156" cy="19.331" r=".773" fill="#E2E8F0"/><circle cx="365.156" cy="23.971" r=".773" fill="#E2E8F0"/><circle cx="365.156" cy="28.61" r=".773" fill="#E2E8F0"/><circle cx="365.156" cy="33.25" r=".773" fill="#E2E8F0"/><circle cx="365.156" cy="37.889" r=".773" fill="#E2E8F0"/><circle cx="365.156" cy="42.529" r=".773" fill="#E2E8F0"/><circle cx="365.156" cy="47.169" r=".773" fill="#E2E8F0"/><circle cx="365.156" cy="51.807" r=".773" fill="#E2E8F0"/><circle cx="37.267" cy="164.689" r=".773" fill="#E2E8F0"/><circle cx="37.267" cy="169.328" r=".773" fill="#E2E8F0"/><circle cx="37.267" cy="173.968" r=".773" fill="#E2E8F0"/><circle cx="37.267" cy="178.608" r=".773" fill="#E2E8F0"/><circle cx="37.267" cy="183.246" r=".773" fill="#E2E8F0"/><circle cx="37.267" cy="187.886" r=".773" fill="#E2E8F0"/><circle cx="37.267" cy="192.526" r=".773" fill="#E2E8F0"/><circle cx="37.267" cy="197.165" r=".773" fill="#E2E8F0"/><circle cx="37.267" cy="201.805" r=".773" fill="#E2E8F0"/><circle cx="37.267" cy="206.444" r=".773" fill="#E2E8F0"/><circle cx="41.907" cy="164.689" r=".773" fill="#E2E8F0"/><circle cx="41.907" cy="169.328" r=".773" fill="#E2E8F0"/><circle cx="41.907" cy="173.968" r=".773" fill="#E2E8F0"/><circle cx="41.907" cy="178.608" r=".773" fill="#E2E8F0"/><circle cx="41.907" cy="183.246" r=".773" fill="#E2E8F0"/><circle cx="41.907" cy="187.886" r=".773" fill="#E2E8F0"/><circle cx="41.907" cy="192.526" r=".773" fill="#E2E8F0"/><circle cx="41.907" cy="197.165" r=".773" fill="#E2E8F0"/><circle cx="41.907" cy="201.805" r=".773" fill="#E2E8F0"/><circle cx="41.907" cy="206.444" r=".773" fill="#E2E8F0"/><circle cx="46.546" cy="164.689" r=".773" fill="#E2E8F0"/><circle cx="46.546" cy="169.328" r=".773" fill="#E2E8F0"/><circle cx="46.546" cy="173.968" r=".773" fill="#E2E8F0"/><circle cx="46.546" cy="178.608" r=".773" fill="#E2E8F0"/><circle cx="46.546" cy="183.246" r=".773" fill="#E2E8F0"/><circle cx="46.546" cy="187.886" r=".773" fill="#E2E8F0"/><circle cx="46.546" cy="192.526" r=".773" fill="#E2E8F0"/><circle cx="46.546" cy="197.165" r=".773" fill="#E2E8F0"/><circle cx="46.546" cy="201.805" r=".773" fill="#E2E8F0"/><circle cx="46.546" cy="206.444" r=".773" fill="#E2E8F0"/><circle cx="51.186" cy="164.689" r=".773" fill="#E2E8F0"/><circle cx="51.186" cy="169.328" r=".773" fill="#E2E8F0"/><circle cx="51.186" cy="173.968" r=".773" fill="#E2E8F0"/><circle cx="51.186" cy="178.608" r=".773" fill="#E2E8F0"/><circle cx="51.186" cy="183.246" r=".773" fill="#E2E8F0"/><circle cx="51.186" cy="187.886" r=".773" fill="#E2E8F0"/><circle cx="51.186" cy="192.526" r=".773" fill="#E2E8F0"/><circle cx="51.186" cy="197.165" r=".773" fill="#E2E8F0"/><circle cx="51.186" cy="201.805" r=".773" fill="#E2E8F0"/><circle cx="51.186" cy="206.444" r=".773" fill="#E2E8F0"/><circle cx="55.825" cy="164.689" r=".773" fill="#E2E8F0"/><circle cx="55.825" cy="169.328" r=".773" fill="#E2E8F0"/><circle cx="55.825" cy="173.968" r=".773" fill="#E2E8F0"/><circle cx="55.825" cy="178.608" r=".773" fill="#E2E8F0"/><circle cx="55.825" cy="183.246" r=".773" fill="#E2E8F0"/><circle cx="55.825" cy="187.886" r=".773" fill="#E2E8F0"/><circle cx="55.825" cy="192.526" r=".773" fill="#E2E8F0"/><circle cx="55.825" cy="197.165" r=".773" fill="#E2E8F0"/><circle cx="55.825" cy="201.805" r=".773" fill="#E2E8F0"/><circle cx="55.825" cy="206.444" r=".773" fill="#E2E8F0"/><circle cx="60.464" cy="164.689" r=".773" fill="#E2E8F0"/><circle cx="60.464" cy="169.328" r=".773" fill="#E2E8F0"/><circle cx="60.464" cy="173.968" r=".773" fill="#E2E8F0"/><circle cx="60.464" cy="178.608" r=".773" fill="#E2E8F0"/><circle cx="60.464" cy="183.246" r=".773" fill="#E2E8F0"/><circle cx="60.464" cy="187.886" r=".773" fill="#E2E8F0"/><circle cx="60.464" cy="192.526" r=".773" fill="#E2E8F0"/><circle cx="60.464" cy="197.165" r=".773" fill="#E2E8F0"/><circle cx="60.464" cy="201.805" r=".773" fill="#E2E8F0"/><circle cx="60.464" cy="206.444" r=".773" fill="#E2E8F0"/><circle cx="65.104" cy="164.689" r=".773" fill="#E2E8F0"/><circle cx="65.104" cy="169.328" r=".773" fill="#E2E8F0"/><circle cx="65.104" cy="173.968" r=".773" fill="#E2E8F0"/><circle cx="65.104" cy="178.608" r=".773" fill="#E2E8F0"/><circle cx="65.104" cy="183.246" r=".773" fill="#E2E8F0"/><circle cx="65.104" cy="187.886" r=".773" fill="#E2E8F0"/><circle cx="65.104" cy="192.526" r=".773" fill="#E2E8F0"/><circle cx="65.104" cy="197.165" r=".773" fill="#E2E8F0"/><circle cx="65.104" cy="201.805" r=".773" fill="#E2E8F0"/><circle cx="65.104" cy="206.444" r=".773" fill="#E2E8F0"/><circle cx="69.744" cy="164.689" r=".773" fill="#E2E8F0"/><circle cx="69.744" cy="169.328" r=".773" fill="#E2E8F0"/><circle cx="69.744" cy="173.968" r=".773" fill="#E2E8F0"/><circle cx="69.744" cy="178.608" r=".773" fill="#E2E8F0"/><circle cx="69.744" cy="183.246" r=".773" fill="#E2E8F0"/><circle cx="69.744" cy="187.886" r=".773" fill="#E2E8F0"/><circle cx="69.744" cy="192.526" r=".773" fill="#E2E8F0"/><circle cx="69.744" cy="197.165" r=".773" fill="#E2E8F0"/><circle cx="69.744" cy="201.805" r=".773" fill="#E2E8F0"/><circle cx="69.744" cy="206.444" r=".773" fill="#E2E8F0"/><circle cx="74.383" cy="164.689" r=".773" fill="#E2E8F0"/><circle cx="74.383" cy="169.328" r=".773" fill="#E2E8F0"/><circle cx="74.383" cy="173.968" r=".773" fill="#E2E8F0"/><circle cx="74.383" cy="178.608" r=".773" fill="#E2E8F0"/><circle cx="74.383" cy="183.246" r=".773" fill="#E2E8F0"/><circle cx="74.383" cy="187.886" r=".773" fill="#E2E8F0"/><circle cx="74.383" cy="192.526" r=".773" fill="#E2E8F0"/><circle cx="74.383" cy="197.165" r=".773" fill="#E2E8F0"/><circle cx="74.383" cy="201.805" r=".773" fill="#E2E8F0"/><circle cx="74.383" cy="206.444" r=".773" fill="#E2E8F0"/><circle cx="79.023" cy="164.689" r=".773" fill="#E2E8F0"/><circle cx="79.023" cy="169.328" r=".773" fill="#E2E8F0"/><circle cx="79.023" cy="173.968" r=".773" fill="#E2E8F0"/><circle cx="79.023" cy="178.608" r=".773" fill="#E2E8F0"/><circle cx="79.023" cy="183.246" r=".773" fill="#E2E8F0"/><circle cx="79.023" cy="187.886" r=".773" fill="#E2E8F0"/><circle cx="79.023" cy="192.526" r=".773" fill="#E2E8F0"/><circle cx="79.023" cy="197.165" r=".773" fill="#E2E8F0"/><circle cx="79.023" cy="201.805" r=".773" fill="#E2E8F0"/><circle cx="79.023" cy="206.444" r=".773" fill="#E2E8F0"/><circle cx="83.662" cy="164.689" r=".773" fill="#E2E8F0"/><circle cx="83.662" cy="169.328" r=".773" fill="#E2E8F0"/><circle cx="83.662" cy="173.968" r=".773" fill="#E2E8F0"/><circle cx="83.662" cy="178.608" r=".773" fill="#E2E8F0"/><circle cx="83.662" cy="183.246" r=".773" fill="#E2E8F0"/><circle cx="83.662" cy="187.886" r=".773" fill="#E2E8F0"/><circle cx="83.662" cy="192.526" r=".773" fill="#E2E8F0"/><circle cx="83.662" cy="197.165" r=".773" fill="#E2E8F0"/><circle cx="83.662" cy="201.805" r=".773" fill="#E2E8F0"/><circle cx="83.662" cy="206.444" r=".773" fill="#E2E8F0"/><circle cx="88.302" cy="164.689" r=".773" fill="#E2E8F0"/><circle cx="88.302" cy="169.328" r=".773" fill="#E2E8F0"/><circle cx="88.302" cy="173.968" r=".773" fill="#E2E8F0"/><circle cx="88.302" cy="178.608" r=".773" fill="#E2E8F0"/><circle cx="88.302" cy="183.246" r=".773" fill="#E2E8F0"/><circle cx="88.302" cy="187.886" r=".773" fill="#E2E8F0"/><circle cx="88.302" cy="192.526" r=".773" fill="#E2E8F0"/><circle cx="88.302" cy="197.165" r=".773" fill="#E2E8F0"/><circle cx="88.302" cy="201.805" r=".773" fill="#E2E8F0"/><circle cx="88.302" cy="206.444" r=".773" fill="#E2E8F0"/><path fill-rule="evenodd" clip-rule="evenodd" d="M108.171 59.344a24.844 24.844 0 0 0-8.187 6.713 24.385 24.385 0 0 0-4.592 9.465c-6.017 4.909-10.35 11.526-12.408 18.949a36.853 36.853 0 0 0 .91 22.529c2.65 7.238 7.503 13.496 13.898 17.919a38.393 38.393 0 0 0 21.833 6.796 38.394 38.394 0 0 0 21.834-6.796c6.394-4.423 11.247-10.681 13.897-17.919a36.858 36.858 0 0 0 .911-22.529c-2.058-7.423-6.391-14.04-12.409-18.95a24.376 24.376 0 0 0-5.412-10.45 24.897 24.897 0 0 0-9.725-6.777 5.37 5.37 0 0 0-1.098-2.582 5.481 5.481 0 0 0-2.263-1.697 7.3 7.3 0 0 0-1.834-4.49 7.505 7.505 0 0 0-4.268-2.4 7.583 7.583 0 0 0-4.859.727 7.409 7.409 0 0 0-3.352 3.539 38.391 38.391 0 0 0-2.876 7.953Z" fill="#395360"/><path d="M110.336 87.754h19.387v22.27h-19.387v-22.27Z" fill="#FBAA6F"/><path fill-rule="evenodd" clip-rule="evenodd" d="m123.05 99.176-.193-.127a2.235 2.235 0 0 1-.509-3.157 2.296 2.296 0 0 1 1.498-.905 2.325 2.325 0 0 1 1.709.403c-.4.073-.781.225-1.119.446a2.986 2.986 0 0 0-.852.843 2.913 2.913 0 0 0-.534 2.497Zm-7.237 0a2.828 2.828 0 0 0-.63-2.45 3.065 3.065 0 0 0-.863-.84 3.11 3.11 0 0 0-1.124-.448 2.322 2.322 0 0 1 3.206.5 2.23 2.23 0 0 1 .41 1.683 2.256 2.256 0 0 1-.918 1.475 1.145 1.145 0 0 1-.081.08Zm11.664-5.058h.856l-1.728 7.667-3.458 10.228h-6.93l-5.186-8.526 1.728-5.106c1.729 2.274 2.892 3.69 3.458 4.263.872.843 4.329.843 6.058-.859a41.588 41.588 0 0 0 5.202-7.667Z" fill="#DC7F3C"/><path fill-rule="evenodd" clip-rule="evenodd" d="M96.992 92.526h8.498V78.21h-6.56c.5-3.44 1.872-6.702 3.99-9.482a20.947 20.947 0 0 1 8.128-6.425c1.227-5.303 2.687-8.882 4.378-10.738l.29-.27.178-.16a3.664 3.664 0 0 1 1.745-.747 3.8 3.8 0 0 1 2.208.319 3.727 3.727 0 0 1 1.633 1.498 3.641 3.641 0 0 1-.368 4.18h-.097c-.14.174-.303.329-.484.461a23.881 23.881 0 0 0-2.117 2.498 8.129 8.129 0 0 1 4.847-2.386c.371-.003.738.085 1.066.254.489.274.848.726 1.002 1.258a2.083 2.083 0 0 1-1.147 2.48c4.228.9 8.071 3.065 11.003 6.197a20.547 20.547 0 0 1 5.379 11.301l.194 1.384h-6.188v12.726h7.803l2.892 21.363c-6.818 4.167-15.353 6.251-25.607 6.251-10.253 0-18.745-2.089-25.477-6.267l2.811-21.38Zm24.444 14.936c4.168-6.776 6.252-10.811 6.252-12.105 0-3.547-5.251-6.458-7.868-6.458s-7.868 2.895-7.868 6.458c0 1.294 2.052 5.334 6.155 12.121a2.015 2.015 0 0 0 1.713.907c.327.016.652-.059.938-.217.285-.157.52-.391.678-.674v-.032Z" fill="#BDCFC8"/><path fill-rule="evenodd" clip-rule="evenodd" d="M145.571 124.053a32.2 32.2 0 0 1-11.418 9.436 32.721 32.721 0 0 1-14.504 3.385 32.724 32.724 0 0 1-14.504-3.385 32.197 32.197 0 0 1-11.417-9.436l1.357-9.719a4.394 4.394 0 0 0 1.615.302 4.612 4.612 0 0 0 3.004-1.097 4.48 4.48 0 0 0 1.536-2.768v1.94c0 1.198.483 2.347 1.344 3.195a4.624 4.624 0 0 0 3.244 1.323 4.624 4.624 0 0 0 3.244-1.323 4.483 4.483 0 0 0 1.344-3.195v2.577a4.505 4.505 0 0 0 1.439 3.031 4.64 4.64 0 0 0 3.157 1.234 4.642 4.642 0 0 0 3.158-1.234 4.505 4.505 0 0 0 1.439-3.031c0 1.198.483 2.347 1.344 3.195a4.624 4.624 0 0 0 3.244 1.323 4.624 4.624 0 0 0 3.244-1.323 4.483 4.483 0 0 0 1.344-3.195v-2.497a4.47 4.47 0 0 0 1.344 3.194 4.608 4.608 0 0 0 3.244 1.323 4.612 4.612 0 0 0 3.245-1.323 4.497 4.497 0 0 0 1.343-3.194v-1.941a4.5 4.5 0 0 0 1.57 2.863 4.63 4.63 0 0 0 3.115 1.082c.552 0 1.099-.097 1.616-.286l1.309 9.544Z" fill="#809EB0"/><path fill-rule="evenodd" clip-rule="evenodd" d="m94.665 117.42.42-3.006a4.394 4.394 0 0 0 1.615.302 4.612 4.612 0 0 0 3.004-1.097 4.481 4.481 0 0 0 1.536-2.769v1.941a4.48 4.48 0 0 0 1.344 3.194 4.62 4.62 0 0 0 3.244 1.324 4.62 4.62 0 0 0 3.244-1.324 4.48 4.48 0 0 0 1.344-3.194v2.577a4.505 4.505 0 0 0 1.439 3.031 4.644 4.644 0 0 0 3.157 1.234 4.646 4.646 0 0 0 3.158-1.234 4.505 4.505 0 0 0 1.439-3.031 4.48 4.48 0 0 0 1.344 3.194 4.62 4.62 0 0 0 3.244 1.324 4.62 4.62 0 0 0 3.244-1.324 4.48 4.48 0 0 0 1.344-3.194v-2.577a4.48 4.48 0 0 0 1.344 3.194 4.62 4.62 0 0 0 3.244 1.324 4.624 4.624 0 0 0 3.245-1.324 4.483 4.483 0 0 0 1.343-3.194v-1.941a4.5 4.5 0 0 0 1.57 2.863 4.63 4.63 0 0 0 3.115 1.082c.552 0 1.099-.097 1.616-.286l.404 3.006a4.659 4.659 0 0 1-4.164-.06 4.585 4.585 0 0 1-1.612-1.388 4.483 4.483 0 0 1-.799-1.956v1.941a4.484 4.484 0 0 1-1.344 3.194 4.624 4.624 0 0 1-3.245 1.324 4.624 4.624 0 0 1-3.244-1.324 4.484 4.484 0 0 1-1.344-3.194v2.577a4.48 4.48 0 0 1-1.344 3.194 4.624 4.624 0 0 1-3.244 1.323 4.624 4.624 0 0 1-3.244-1.323 4.48 4.48 0 0 1-1.344-3.194 4.509 4.509 0 0 1-1.438 3.031 4.648 4.648 0 0 1-3.158 1.234 4.646 4.646 0 0 1-3.158-1.234 4.505 4.505 0 0 1-1.439-3.031v-2.657a4.483 4.483 0 0 1-1.343 3.195 4.628 4.628 0 0 1-3.245 1.323 4.624 4.624 0 0 1-3.244-1.323 4.48 4.48 0 0 1-1.344-3.195v-1.94a4.482 4.482 0 0 1-1.548 2.85 4.616 4.616 0 0 1-3.088 1.095 4.742 4.742 0 0 1-2.068-.478v-.079Z" fill="#738E9E"/><path fill-rule="evenodd" clip-rule="evenodd" d="M142.292 82.011c-1.615-4.565-4.846-7.46-7.625-7.174-3.554.366-4.427 5.981-3.7 12.726.727 6.744 2.747 12.025 6.301 11.66 3.554-.367 6.462-6.188 5.945-12.726-.129 1.956-.84 3.627-2.245 3.738-1.81.159-2.327-1.893-2.569-4.486s-.226-4.772 1.615-4.9c.452-.033.905.058 1.307.263.402.205.739.516.971.899Z" fill="#86A196"/><path fill-rule="evenodd" clip-rule="evenodd" d="M141.033 80.994c-1.018-1.925-2.424-3.102-3.862-2.943-2.439.239-3.021 4.088-2.536 8.701.485 4.613 1.89 8.24 4.313 7.954 1.794-.191 3.119-2.387 3.49-5.377a1.87 1.87 0 0 1-1.438.907c-1.809.159-2.326-1.893-2.568-4.486-.243-2.593-.227-4.772 1.615-4.9.335-.015.669.034.986.144Z" fill="#fff"/><path fill-rule="evenodd" clip-rule="evenodd" d="M96.765 82.011c1.616-4.565 4.847-7.46 7.626-7.174 3.554.366 4.426 5.981 3.699 12.726-.727 6.744-2.746 12.025-6.3 11.66-3.555-.367-6.463-6.188-5.946-12.726.13 1.956.824 3.627 2.246 3.738 1.81.159 2.326-1.893 2.553-4.486.226-2.593.242-4.772-1.616-4.9a2.48 2.48 0 0 0-1.319.24c-.408.2-.752.508-.991.89l.048.032Z" fill="#86A196"/><path fill-rule="evenodd" clip-rule="evenodd" d="M98.01 80.993c1.018-1.924 2.44-3.102 3.877-2.942 2.424.238 3.021 4.088 2.521 8.7-.501 4.614-1.874 8.24-4.314 7.954-1.793-.19-3.118-2.386-3.49-5.376a1.91 1.91 0 0 0 1.455.906c1.793.16 2.326-1.893 2.552-4.485.226-2.593.226-4.772-1.615-4.9-.35-.029-.7.01-1.034.112l.048.031Z" fill="#fff"/><path fill-rule="evenodd" clip-rule="evenodd" d="M111.953 91.938a8.375 8.375 0 0 1 0-1.098c0-3.929 1.954-8.399 7.867-8.399s7.868 4.47 7.868 8.399a6.887 6.887 0 0 1-.21 1.59c-1.292-2.147-3.716-3.467-7.755-3.467-3.828.048-6.316 1.145-7.77 2.975Z" fill="#F4F8FF"/><path fill-rule="evenodd" clip-rule="evenodd" d="m124.101 60.966-5.137-.255 6.349-1.845c.035.43-.062.86-.278 1.234a2.164 2.164 0 0 1-.934.866Zm-5.687-1.623-2.132 1.591a26.569 26.569 0 0 0 3.231-5.917c.468-1.366.644-2.812.517-4.247.64.348 1.165.872 1.512 1.506.346.635.5 1.354.443 2.073-.1.917-.53 1.769-1.212 2.402a24.015 24.015 0 0 0-2.359 2.593Z" fill="#86A196"/><g filter="url(#b)"><circle cx="281.729" cy="104.185" r="37.652" fill="#211FA6"/></g><path d="M291.704 86.922a3.98 3.98 0 0 1 2.029 3.478v27.571a3.979 3.979 0 0 1-2.029 3.477l-6.359 3.554c-2.621 1.465-5.834-.451-5.834-3.478V86.846c0-3.026 3.213-4.942 5.834-3.478l6.359 3.554Zm-15.468 3.245c.15.281.229.595.229.914v26.183c0 .32-.079.634-.229.915-.939 1.762-3.585 1.088-3.585-.915V91.081c0-2.002 2.646-2.677 3.585-.914Zm-6.749 5.212c.15.28.228.595.228.914v15.804c0 .319-.078.633-.228.914-.94 1.763-3.586 1.088-3.586-.914V96.293c0-2.002 2.646-2.677 3.586-.914Z" fill="#F8F8FC"/><path d="M184.157 103.054v-.313c0-4.374 3.125-8.124 7.438-8.812 2.812-.5 5.75.438 7.812 2.5l.75.688.688-.688c2.062-2.063 5-3 7.812-2.5 4.313.688 7.5 4.438 7.5 8.812v.313a9.455 9.455 0 0 1-3 6.875l-11.312 10.562c-.438.438-1.063.625-1.688.625-.687 0-1.312-.187-1.75-.625l-11.312-10.562c-1.875-1.75-2.938-4.25-2.938-6.875Z" fill="#D63638"/><g filter="url(#c)"><rect x="118" y="167" width="164" height="22" rx="11" fill="#fff" shape-rendering="crispEdges"/><path d="M131.364 173.324c.215.16.286.428.197.678l-1.41 3.499h2.588c.25 0 .464.143.536.375a.58.58 0 0 1-.161.643l-5.141 4.284a.59.59 0 0 1-.715.018.585.585 0 0 1-.196-.678l1.41-3.499h-2.588a.575.575 0 0 1-.536-.375.56.56 0 0 1 .179-.643l5.141-4.285a.563.563 0 0 1 .696-.017Z" fill="#037ABE"/><path opacity=".9" d="M144.182 176.961c-.059-.563-.263-.969-.614-1.218-.344-.256-.786-.384-1.327-.384-.22 0-.436.022-.648.066a1.768 1.768 0 0 0-.57.22 1.205 1.205 0 0 0-.395.416c-.095.169-.142.381-.142.637 0 .241.069.438.208.592.146.146.336.267.57.362.242.095.512.175.812.241.3.059.603.125.91.198.315.073.622.161.922.263.3.095.566.227.8.395.242.168.432.38.571.636.146.256.219.578.219.965 0 .417-.095.775-.285 1.075-.183.293-.42.534-.713.724a3.114 3.114 0 0 1-.987.395 4.63 4.63 0 0 1-2.325-.033 3.204 3.204 0 0 1-1.032-.494 2.51 2.51 0 0 1-.702-.855c-.168-.351-.252-.764-.252-1.24h.987c0 .329.063.615.187.856.131.234.3.428.504.581.212.154.457.267.735.34.278.073.563.11.856.11.234 0 .468-.022.702-.066.241-.044.457-.117.647-.219.19-.11.344-.256.461-.439.117-.183.175-.417.175-.702 0-.27-.073-.49-.219-.658a1.46 1.46 0 0 0-.571-.406c-.234-.11-.5-.197-.8-.263-.3-.066-.607-.132-.922-.198-.307-.073-.61-.153-.91-.241-.3-.095-.57-.216-.812-.362a1.87 1.87 0 0 1-.57-.581c-.139-.241-.208-.541-.208-.9 0-.394.08-.734.241-1.02.161-.292.373-.53.636-.713.271-.19.574-.329.91-.416a4.186 4.186 0 0 1 2.172 0c.344.095.644.245.9.449.263.205.468.465.614.779.153.307.237.676.252 1.108h-.987Zm6.366 2.161a1.81 1.81 0 0 0-.153-.626 1.443 1.443 0 0 0-.34-.504 1.425 1.425 0 0 0-.505-.34 1.495 1.495 0 0 0-.636-.132c-.241 0-.461.044-.658.132-.19.08-.355.194-.494.34a1.663 1.663 0 0 0-.329.515c-.08.191-.128.395-.142.615h3.257Zm.9 1.579c-.124.636-.399 1.115-.823 1.437-.424.322-.958.483-1.601.483-.454 0-.848-.073-1.185-.22a2.328 2.328 0 0 1-.833-.614 2.673 2.673 0 0 1-.516-.943 4.666 4.666 0 0 1-.186-1.196 3.4 3.4 0 0 1 .197-1.184c.132-.359.315-.669.549-.933.241-.263.522-.468.844-.614a2.62 2.62 0 0 1 1.075-.219c.505 0 .921.106 1.25.318.337.204.604.468.801.789.205.322.344.673.417 1.053.08.381.113.743.099 1.086h-4.245a2.3 2.3 0 0 0 .088.713c.065.22.171.417.318.593.146.168.332.303.559.405.227.103.494.154.801.154.395 0 .716-.091.965-.274.256-.183.424-.461.505-.834h.921Zm2.348-3.872h1.13v.823h-1.13v3.521c0 .109.008.197.022.263a.303.303 0 0 0 .11.154.497.497 0 0 0 .208.076c.095.008.216.011.362.011h.428v.823h-.713c-.241 0-.45-.015-.625-.044a1 1 0 0 1-.417-.186.796.796 0 0 1-.23-.373 2.16 2.16 0 0 1-.077-.636v-3.609h-.965v-.823h.965v-1.7h.932v1.7Zm6.86 5.671h-.877v-.899h-.022c-.197.351-.45.61-.757.778-.307.161-.669.242-1.086.242-.373 0-.683-.048-.932-.143a1.52 1.52 0 0 1-.603-.428 1.627 1.627 0 0 1-.329-.647 3.758 3.758 0 0 1-.088-.844v-3.73h.932v3.839c0 .351.103.629.307.834.205.205.487.307.845.307.285 0 .53-.044.735-.132a1.37 1.37 0 0 0 .526-.373c.139-.16.242-.347.307-.559.074-.219.11-.457.11-.713v-3.203h.932v5.671Zm1.434-5.671h.932v.768h.022c.153-.314.395-.541.724-.68a2.648 2.648 0 0 1 1.086-.219c.438 0 .819.08 1.14.241.329.161.6.38.812.658.219.271.384.585.494.943.109.359.164.739.164 1.141a3.9 3.9 0 0 1-.164 1.141 2.636 2.636 0 0 1-.483.943 2.237 2.237 0 0 1-.812.625c-.321.154-.698.231-1.129.231-.139 0-.297-.015-.472-.044a2.605 2.605 0 0 1-.505-.143 2.202 2.202 0 0 1-.482-.263 1.624 1.624 0 0 1-.373-.428h-.022v2.918h-.932v-7.832Zm4.387 2.786c0-.263-.037-.519-.11-.768a1.944 1.944 0 0 0-.318-.68 1.505 1.505 0 0 0-.548-.471 1.635 1.635 0 0 0-.779-.176c-.314 0-.581.062-.801.187a1.588 1.588 0 0 0-.537.493 2.068 2.068 0 0 0-.307.68 3.46 3.46 0 0 0 .011 1.591c.066.256.168.482.307.68.146.197.333.358.559.482.227.117.501.176.823.176.322 0 .589-.062.801-.186.219-.125.394-.289.526-.494.132-.205.227-.439.285-.702a3.7 3.7 0 0 0 .088-.812Zm9.072-.493a1.834 1.834 0 0 0-.154-.626 1.417 1.417 0 0 0-.34-.504 1.43 1.43 0 0 0-.504-.34 1.495 1.495 0 0 0-.636-.132 1.595 1.595 0 0 0-1.152.472 1.627 1.627 0 0 0-.329.515c-.08.191-.128.395-.143.615h3.258Zm.899 1.579c-.124.636-.398 1.115-.822 1.437-.424.322-.958.483-1.602.483-.453 0-.848-.073-1.184-.22a2.34 2.34 0 0 1-.834-.614 2.672 2.672 0 0 1-.515-.943 4.71 4.71 0 0 1-.187-1.196 3.4 3.4 0 0 1 .198-1.184c.131-.359.314-.669.548-.933.241-.263.523-.468.845-.614a2.62 2.62 0 0 1 1.075-.219c.504 0 .921.106 1.25.318.336.204.603.468.801.789.204.322.343.673.416 1.053.081.381.114.743.099 1.086h-4.245a2.3 2.3 0 0 0 .088.713c.066.22.172.417.318.593.146.168.333.303.56.405.226.103.493.154.8.154.395 0 .717-.091.966-.274.255-.183.424-.461.504-.834h.921Zm1.055-3.872h.877v.834h.022c.424-.644 1.035-.965 1.832-.965.351 0 .669.073.954.219.285.146.486.395.603.746.19-.307.439-.545.746-.713a2.155 2.155 0 0 1 1.031-.252c.285 0 .541.033.768.098.234.059.431.154.592.286.168.131.296.303.384.515.095.205.143.453.143.746v4.157h-.933v-3.718c0-.176-.014-.34-.043-.494a.985.985 0 0 0-.165-.395.798.798 0 0 0-.34-.274 1.288 1.288 0 0 0-.548-.099c-.461 0-.823.132-1.086.395-.264.263-.395.614-.395 1.053v3.532h-.932v-3.718c0-.183-.019-.351-.055-.505a.97.97 0 0 0-.165-.395.735.735 0 0 0-.329-.263 1.152 1.152 0 0 0-.515-.099c-.271 0-.505.055-.702.165-.191.11-.348.241-.472.395a1.714 1.714 0 0 0-.263.482 1.393 1.393 0 0 0-.077.406v3.532h-.932v-5.671Zm14.374 5.649c-.161.095-.384.143-.669.143-.241 0-.435-.066-.581-.198-.139-.139-.209-.362-.209-.669-.255.307-.555.53-.899.669a2.975 2.975 0 0 1-1.097.198c-.256 0-.501-.03-.735-.088a1.716 1.716 0 0 1-.592-.274 1.39 1.39 0 0 1-.406-.483 1.737 1.737 0 0 1-.142-.735c0-.322.054-.585.164-.79.11-.204.252-.369.428-.493.183-.132.387-.23.614-.296.234-.066.472-.121.713-.165.256-.051.497-.088.724-.109.234-.03.439-.066.614-.11a1.1 1.1 0 0 0 .417-.209c.102-.095.154-.23.154-.405a.9.9 0 0 0-.121-.494.744.744 0 0 0-.296-.285 1.149 1.149 0 0 0-.406-.132 2.949 2.949 0 0 0-.439-.033c-.395 0-.724.077-.987.231-.263.146-.406.427-.428.844h-.932c.015-.351.088-.647.219-.888.132-.242.307-.435.527-.582.219-.153.468-.263.746-.329.285-.065.588-.098.91-.098.256 0 .508.018.757.054.256.037.486.114.691.231.205.11.369.267.493.471.125.205.187.472.187.801v2.918c0 .219.011.38.033.482.029.103.117.154.263.154a.904.904 0 0 0 .285-.055v.724Zm-1.513-2.907a1.218 1.218 0 0 1-.461.198c-.19.036-.391.069-.603.099a9.68 9.68 0 0 0-.626.087 2.2 2.2 0 0 0-.57.154 1.062 1.062 0 0 0-.417.318c-.102.132-.153.314-.153.548a.82.82 0 0 0 .088.395.87.87 0 0 0 .241.253c.102.065.219.113.351.142.131.029.27.044.417.044.307 0 .57-.04.789-.121.22-.087.399-.193.538-.318a1.32 1.32 0 0 0 .307-.417c.066-.153.099-.296.099-.427v-.955Zm3.368-3.762h-.932v-1.141h.932v1.141Zm-.932 1.02h.932v5.671h-.932v-5.671Zm2.431-2.161h.933v7.832h-.933v-7.832Zm2.947 6.044c.008.205.055.38.143.527.088.139.201.252.34.34.146.08.307.139.483.175.182.037.369.055.559.055.146 0 .3-.011.461-.033.161-.022.307-.062.438-.121a.834.834 0 0 0 .34-.252.709.709 0 0 0 .132-.439c0-.241-.091-.424-.274-.548a2.24 2.24 0 0 0-.691-.296 8.397 8.397 0 0 0-.889-.209 5.3 5.3 0 0 1-.899-.263 1.922 1.922 0 0 1-.68-.482c-.183-.205-.274-.49-.274-.856 0-.285.062-.53.186-.735.132-.205.296-.369.494-.493.204-.132.431-.227.68-.286.256-.065.508-.098.757-.098.321 0 .618.029.888.087.271.052.508.147.713.286.212.131.38.314.505.548.124.227.197.512.219.856h-.932a.918.918 0 0 0-.45-.746 1.284 1.284 0 0 0-.417-.154 1.873 1.873 0 0 0-.45-.055c-.139 0-.281.011-.427.033a1.297 1.297 0 0 0-.384.121.71.71 0 0 0-.285.219.527.527 0 0 0-.11.351c0 .161.055.296.164.406.117.102.264.19.439.263.176.066.373.125.592.176.22.044.439.091.659.142.234.052.46.114.68.187.226.073.424.172.592.296a1.307 1.307 0 0 1 .581 1.13c0 .343-.073.629-.219.855a1.61 1.61 0 0 1-.56.549 2.19 2.19 0 0 1-.778.285 4.289 4.289 0 0 1-.856.088c-.314 0-.614-.033-.899-.099a2.28 2.28 0 0 1-.757-.318 1.728 1.728 0 0 1-.527-.592 2.109 2.109 0 0 1-.219-.9h.932Zm8.954-4.903h-.932v-1.141h.932v1.141Zm-.932 1.02h.932v5.671h-.932v-5.671Zm2.377 0h.877v.9h.022c.388-.688 1.002-1.031 1.843-1.031.373 0 .683.051.932.153.249.103.45.245.603.428.154.183.26.402.318.658.066.249.099.527.099.834v3.729h-.932v-3.839c0-.351-.103-.629-.307-.834-.205-.204-.487-.307-.845-.307-.285 0-.534.044-.746.132a1.396 1.396 0 0 0-.515.373 1.669 1.669 0 0 0-.318.57 2.354 2.354 0 0 0-.099.702v3.203h-.932v-5.671Zm14.171 5.649c-.161.095-.384.143-.669.143-.242 0-.435-.066-.582-.198-.139-.139-.208-.362-.208-.669-.256.307-.556.53-.9.669a2.974 2.974 0 0 1-1.096.198c-.256 0-.501-.03-.735-.088a1.721 1.721 0 0 1-.593-.274 1.377 1.377 0 0 1-.405-.483 1.736 1.736 0 0 1-.143-.735c0-.322.055-.585.165-.79.109-.204.252-.369.427-.493.183-.132.388-.23.615-.296.234-.066.471-.121.712-.165.256-.051.498-.088.724-.109.234-.03.439-.066.615-.11.175-.051.314-.121.416-.209.103-.095.154-.23.154-.405 0-.205-.04-.37-.121-.494a.738.738 0 0 0-.296-.285 1.149 1.149 0 0 0-.406-.132 2.936 2.936 0 0 0-.438-.033c-.395 0-.724.077-.988.231-.263.146-.405.427-.427.844h-.933c.015-.351.088-.647.22-.888.131-.242.307-.435.526-.582a2.17 2.17 0 0 1 .746-.329c.285-.065.589-.098.91-.098.256 0 .509.018.757.054.256.037.487.114.691.231.205.11.37.267.494.471.124.205.186.472.186.801v2.918c0 .219.011.38.033.482.03.103.117.154.264.154.08 0 .175-.018.285-.055v.724Zm-1.514-2.907a1.218 1.218 0 0 1-.461.198c-.19.036-.391.069-.603.099a9.556 9.556 0 0 0-.625.087 2.2 2.2 0 0 0-.57.154 1.048 1.048 0 0 0-.417.318c-.103.132-.154.314-.154.548a.82.82 0 0 0 .088.395.883.883 0 0 0 .241.253c.103.065.22.113.351.142.132.029.271.044.417.044.307 0 .57-.04.79-.121.219-.087.398-.193.537-.318.139-.131.242-.27.307-.417.066-.153.099-.296.099-.427v-.955Zm5.818-1.919h-.954v-.823h.954v-.844c0-.461.132-.808.395-1.042.271-.242.662-.362 1.174-.362.087 0 .186.007.296.022.117.014.219.036.307.065v.812a1.031 1.031 0 0 0-.263-.055 1.828 1.828 0 0 0-.264-.022c-.226 0-.402.044-.526.132-.124.088-.187.256-.187.505v.789h1.097v.823h-1.097v4.848h-.932v-4.848Zm6.799 1.47a1.81 1.81 0 0 0-.153-.626 1.443 1.443 0 0 0-.34-.504 1.425 1.425 0 0 0-.505-.34 1.495 1.495 0 0 0-.636-.132c-.241 0-.461.044-.658.132-.19.08-.355.194-.494.34a1.663 1.663 0 0 0-.329.515c-.08.191-.128.395-.142.615h3.257Zm.9 1.579c-.124.636-.399 1.115-.823 1.437-.424.322-.958.483-1.601.483-.454 0-.848-.073-1.185-.22a2.328 2.328 0 0 1-.833-.614 2.673 2.673 0 0 1-.516-.943 4.666 4.666 0 0 1-.186-1.196 3.4 3.4 0 0 1 .197-1.184c.132-.359.314-.669.548-.933.242-.263.523-.468.845-.614a2.62 2.62 0 0 1 1.075-.219c.505 0 .921.106 1.25.318.337.204.604.468.801.789.205.322.344.673.417 1.053.08.381.113.743.099 1.086h-4.245a2.27 2.27 0 0 0 .088.713c.065.22.171.417.318.593.146.168.332.303.559.405.227.103.494.154.801.154.395 0 .716-.091.965-.274.256-.183.424-.461.505-.834h.921Zm6.67 1.799h-.987l-1.152-4.508h-.022l-1.141 4.508h-1.009l-1.82-5.671h1.031l1.283 4.64h.022l1.141-4.64h1.02l1.184 4.64h.022l1.273-4.64h.965l-1.81 5.671Zm9.599-3.85c-.073-.358-.227-.636-.461-.834-.234-.197-.548-.296-.943-.296-.336 0-.618.062-.845.187a1.561 1.561 0 0 0-.548.493 2.132 2.132 0 0 0-.285.713 3.76 3.76 0 0 0-.088.823c0 .263.029.519.088.768.066.248.164.471.296.669.131.19.303.343.515.46.212.117.465.176.757.176.461 0 .819-.121 1.075-.362.263-.241.424-.581.483-1.02h.954c-.102.702-.366 1.243-.79 1.623-.417.381-.987.571-1.711.571a3 3 0 0 1-1.152-.209 2.282 2.282 0 0 1-.833-.592 2.676 2.676 0 0 1-.505-.91 4.023 4.023 0 0 1-.164-1.174c0-.424.055-.819.164-1.185.11-.373.275-.694.494-.965a2.32 2.32 0 0 1 .844-.647c.337-.161.728-.241 1.174-.241.322 0 .622.04.9.12.285.073.533.19.745.351.22.161.399.366.538.615.139.241.227.53.263.866h-.965Zm2.096-3.982h.932v7.832h-.932v-7.832Zm3.364 1.141h-.932v-1.141h.932v1.141Zm-.932 1.02h.932v5.671h-.932v-5.671Zm6.226 1.821c-.073-.358-.227-.636-.461-.834-.234-.197-.548-.296-.943-.296-.336 0-.618.062-.844.187-.227.124-.41.289-.549.493a2.153 2.153 0 0 0-.285.713 3.76 3.76 0 0 0-.088.823c0 .263.029.519.088.768.066.248.165.471.296.669.132.19.304.343.516.46.212.117.464.176.756.176.461 0 .819-.121 1.075-.362.264-.241.425-.581.483-1.02h.954c-.102.702-.365 1.243-.789 1.623-.417.381-.988.571-1.712.571a2.99 2.99 0 0 1-1.151-.209 2.286 2.286 0 0 1-.834-.592 2.69 2.69 0 0 1-.504-.91 3.99 3.99 0 0 1-.165-1.174 4.1 4.1 0 0 1 .165-1.185c.109-.373.274-.694.493-.965.227-.278.508-.493.845-.647.336-.161.727-.241 1.173-.241.322 0 .622.04.9.12.285.073.534.19.746.351.219.161.398.366.537.615.139.241.227.53.263.866h-.965Zm2.096-3.982h.933v4.64l2.588-2.479h1.251l-2.249 2.062 2.413 3.609h-1.184l-1.942-2.962-.877.812v2.15h-.933v-7.832Zm6.204 6.044c.007.205.054.38.142.527.088.139.201.252.34.34.146.08.307.139.483.175.183.037.369.055.559.055.147 0 .3-.011.461-.033a1.6 1.6 0 0 0 .439-.121.84.84 0 0 0 .34-.252.715.715 0 0 0 .131-.439c0-.241-.091-.424-.274-.548a2.24 2.24 0 0 0-.691-.296 8.376 8.376 0 0 0-.888-.209 5.284 5.284 0 0 1-.9-.263 1.931 1.931 0 0 1-.68-.482c-.183-.205-.274-.49-.274-.856 0-.285.062-.53.186-.735.132-.205.297-.369.494-.493.205-.132.431-.227.68-.286.256-.065.508-.098.757-.098.322 0 .618.029.888.087.271.052.509.147.713.286.212.131.381.314.505.548.124.227.197.512.219.856h-.932a.908.908 0 0 0-.45-.746 1.284 1.284 0 0 0-.417-.154 1.871 1.871 0 0 0-.449-.055c-.139 0-.282.011-.428.033a1.297 1.297 0 0 0-.384.121.71.71 0 0 0-.285.219.532.532 0 0 0-.11.351c0 .161.055.296.165.406.117.102.263.19.438.263.176.066.373.125.593.176.219.044.438.091.658.142.234.052.46.114.68.187.227.073.424.172.592.296.176.117.315.267.417.45.11.183.164.409.164.68 0 .343-.073.629-.219.855-.139.227-.325.41-.559.549a2.203 2.203 0 0 1-.779.285c-.285.058-.57.088-.856.088-.314 0-.614-.033-.899-.099a2.289 2.289 0 0 1-.757-.318 1.715 1.715 0 0 1-.526-.592 2.094 2.094 0 0 1-.22-.9h.933Z" fill="#3A3A56"/></g></g><defs><filter id="b" x="238.831" y="63.91" width="85.796" height="85.796" filterUnits="userSpaceOnUse" color-interpolation-filters="sRGB"><feFlood flood-opacity="0" result="BackgroundImageFix"/><feColorMatrix in="SourceAlpha" values="0 0 0 0 0 0 0 0 0 0 0 0 0 0 0 0 0 0 127 0" result="hardAlpha"/><feOffset dy="2.623"/><feGaussianBlur stdDeviation="2.623"/><feComposite in2="hardAlpha" operator="out"/><feColorMatrix values="0 0 0 0 0 0 0 0 0 0 0 0 0 0 0 0 0 0 0.05 0"/><feBlend in2="BackgroundImageFix" result="effect1_dropShadow_7_2111"/><feBlend in="SourceGraphic" in2="effect1_dropShadow_7_2111" result="shape"/></filter><filter id="c" x="114.344" y="165.172" width="171.312" height="29.312" filterUnits="userSpaceOnUse" color-interpolation-filters="sRGB"><feFlood flood-opacity="0" result="BackgroundImageFix"/><feColorMatrix in="SourceAlpha" values="0 0 0 0 0 0 0 0 0 0 0 0 0 0 0 0 0 0 127 0" result="hardAlpha"/><feOffset dy="1.828"/><feGaussianBlur stdDeviation="1.828"/><feComposite in2="hardAlpha" operator="out"/><feColorMatrix values="0 0 0 0 0 0 0 0 0 0 0 0 0 0 0 0 0 0 0.05 0"/><feBlend in2="BackgroundImageFix" result="effect1_dropShadow_7_2111"/><feBlend in="SourceGraphic" in2="effect1_dropShadow_7_2111" result="shape"/></filter><clipPath id="a"><path fill="#fff" d="M0 0h400v210H0z"/></clipPath></defs></svg>