<svg width="180" height="23" fill="none" xmlns="http://www.w3.org/2000/svg"><path d="M0 2.68a1.233 1.233 0 0 1 1.233-1.232h9.921a.975.975 0 0 1 .976.976v.592a.977.977 0 0 1-.976.976H2.9v6.54h6.54a.977.977 0 0 1 .976.975v.591a.976.976 0 0 1-.976.976H2.9v6.717h8.758a.975.975 0 0 1 .977.976v.592a.977.977 0 0 1-.977.976H1.238a1.233 1.233 0 0 1-1.233-1.233L0 2.68Zm18.58 18.763a.863.863 0 0 1-.976.976h-.917a.863.863 0 0 1-.977-.976V.985a.863.863 0 0 1 .977-.976h.917a.863.863 0 0 1 .977.976v20.458ZM34.905 7.365h-.71c-.65 0-.976.277-.976.83v.743a3.3 3.3 0 0 0 .059.587h-.06a3.6 3.6 0 0 0-.946-1.243 5.544 5.544 0 0 0-1.435-.873 5.7 5.7 0 0 0-2.293-.4c-3.993 0-6.688 2.842-6.688 7.97 0 4.716 2.656 7.8 6.438 7.8 2.026 0 4.23-.842 4.925-2.545h.059c-.031.201-.05.404-.06.607v.753c0 .552.326.829.977.83h.71a.862.862 0 0 0 .976-.977v-13.1a.862.862 0 0 0-.976-.982ZM28.9 20.291c-2.52 0-4.115-2.367-4.115-5.429 0-2.87 1.153-5.366 4.245-5.366 2.372 0 4.04 2.1 4.04 5.368.002 3.24-1.686 5.427-4.165 5.427H28.9Zm10.562.775a.766.766 0 0 1-.414-.592c-.013-.262.06-.522.207-.74l.3-.414a.918.918 0 0 1 .606-.414c.267-.005.529.067.755.207.459.284.933.54 1.421.77a5.137 5.137 0 0 0 2.25.442 3.034 3.034 0 0 0 1.834-.518 1.7 1.7 0 0 0 .71-1.465 1.419 1.419 0 0 0-.577-1.183 6.702 6.702 0 0 0-1.435-.814 26.16 26.16 0 0 0-1.849-.71 8.596 8.596 0 0 1-1.849-.888 5.187 5.187 0 0 1-1.435-1.346 3.455 3.455 0 0 1-.577-2.07 3.97 3.97 0 0 1 .43-1.88 3.833 3.833 0 0 1 1.168-1.346 5.509 5.509 0 0 1 1.731-.814 7.624 7.624 0 0 1 2.086-.28 6.947 6.947 0 0 1 2.59.413c.535.207 1.054.454 1.552.74a.827.827 0 0 1 .488.547c.042.263-.016.532-.163.754l-.266.444c-.276.494-.71.602-1.3.325a10.117 10.117 0 0 0-1.228-.562 5 5 0 0 0-1.82-.3 3.207 3.207 0 0 0-1.79.474 1.584 1.584 0 0 0-.725 1.42 1.46 1.46 0 0 0 .577 1.2c.439.337.921.61 1.435.814.572.237 1.189.474 1.85.71.643.23 1.262.522 1.848.873a4.75 4.75 0 0 1 1.435 1.331c.407.618.609 1.348.577 2.086a4.07 4.07 0 0 1-.385 1.761 4.081 4.081 0 0 1-1.1 1.405 5.12 5.12 0 0 1-1.7.918 7.047 7.047 0 0 1-2.2.325 8.54 8.54 0 0 1-1.73-.163 8.145 8.145 0 0 1-1.406-.414 8.853 8.853 0 0 1-1.11-.532 6.31 6.31 0 0 1-.79-.514Zm24.75-16.689a.863.863 0 0 1-.976-.976v-.976a.862.862 0 0 1 .976-.976h1.006a.863.863 0 0 1 .977.976V3.4a.863.863 0 0 1-.977.976h-1.006Zm-.947 3.964a.862.862 0 0 1 .977-.976h.917a.863.863 0 0 1 .976.976v13.1a.863.863 0 0 1-.976.976h-.917a.864.864 0 0 1-.977-.976V8.34Zm17.579 12.446a.8.8 0 0 1-.34 1.05 7.647 7.647 0 0 1-3.624.857c-5.328 0-7.578-4-7.578-7.841 0-3.764 2.386-7.842 7.455-7.842a7.376 7.376 0 0 1 3.45.795.8.8 0 0 1 .345 1.065l-.364.73a.791.791 0 0 1-1.02.377 5.472 5.472 0 0 0-2.14-.48c-3.106 0-4.8 1.68-4.8 5.325 0 3.116 1.633 5.386 4.856 5.386a5.926 5.926 0 0 0 2.388-.521.787.787 0 0 1 1.022.385l.35.714Zm-23.705.656a.977.977 0 0 1-.978.976h-.916a.975.975 0 0 1-.977-.976V9.85h-1.55a.85.85 0 0 1-.946-.976v-.539a.822.822 0 0 1 .822-.822h1.734V4.23a.977.977 0 0 1 .975-.977h.858a.977.977 0 0 1 .977.977v3.284h2.758a.822.822 0 0 1 .822.822v.54a.85.85 0 0 1-.947.975h-2.633v11.593ZM110.458 2.68a1.234 1.234 0 0 1 1.233-1.232h9.922a.975.975 0 0 1 .976.976v.592a.976.976 0 0 1-.976.976h-8.255v6.54h6.539a.978.978 0 0 1 .977.975v.591a.978.978 0 0 1-.603.902.973.973 0 0 1-.374.074h-6.539v6.717h8.758a.975.975 0 0 1 .976.976v.592a.976.976 0 0 1-.976.976h-10.425a1.233 1.233 0 0 1-1.233-1.233V2.68Zm15.653 5.662a.866.866 0 0 1 .244-.732.865.865 0 0 1 .732-.244h.828a.863.863 0 0 1 .977.976v1.331c0 .199-.02.397-.059.592a1.09 1.09 0 0 0-.03.267h.059c.196-.465.46-.899.784-1.287.35-.429.758-.807 1.213-1.124a6.85 6.85 0 0 1 1.508-.8 4.732 4.732 0 0 1 1.7-.31c2.467 0 3.967 1.132 4.5 3.4h.059c.215-.462.494-.89.829-1.274a6.421 6.421 0 0 1 1.213-1.095 6.031 6.031 0 0 1 1.509-.755 5.4 5.4 0 0 1 1.746-.28 4.6 4.6 0 0 1 3.758 1.434 6.657 6.657 0 0 1 1.183 4.305v8.693a.866.866 0 0 1-.582.94.86.86 0 0 1-.394.035h-.917a.863.863 0 0 1-.976-.976v-8.071a9.88 9.88 0 0 0-.1-1.479 3.488 3.488 0 0 0-.384-1.184 2.085 2.085 0 0 0-.8-.8 2.7 2.7 0 0 0-1.346-.3 3.6 3.6 0 0 0-1.864.488 4.517 4.517 0 0 0-1.405 1.3 6.041 6.041 0 0 0-.873 1.849 7.575 7.575 0 0 0-.3 2.1v6.089a.843.843 0 0 1-.229.724.854.854 0 0 1-.718.252h-.947a.847.847 0 0 1-.917-.587.857.857 0 0 1-.03-.39v-8.071a10.7 10.7 0 0 0-.089-1.42 3.627 3.627 0 0 0-.355-1.2 2.04 2.04 0 0 0-.784-.828 2.657 2.657 0 0 0-1.376-.31 3.652 3.652 0 0 0-1.908.5 4.637 4.637 0 0 0-1.42 1.316 6.02 6.02 0 0 0-.873 1.849 7.446 7.446 0 0 0-.3 2.07v6.09a.868.868 0 0 1-.582.94.864.864 0 0 1-.395.036h-.917a.864.864 0 0 1-.976-.977l.004-13.082Zm44.944-3.965a.864.864 0 0 1-.976-.976v-.976a.866.866 0 0 1 .244-.732.858.858 0 0 1 .732-.244h1.006a.86.86 0 0 1 .94.581.88.88 0 0 1 .036.395V3.4a.868.868 0 0 1-.976.976h-1.006Zm-.947 3.964a.866.866 0 0 1 .244-.731.858.858 0 0 1 .732-.244h.917a.86.86 0 0 1 .94.58.88.88 0 0 1 .036.395v13.1a.868.868 0 0 1-.976.976h-.917a.864.864 0 0 1-.976-.976V8.34Zm9.883 13.102a.866.866 0 0 1-.244.731.864.864 0 0 1-.732.245h-.917a.865.865 0 0 1-.977-.976V.985a.868.868 0 0 1 .582-.94.865.865 0 0 1 .395-.036h.917a.864.864 0 0 1 .976.976v20.458Zm-15.03-14.079h-.71c-.652 0-.977.277-.977.83v.743a3.3 3.3 0 0 0 .059.587h-.059a3.615 3.615 0 0 0-.947-1.243 5.558 5.558 0 0 0-1.435-.873 5.703 5.703 0 0 0-2.293-.4c-3.992 0-6.687 2.842-6.687 7.97 0 4.716 2.656 7.8 6.438 7.8 2.026 0 4.231-.843 4.925-2.545h.059a5.372 5.372 0 0 0-.059.607v.753c0 .552.325.828.977.828h.71a.861.861 0 0 0 .977-.977v-13.1a.86.86 0 0 0-.243-.735.862.862 0 0 0-.735-.245Zm-6.005 12.926c-2.519 0-4.115-2.367-4.115-5.429 0-2.87 1.153-5.366 4.245-5.366 2.372 0 4.04 2.1 4.04 5.368.001 3.237-1.686 5.427-4.17 5.427Z" fill="#2D2F7A"/><path d="M103.759 11.853a4.05 4.05 0 0 0-3.046-1.574c-.13 0-.266-.012-.358-.008h-1.2a.454.454 0 0 0-.455.454v.736a.454.454 0 0 0 .454.454h1.201a2.504 2.504 0 0 1 .489.044 2.337 2.337 0 0 1 1.476.966c.335.493.477 1.091.4 1.682a2.4 2.4 0 0 1-.834 1.529 2.174 2.174 0 0 1-.8.427 3.144 3.144 0 0 1-1.011.1l-2.48.01c-1.655.008-3.309.014-4.964 0l-2.481-.009h-1.086l-.114-.008a2.332 2.332 0 0 1-.88-.237 2.351 2.351 0 0 1-1.14-1.334 2.45 2.45 0 0 1 .052-1.727 2.315 2.315 0 0 1 1.227-1.259 2.3 2.3 0 0 1 .907-.182h1.24c1.327 0 2.522-.012 3.8 0l-1.486 1.64a.37.37 0 0 0 .038.53l.484.4a.385.385 0 0 0 .541-.05l2.374-2.859a.746.746 0 0 0 0-.954l-2.374-2.858a.383.383 0 0 0-.54-.05l-.485.4a.367.367 0 0 0-.037.53l1.486 1.64c-1.274.008-2.468 0-3.8 0h-1.24a4.285 4.285 0 0 0-1.52.261 4.1 4.1 0 0 0-2.274 2.078 3.983 3.983 0 0 0-.1 3.107 4.055 4.055 0 0 0 2.136 2.223c.476.216.99.336 1.513.355l.194.008h1.086l2.481-.01c1.654-.01 3.308 0 4.963 0l2.481.01a5.23 5.23 0 0 0 1.449-.128 4.21 4.21 0 0 0 1.412-.667 3.997 3.997 0 0 0 1.6-2.647 3.97 3.97 0 0 0-.779-3.023Z" fill="#5457FF"/></svg>