<?xml version="1.0" encoding="UTF-8" standalone="no"?><!DOCTYPE svg PUBLIC "-//W3C//DTD SVG 1.1//EN" "http://www.w3.org/Graphics/SVG/1.1/DTD/svg11.dtd"><svg width="100%" height="100%" viewBox="0 0 161 40" version="1.1" xmlns="http://www.w3.org/2000/svg" xmlns:xlink="http://www.w3.org/1999/xlink" xml:space="preserve" xmlns:serif="http://www.serif.com/" style="fill-rule:evenodd;clip-rule:evenodd;stroke-linejoin:round;stroke-miterlimit:2;"><path d="M156.887,14.801l-0,15.361l-3.84,0l0,-15.361l-2.616,0l0,-3.823l2.635,-0l-0.015,-6l3.839,-0l0,6l4.11,-0l0,3.823l-4.113,0Zm-23.345,4.179c0.27,-1.867 1.377,-3.512 3.006,-4.468c1.616,-0.909 3.591,-0.902 5.201,0.016c1.645,0.924 2.758,2.566 3.006,4.434l-11.213,-0l-0,0.018Zm14.238,-2.77c-0.735,-1.698 -1.937,-3.154 -3.465,-4.198c-1.519,-1.041 -3.324,-1.585 -5.166,-1.563c-1.752,0 -3.349,0.459 -4.827,1.359c-3.01,1.877 -4.827,5.185 -4.792,8.732c-0.035,3.547 1.782,6.855 4.792,8.732c2.525,1.592 5.676,1.827 8.411,0.629c1.123,-0.481 2.145,-1.173 3.007,-2.037c0.877,-0.868 1.588,-1.887 2.106,-3.006l-4.553,-0c-0.409,0.474 -0.883,0.883 -1.427,1.207c-2.469,1.412 -5.61,0.695 -7.223,-1.648c-0.51,-0.758 -0.849,-1.616 -1.004,-2.515l14.987,-0c0.23,-1.937 -0.066,-3.903 -0.846,-5.692Zm-21.206,-9.94c-0,1.126 -0.912,2.038 -2.038,2.038c-1.126,-0 -2.038,-0.912 -2.038,-2.038c0,-1.126 0.912,-2.037 2.038,-2.037c1.126,-0 2.038,0.911 2.038,2.037m-8.327,33.423l-0,-3.823c1.544,0.009 2.981,-0.79 3.789,-2.107c0.39,-0.645 0.579,-1.359 0.579,-2.142l-0,-20.628l3.839,0l0,20.644c-0.003,2.167 -0.877,4.239 -2.424,5.758c-1.547,1.515 -3.635,2.352 -5.802,2.314m-4.245,-9.581l3.824,-0l-0,-28.716l-3.805,-0l-0,28.716l-0.019,-0Zm-4.673,-23.858c0,1.126 -0.912,2.038 -2.037,2.038c-1.126,-0 -2.038,-0.912 -2.038,-2.038c-0,-1.126 0.912,-2.037 2.038,-2.037c1.125,-0 2.037,0.911 2.037,2.037m-3.978,23.873l3.84,0l-0,-19.15l-3.84,0l0,19.15Zm-14.713,-3.21c1.06,0.025 2.101,-0.271 2.991,-0.849c0.883,-0.579 1.547,-1.359 2.037,-2.311c0.475,-0.969 0.714,-2.038 0.714,-3.211c0,-1.189 -0.239,-2.261 -0.714,-3.229c-0.456,-0.944 -1.16,-1.742 -2.037,-2.312c-1.881,-1.141 -4.239,-1.141 -6.117,0c-1.937,1.167 -3.11,3.277 -3.075,5.541c-0.003,2.264 1.186,4.362 3.126,5.522c0.949,0.575 1.971,0.849 3.075,0.849Zm9.924,-15.94l0,19.15l-3.874,0l0,-2.921c-1.273,2.157 -3.613,3.456 -6.116,3.399c-5.547,-0.053 -10.037,-4.528 -10.11,-10.075c0.048,-5.565 4.547,-10.065 10.11,-10.109c2.513,-0.051 4.852,1.261 6.116,3.434l0,-2.89l3.859,-0l0.015,0.012Zm-52.429,0l3.865,0l0,2.208c0.409,-0.579 0.849,-1.019 1.274,-1.378c0.902,-0.729 2.034,-1.116 3.194,-1.088c1.412,0 2.667,0.324 3.774,0.969c1.104,0.629 2.038,1.528 2.786,2.685c1.368,-2.301 3.865,-3.694 6.541,-3.654c1.597,0 3.025,0.409 4.298,1.224c1.267,0.811 2.289,1.949 2.956,3.295c0.698,1.377 1.053,2.89 1.053,4.538l0,10.348l-3.839,0l-0,-10.348c-0,-0.969 -0.17,-1.852 -0.544,-2.635c-0.343,-0.761 -0.89,-1.415 -1.582,-1.887c-0.698,-0.469 -1.522,-0.714 -2.361,-0.698c-0.884,-0 -1.667,0.22 -2.381,0.679c-0.698,0.475 -1.257,1.104 -1.647,1.902c-0.39,0.799 -0.579,1.683 -0.579,2.636l-0,10.348l-3.839,0l-0,-10.348c0.006,-0.912 -0.199,-1.815 -0.595,-2.636c-0.377,-0.767 -0.953,-1.418 -1.666,-1.886c-0.705,-0.466 -1.535,-0.708 -2.381,-0.698c-0.849,-0 -1.613,0.239 -2.276,0.729c-0.68,0.494 -1.224,1.154 -1.614,1.972c-0.39,0.839 -0.588,1.758 -0.578,2.685l-0,10.179l-3.859,0l0,-19.141Z" style="fill:#131b20;fill-rule:nonzero;"/><path d="M0,15.26l14.547,6.591l2.921,-2.905l-7.443,-3.381l23.074,-8.836l-8.867,22.974l-3.365,-7.377l-2.94,2.925l0.154,0.339l6.44,14.119l15.342,-39.709l-39.863,15.26Z" style="fill:#9585f4;fill-rule:nonzero;"/></svg>