<svg viewBox="0 0 99 32" fill="none" xmlns="http://www.w3.org/2000/svg"><path d="M35.434 26.482V11.034h3.354l4.922 9.799 4.855-9.799h3.354v15.448h-2.825V15.823l-4.303 8.453h-2.23l-4.303-8.453v10.66h-2.824Zm22.091.265c-.941 0-1.713-.151-2.318-.452-.604-.3-1.05-.704-1.346-1.203a3.191 3.191 0 0 1-.441-1.655c0-1.015.397-1.84 1.191-2.472.795-.631 1.987-.949 3.576-.949h2.78v-.265c0-.75-.212-1.302-.64-1.655-.427-.353-.957-.53-1.589-.53-.573 0-1.073.136-1.5.409-.428.273-.693.673-.795 1.203h-2.758c.074-.795.342-1.487.805-2.075a4.52 4.52 0 0 1 1.799-1.357c.736-.317 1.558-.475 2.471-.475 1.56 0 2.79.39 3.686 1.17.897.78 1.346 1.884 1.346 3.31v6.731h-2.405l-.265-1.765a4.08 4.08 0 0 1-1.357 1.457c-.582.383-1.327.573-2.24.573Zm.64-2.207c.808 0 1.437-.264 1.886-.794.45-.53.732-1.184.85-1.964h-2.405c-.75 0-1.289.135-1.611.408-.323.273-.486.607-.486 1.004 0 .428.163.759.486.993.322.235.75.353 1.28.353Zm8.739-10.703c-.516 0-.938-.155-1.269-.463a1.53 1.53 0 0 1-.497-1.17c0-.472.166-.858.497-1.159.331-.3.753-.452 1.269-.452.516 0 .938.152 1.269.452.33.3.496.687.496 1.159 0 .471-.165.86-.496 1.17-.331.308-.753.463-1.27.463Zm-1.412 12.645V15.536h2.824v10.946h-2.825Zm4.678 0v-15.89h2.825v15.89H70.17Zm2.538 4.856v-2.406h.86c.486 0 .831-.096 1.038-.287.207-.19.309-.516.309-.97v-12.14h2.825v12.138c0 1.324-.334 2.265-1.004 2.825-.67.56-1.578.839-2.726.839h-1.302Zm3.642-17.501c-.516 0-.938-.155-1.27-.463a1.53 1.53 0 0 1-.496-1.17c0-.472.165-.858.496-1.159.332-.3.754-.452 1.27-.452.515 0 .937.152 1.268.452.332.3.497.687.497 1.159 0 .471-.165.86-.497 1.17-.33.308-.753.463-1.268.463Zm8.562 12.91c-1.103 0-2.083-.234-2.935-.706a5.129 5.129 0 0 1-2.008-1.986c-.486-.853-.728-1.84-.728-2.957 0-1.118.24-2.141.717-3.024a5.201 5.201 0 0 1 1.986-2.063c.847-.494 1.843-.74 2.99-.74 1.073 0 2.022.235 2.847.707a5.072 5.072 0 0 1 1.931 1.93c.464.817.695 1.725.695 2.726 0 .163-.002.331-.01.508-.009.176-.02.361-.034.552h-8.32c.058.852.356 1.522.894 2.008.538.485 1.189.728 1.953.728.574 0 1.057-.13 1.446-.386a2.39 2.39 0 0 0 .871-1.004h2.87a5.214 5.214 0 0 1-1.027 1.887 5.058 5.058 0 0 1-1.765 1.335c-.698.322-1.49.485-2.373.485Zm.022-9.18c-.692 0-1.302.195-1.831.584-.53.39-.87.983-1.016 1.777h5.451c-.044-.72-.308-1.294-.794-1.721-.486-.428-1.09-.64-1.81-.64Zm11.432 8.915c-1.148 0-2.066-.278-2.759-.838-.692-.56-1.037-1.553-1.037-2.98v-4.766h-1.876v-2.362h1.876l.331-2.935h2.494v2.935h2.957v2.362h-2.957v4.789c0 .53.113.893.342 1.092.229.199.62.298 1.18.298h1.369v2.405h-1.92Zm-58.96-18.72a2.56 2.56 0 0 1-1.051-.204 1.66 1.66 0 0 1-.717-.587 1.663 1.663 0 0 1-.27-.93h1.042a.931.931 0 0 0 .273.637c.171.174.411.26.715.26.262 0 .471-.064.626-.19a.62.62 0 0 0 .231-.506.688.688 0 0 0-.204-.518 1.519 1.519 0 0 0-.543-.3c-.226-.078-.47-.16-.726-.25-.416-.143-.736-.327-.954-.556-.218-.227-.328-.527-.328-.905-.006-.32.071-.593.229-.822.157-.23.372-.406.645-.533s.588-.19.944-.19c.355 0 .678.063.954.193.276.13.491.309.648.54.157.232.24.508.251.828h-1.059a.729.729 0 0 0-.22-.504c-.144-.147-.34-.221-.591-.221a.84.84 0 0 0-.544.157c-.146.11-.22.27-.22.483 0 .18.058.323.17.427.114.105.268.196.464.268.196.072.42.149.673.232a4.6 4.6 0 0 1 .734.325c.22.124.4.287.533.491.135.204.201.464.201.784 0 .284-.072.546-.215.789a1.548 1.548 0 0 1-.64.582c-.284.146-.632.22-1.043.22h-.008Zm4.309-.093V2.262h.987v5.407h-.987Zm3.583 0V2.262h.988l2.54 3.807V2.262h.988v5.407h-.987l-2.541-3.802V7.67h-.988Zm9.564.093c-.546 0-1.015-.115-1.407-.35a2.344 2.344 0 0 1-.904-.982c-.213-.42-.318-.905-.318-1.457 0-.551.105-1.037.318-1.459.21-.422.513-.75.904-.987.392-.238.861-.356 1.407-.356.649 0 1.181.16 1.595.482.414.323.673.773.775 1.355h-1.09a1.172 1.172 0 0 0-.427-.692c-.218-.169-.508-.251-.87-.251-.498 0-.89.17-1.174.51-.285.34-.425.805-.425 1.398 0 .594.14 1.057.425 1.394.284.336.675.504 1.175.504.361 0 .65-.08.869-.234.218-.157.361-.375.427-.654h1.09c-.102.557-.361.99-.775 1.305-.414.314-.946.472-1.595.472v.002Zm4.789-.093V2.262h.988V4.51h2.425V2.262h.987v5.407h-.987V5.313h-2.425v2.356h-.988Z" fill="currentColor"/><path d="M25.794 2.897a2.385 2.385 0 0 0-2.58-.53L3.359 10.31a2.365 2.365 0 0 0-1.5 2.122 2.366 2.366 0 0 0 1.318 2.237l5.879 2.938 2.138-2.138-5.782-2.891 17.834-7.134-7.134 17.834-2.89-5.782-2.139 2.138 2.938 5.879a2.361 2.361 0 0 0 2.133 1.321h.105a2.365 2.365 0 0 0 2.12-1.5l7.943-19.86c.356-.888.149-1.9-.53-2.579l.003.003Z" fill="#857AEB"/></svg>