<svg version="1.1" id="Layer_1" xmlns="http://www.w3.org/2000/svg" x="0" y="0" viewBox="0 0 448.09 123.26" xml:space="preserve"><style>.st0,.st1{fill:#c02126}.st1{fill-rule:evenodd;clip-rule:evenodd}</style><path class="st0" d="M120.22 105.68h-6.98v4.31h6.78v2.55h-6.78v6h6.98v2.55h-9.61v-17.95h9.61v2.54zm2.43 4.08h2.54v1.05c.49-.53.91-.88 1.25-1.07.37-.19.83-.29 1.39-.29 1.24 0 2.22.56 2.94 1.67a3.77 3.77 0 0 1 3.24-1.67c2.47 0 3.71 1.55 3.71 4.64v7h-2.55v-6.29c0-1.09-.13-1.85-.38-2.3-.26-.46-.7-.69-1.3-.69-.7 0-1.21.27-1.53.81a5.39 5.39 0 0 0-.48 2.62v5.85h-2.55v-6.25c0-2.01-.56-3.02-1.69-3.02-.71 0-1.23.28-1.56.83a5.25 5.25 0 0 0-.49 2.6v5.85h-2.54v-11.34zm25.83 0h2.55v11.32h-2.55v-1.19a4.78 4.78 0 0 1-7.14-.19 6.48 6.48 0 0 1-1.48-4.33c0-1.7.49-3.11 1.48-4.24a4.7 4.7 0 0 1 3.7-1.7 4.6 4.6 0 0 1 3.44 1.63v-1.3zm-6.02 5.63c0 1.09.28 1.97.85 2.65a2.75 2.75 0 0 0 2.19 1.04c.94 0 1.7-.33 2.28-1 .58-.69.87-1.57.87-2.63s-.29-1.94-.87-2.63a2.85 2.85 0 0 0-2.26-1.01c-.87 0-1.6.34-2.19 1.02a3.84 3.84 0 0 0-.87 2.56zm10.86-10.34c0-.46.16-.85.48-1.19.32-.33.71-.5 1.16-.5.46 0 .85.17 1.17.5.32.33.48.72.48 1.2 0 .47-.16.88-.48 1.21-.32.33-.7.5-1.16.5-.46 0-.85-.17-1.17-.5a1.69 1.69 0 0 1-.48-1.22zm2.92 4.71v11.32h-2.54v-11.32h2.54zm5.21-8.31v19.64h-2.54v-19.64h2.54zm19.99 15.27h-7.45l-1.94 4.36h-2.83l8.61-19.08 8.31 19.08h-2.88l-1.82-4.36zm-1.07-2.54-2.58-6.1-2.71 6.1h5.29zm9.45-4.42v6.5c0 1.88.72 2.81 2.15 2.81 1.44 0 2.15-.94 2.15-2.81v-6.5h2.54v6.56c0 .91-.11 1.69-.33 2.35a3.99 3.99 0 0 1-1.09 1.59c-.86.77-1.95 1.15-3.27 1.15s-2.4-.38-3.26-1.15c-.53-.47-.9-1-1.12-1.59a6.67 6.67 0 0 1-.32-2.35v-6.56h2.55zm12.13 2.44v8.88h-2.54v-8.88h-1.08v-2.44h1.08v-4.15h2.54v4.15h1.97v2.44h-1.97zm2.81 3.14a5.7 5.7 0 0 1 1.7-4.17 5.62 5.62 0 0 1 4.15-1.72 5.85 5.85 0 0 1 5.86 5.99 5.85 5.85 0 0 1-5.91 5.98 5.5 5.5 0 0 1-4.14-1.74 6.02 6.02 0 0 1-1.66-4.34zm2.59.05c0 1.13.29 2.03.88 2.69.6.67 1.39 1 2.38 1s1.79-.33 2.38-.99c.59-.66.89-1.54.89-2.64s-.3-1.98-.89-2.64c-.6-.67-1.39-1-2.38-1-.97 0-1.76.33-2.36 1-.6.66-.9 1.52-.9 2.58zm11.27-5.63h2.54v1.05c.49-.53.91-.88 1.25-1.07.37-.19.83-.29 1.39-.29 1.24 0 2.22.56 2.94 1.67a3.77 3.77 0 0 1 3.24-1.67c2.47 0 3.71 1.55 3.71 4.64v7h-2.55v-6.29c0-1.09-.13-1.85-.38-2.3-.26-.46-.7-.69-1.3-.69-.7 0-1.21.27-1.53.81a5.39 5.39 0 0 0-.48 2.62v5.85h-2.55v-6.25c0-2.01-.56-3.02-1.69-3.02-.71 0-1.23.28-1.56.83a5.25 5.25 0 0 0-.49 2.6v5.85h-2.54v-11.34zm25.83 0H247v11.32h-2.55v-1.19a4.78 4.78 0 0 1-7.14-.19 6.43 6.43 0 0 1-1.48-4.33c0-1.7.49-3.11 1.48-4.24a4.7 4.7 0 0 1 3.7-1.7 4.6 4.6 0 0 1 3.44 1.63v-1.3zm-6.02 5.63c0 1.09.28 1.97.85 2.65a2.75 2.75 0 0 0 2.19 1.04c.94 0 1.7-.33 2.28-1 .58-.69.87-1.57.87-2.63s-.29-1.94-.87-2.63a2.84 2.84 0 0 0-2.25-1.01c-.87 0-1.6.34-2.19 1.02a3.8 3.8 0 0 0-.88 2.56zm13.86-3.19v8.88h-2.54v-8.88h-1.08v-2.44h1.08v-4.15h2.54v4.15h1.97v2.44h-1.97zm2.78-7.15c0-.46.16-.85.48-1.19.32-.33.71-.5 1.16-.5.46 0 .85.17 1.17.5.32.33.49.72.49 1.2 0 .47-.16.88-.49 1.21-.32.33-.7.5-1.16.5-.46 0-.85-.17-1.17-.5a1.69 1.69 0 0 1-.48-1.22zm2.92 4.71v11.32h-2.54v-11.32h2.54zm2.16 5.58a5.7 5.7 0 0 1 1.7-4.17 5.6 5.6 0 0 1 4.15-1.72 5.85 5.85 0 0 1 5.86 5.99 5.85 5.85 0 0 1-5.91 5.98 5.5 5.5 0 0 1-4.14-1.74 6.06 6.06 0 0 1-1.66-4.34zm2.6.05c0 1.13.29 2.03.88 2.69.6.67 1.39 1 2.38 1s1.79-.33 2.38-.99c.59-.66.89-1.54.89-2.64s-.3-1.98-.89-2.64c-.6-.67-1.39-1-2.38-1-.97 0-1.75.33-2.36 1-.6.66-.9 1.52-.9 2.58zm11.27-5.63h2.55v1.05a4.1 4.1 0 0 1 3-1.36c1.28 0 2.27.42 2.99 1.24.62.71.92 1.86.92 3.45v6.94h-2.55v-6.32c0-1.12-.15-1.88-.45-2.31-.29-.43-.83-.65-1.6-.65-.84 0-1.44.29-1.79.86-.35.56-.52 1.55-.52 2.96v5.46h-2.55v-11.32z"/><path class="st1" d="M343.18 42.36h-12.05v5.97A21.58 21.58 0 0 0 314.72 41c-14.17 0-24.48 11.81-24.48 28.09 0 15.66 10.31 27.22 24.36 27.22 6.59 0 11.55-2.24 16.53-7.46v7.33c0 10.94-4.35 16.29-13.3 16.29-4.85 0-9.57-2.36-11.68-6.09-1.24-2.11-1.62-4.1-1.99-8.57h-11.8c.12 15.66 9.82 25.48 25.35 25.48 8.95 0 16.65-3.6 21-10.06 3.48-4.97 4.47-9.57 4.47-19.76V42.36zm-26.22 9.44c8.7 0 14.66 6.84 14.66 16.65 0 10.19-5.84 17.02-14.54 17.02-8.82 0-14.54-6.58-14.54-16.78 0-10.17 5.72-16.89 14.42-16.89z"/><path d="M110.42 42.36v52.32h11.95V67.71c0-11.06 2.96-15.91 9.73-15.91 5.42 0 8.01 4.47 8.01 13.92v28.96h11.95V67.71c0-11.19 2.96-15.91 9.73-15.91 5.79 0 8.01 3.85 8.01 13.8v29.08h11.95V62.37c0-14.04-6.04-21.38-17.62-21.38-6.4 0-11.71 2.73-15.4 7.71-3.2-4.97-8.13-7.71-13.92-7.71-5.18 0-7.89 1.37-12.44 6.21v-4.85h-11.95zm116.59 0v6.09c-5.22-5.34-9.69-7.46-16.28-7.46-14.04 0-24.73 11.68-24.73 27.22 0 16.4 10.44 28.09 24.98 28.09 6.34 0 10.44-1.87 16.03-7.09v5.47h12.05V42.36h-12.05zm-14.17 9.44c8.83 0 14.91 6.96 14.91 16.78 0 10.07-6.09 16.9-14.91 16.9-8.45 0-14.54-7.08-14.54-16.9 0-9.69 6.22-16.78 14.54-16.78zm47.89-9.44h-12.06v52.32h12.06V42.36zm-5.97-29.11c-4.47 0-7.95 3.48-7.95 7.83s3.61 7.95 7.83 7.95c4.35 0 7.95-3.6 7.95-7.95s-3.48-7.83-7.83-7.83zM271.79 0h12.05v94.68h-12.05z" fill="#646569" fill-rule="evenodd" clip-rule="evenodd"/><path class="st1" d="M362.48 42.36h-12.06v30.32c0 8.2 1.49 12.68 5.47 17.03 4.23 4.35 9.94 6.59 16.78 6.59 6.96 0 12.68-2.24 16.9-6.59 3.98-4.35 5.47-8.82 5.47-17.03V42.36h-12.05v30.08c0 8.95-3.23 13.05-10.31 13.05-6.96 0-10.19-4.1-10.19-13.05V42.36zm40.62 0v52.32h12.06V69.45c0-12.93 2.98-17.65 11.06-17.65 7.46 0 9.82 3.36 9.82 13.67v29.21h12.05V62.62C448.09 47.95 442 41 429.2 41c-5.72 0-9.32 1.62-14.04 6.21v-4.85H403.1z"/><path class="st0" d="M48.83 46.5a18.47 18.47 0 1 0 0 36.94 18.47 18.47 0 0 0 0-36.94zm-28.8 18.46a28.8 28.8 0 1 1 57.43 3.11 4.5 4.5 0 0 0 4.63 4.95c4.73 0 5.24-6.1 5.24-8.06a38.5 38.5 0 1 0-10.01 25.9l7.91 6.65a48.84 48.84 0 1 1 12.43-32.55c0 10.84-5.16 19.64-15.53 19.64-4.56 0-7.34-2.09-8.85-4.42a28.8 28.8 0 0 1-53.25-15.22zm28.8-8.45a8.45 8.45 0 1 1 0 16.9 8.45 8.45 0 0 1 0-16.9z"/></svg>