<svg fill="none" height="41" viewBox="0 0 136 41" width="136" xmlns="http://www.w3.org/2000/svg"><path d="m6.82569 29.6986-3.39445 2.0134c-.46048.3028-.25006.8233 0 .9281l13.18286 7.3865c.7787.4363 1.7381.4363 2.5168 0l13.3575-7.4843c.4047-.2397.3383-.727 0-.8914l-3.5891-1.9392c-.3029-.1998-.9785-.1334-1.2178.0294l-8.5506 4.7909c-.7787.4363-1.7381.4363-2.5168 0l-8.62632-4.8334c-.32158-.1978-.83099-.1866-1.16209 0z" fill="#1a2e44"/><path d="m16.6147.681236c.7787-.436309 1.738-.436309 2.5167 0 0 0 9.9943 5.599884 10.616 5.948214.4238.21442.4622.79006 0 1.04964-.6998.39069-1.6385.91423-2.4174 1.34858-.9099.50744-2.0176.50594-2.9265-.00335l-5.2721-2.95396c-.7787-.43631-1.738-.43631-2.5167 0l-5.2783 2.95747c-.9096.50962-2.01824.51056-2.92876.00272-.80971-.45163-1.79196-.99918-2.49978-1.39276-.39262-.1686-.47434-.66914 0-.95745z" fill="#1a2e44"/><path d="m34.4879 9.63439c.7787.43631 1.2584 1.24261 1.2584 2.11521v17.2086c0 .8517-.5334 1.0106-1.1023.7132l-3.9313-2.1219v-11.5693l-11.5812 6.489c-.7787.4363-1.738.4363-2.5167 0l-11.58124-6.489v11.5679l-3.57226 2.1208c-.42574.2707-1.4613.356-1.4613-.7107v-17.2086c0-.8726.479696-1.6789 1.25839-2.11521 1.25288-.65609 2.54746 0 2.54746 0l14.06725 7.89921 14.0453-7.89921s1.2473-.75227 2.5695 0z" fill="#22d172"/><g fill="#1a2e44"><path clip-rule="evenodd" d="m85.1181 8.28369c-.945 0-1.711.76603-1.711 1.71097s.766 1.71094 1.711 1.71094c.9449 0 1.7109-.766 1.7109-1.71094s-.766-1.71097-1.7109-1.71097zm4.3733.00002c-.0932 0-.1688.07556-.1688.16877v16.79952c0 .0933.0756.1688.1688.1688h2.5983c.0932 0 .1687-.0755.1687-.1688v-16.79952c0-.09321-.0755-.16877-.1687-.16877zm5.756 0c-.0932 0-.1688.07556-.1688.16877v16.79962c0 .0932.0756.1687.1688.1687h2.5983c.0932 0 .1687-.0755.1687-.1687v-8.9632h2.6276c.093 0 .169-.0755.169-.1687v-2.4864c0-.0932-.076-.1688-.169-.1688h-2.6276v-5.01252c0-.09321-.0755-.16877-.1687-.16877zm-40.6213 4.66879c-2.8639 0-5.1855 2.3216-5.1855 5.1855v7.1142c0 .0932.0755.1687.1687.1687h2.5983c.0932 0 .1688-.0755.1688-.1687v-7.1142c0-1.2425 1.0072-2.2497 2.2497-2.2497s2.2498 1.0072 2.2498 2.2497v7.1142c0 .0932.0755.1687.1687.1687h2.5983c.0932 0 .1688-.0755.1688-.1687l.0002-7.1142c0-1.2425 1.0073-2.2497 2.2498-2.2497s2.2497 1.0072 2.2497 2.2497v7.1142c0 .0932.0756.1687.1688.1687h2.5982c.0933 0 .1688-.0755.1688-.1687v-7.1142c0-2.8639-2.3216-5.1855-5.1855-5.1855-1.4581 0-2.7759.602-3.7178 1.5705-.942-.9685-2.2597-1.5705-3.7178-1.5705zm20.3219 0c-3.4757 0-6.2933 2.8175-6.2933 6.2932v.262c0 3.4756 2.8176 6.2932 6.2933 6.2932 1.2483 0 2.3958-.4374 3.3574-1.1271v.5784c0 .0932.0756.1687.1688.1687h2.5982c.0932 0 .1688-.0755.1688-.1687v-6.0065c0-3.4757-2.8176-6.2932-6.2932-6.2932zm39.409 0c-3.475 0-6.293 2.8175-6.293 6.2932v.262c0 3.4756 2.818 6.2932 6.293 6.2932 1.225 0 2.432-.5455 3.358-1.2443v.6956c0 .0932.075.1687.169.1687h2.598c.093 0 .169-.0755.169-.1687v-6.0065c0-3.4757-2.818-6.2932-6.294-6.2932zm14.764 0c-3.475 0-6.293 2.8175-6.293 6.2932v10.9614c0 .0932.076.1688.169.1688h2.598c.093 0 .169-.0756.169-.1688v-5.3757c.971.6141 2.123.9695 3.357.9695 3.476 0 6.293-2.8176 6.293-6.2932v-.262c0-3.4757-2.817-6.2932-6.293-6.2932zm-21.949.4154c-3.088 0-5.592 2.5037-5.592 5.5921v6.2922c0 .0932.076.1687.169.1687h2.598c.093 0 .169-.0755.169-.1687v-6.2922c0-1.467 1.189-2.6563 2.656-2.6563.045 0 .088-.0178.12-.0495.031-.0316.049-.0746.049-.1193v-2.5983c0-.0932-.075-.1687-.169-.1687zm-23.3242.0971c-.0933 0-.1688.0756-.1688.1688v11.6184c0 .0932.0755.1688.1688.1688h2.5982c.0932 0 .1688-.0756.1688-.1688v-11.6184c0-.0932-.0756-.1688-.1688-.1688zm-12.2573 5.7807c0-1.8543 1.5032-3.3574 3.3575-3.3574 1.8542 0 3.3574 1.5031 3.3574 3.3574v.262c0 1.8542-1.5032 3.3574-3.3574 3.3574-1.8543 0-3.3575-1.5032-3.3575-3.3574zm39.4095 0c0-1.8543 1.503-3.3574 3.357-3.3574 1.855 0 3.358 1.5031 3.358 3.3574v.262c0 1.8542-1.503 3.3574-3.358 3.3574-1.854 0-3.357-1.5032-3.357-3.3574zm14.764 0c0-1.8543 1.503-3.3574 3.357-3.3574s3.358 1.5031 3.358 3.3574v.262c0 1.8542-1.504 3.3574-3.358 3.3574s-3.357-1.5032-3.357-3.3574z" fill-rule="evenodd"/><g opacity=".5"><path d="m52.1398 36.7839c1.1689 0 2.1558-.8815 2.1558-2.3571 0-1.4755-.9869-2.357-2.1558-2.357-.7282 0-1.2169.3162-1.4948.7952h-.0191v-2.9319h-.939v6.7071h.939v-.6516h.0191c.2779.4791.7666.7953 1.4948.7953zm-.2013-.9198c-.824 0-1.3605-.5941-1.3605-1.4373 0-.8431.5365-1.4372 1.3605-1.4372.8241 0 1.3606.5941 1.3606 1.4372 0 .8432-.5365 1.4373-1.3606 1.4373z"/><path d="m58.3885 32.2135-1.1785 2.9032-1.2168-2.9032h-1.1211l1.8588 4.0242-1.0635 2.3188h.9965l2.7594-6.343z"/><path d="m65.7988 32.0794h-.0671c-.7473 0-1.2552.4407-1.4659 1.1018h-.0192v-.9677h-.939v4.4267h.939v-1.9642c0-1.054.4886-1.4948 1.4085-1.4948h.1437z"/><path d="m68.5782 36.7839c.7282 0 1.2168-.3162 1.4947-.7953h.0192v.6516h.9389v-4.4267h-.9389v.6515h-.0192c-.2779-.479-.7665-.7952-1.4947-.7952-1.169 0-2.1559.8815-2.1559 2.357 0 1.4756.9869 2.3571 2.1559 2.3571zm.2012-.9198c-.824 0-1.3606-.5941-1.3606-1.4373 0-.8431.5366-1.4372 1.3606-1.4372s1.3606.5941 1.3606 1.4372c0 .8432-.5366 1.4373-1.3606 1.4373z"/><path d="m73.5154 30.0289h-1.1498v1.1498h1.1498zm-1.0444 6.6113h.939v-4.4267h-.939z"/><path d="m75.8297 29.9331h-.939v6.7071h.939z"/><path d="m78.6327 36.7839c1.0348 0 1.7247-.4408 1.7247-1.3414 0-.5941-.3066-.9773-.8815-1.2456l-.824-.3929c-.3833-.182-.5079-.3162-.5079-.5269 0-.2013.1342-.3354.5462-.3354.4312 0 .8432.1437 1.1785.2874l.3833-.8144c-.4695-.2108-1.0252-.3449-1.5331-.3449-.9677 0-1.5713.4407-1.5713 1.2552 0 .5078.2587.9581.9294 1.2743l.8048.3928c.3737.1821.4695.3162.4695.4983 0 .2778-.2395.412-.6899.412-.5269 0-.9964-.1821-1.4084-.4216l-.4216.8336c.5078.297 1.1689.4695 1.8013.4695z"/><path d="m86.6172 32.2135-.8911 3.1906-1.0252-3.1906h-.9103l-1.0252 3.1906-.8911-3.1906h-1.0348l1.4851 4.4267h.8624l1.0635-3.1715 1.054 3.1715h.8623l1.4852-4.4267z"/><path d="m90.3799 36.7839c.7281 0 1.2168-.3162 1.4947-.7953h.0191v.6516h.939v-4.4267h-.939v.6515h-.0191c-.2779-.479-.7666-.7952-1.4947-.7952-1.169 0-2.1559.8815-2.1559 2.357 0 1.4756.9869 2.3571 2.1559 2.3571zm.2012-.9198c-.824 0-1.3606-.5941-1.3606-1.4373 0-.8431.5366-1.4372 1.3606-1.4372s1.3605.5941 1.3605 1.4372c0 .8432-.5365 1.4373-1.3605 1.4373z"/><path d="m96.716 32.0794h-.0671c-.7473 0-1.2551.4407-1.4659 1.1018h-.0192v-.9677h-.939v4.4267h.939v-1.9642c0-1.054.4887-1.4948 1.4085-1.4948h.1437z"/><path d="m99.6008 32.0698c-1.4181 0-2.2613 1.0252-2.2613 2.3666 0 1.3989.9007 2.3475 2.3092 2.3475 1.0923 0 1.6763-.6036 2.0023-1.054l-.661-.6228c-.22.297-.632.7761-1.3605.7761-.7569 0-1.3031-.5174-1.3414-1.3031h3.4299v-.1533c0-1.4276-.766-2.357-2.1172-2.357zm-.0575.8623c.6707 0 1.1207.3545 1.1597.9678h-2.367c.115-.642.5749-.9678 1.2073-.9678z"/></g></g></svg>