<svg viewBox="0 0 164 48" fill="none" xmlns="http://www.w3.org/2000/svg"><path d="M53.148 39.724V16.552h5.031l7.382 14.698 7.283-14.698h5.032v23.172h-4.237V23.735l-6.456 12.679H63.84l-6.455-12.679v15.99h-4.237Zm33.136.397c-1.41 0-2.57-.227-3.476-.678-.906-.451-1.576-1.055-2.019-1.804a4.786 4.786 0 0 1-.662-2.483c0-1.523.596-2.76 1.788-3.708 1.191-.947 2.979-1.423 5.362-1.423h4.171v-.397c0-1.126-.318-1.954-.96-2.483-.641-.53-1.436-.795-2.383-.795-.86 0-1.61.203-2.251.613-.642.41-1.039 1.01-1.192 1.804h-4.138c.112-1.192.513-2.23 1.208-3.112.696-.881 1.594-1.56 2.698-2.036 1.105-.476 2.338-.711 3.708-.711 2.338 0 4.183.583 5.528 1.754 1.345 1.171 2.02 2.826 2.02 4.966v10.096h-3.609l-.397-2.648a6.118 6.118 0 0 1-2.036 2.185c-.873.575-1.99.86-3.36.86Zm.96-3.31c1.213 0 2.156-.397 2.83-1.192.675-.794 1.097-1.775 1.275-2.946h-3.608c-1.126 0-1.933.203-2.417.612-.484.41-.728.91-.728 1.507 0 .641.244 1.138.728 1.49.484.351 1.126.529 1.92.529Zm13.109-16.055c-.774 0-1.407-.232-1.903-.695-.497-.464-.745-1.047-.745-1.755 0-.707.248-1.287.745-1.738.496-.45 1.13-.678 1.903-.678.774 0 1.407.227 1.904.678.496.451.744 1.03.744 1.738s-.248 1.291-.744 1.755c-.497.463-1.13.695-1.904.695Zm-2.118 18.968v-16.42h4.237v16.42h-4.237Zm7.017 0V15.89h4.238v23.834h-4.238Zm13.871-4.899a8.785 8.785 0 0 1-2.218-.265l-1.225 1.225c.377.198.881.364 1.523.496.641.133 1.676.265 3.111.398 2.185.198 3.774.715 4.767 1.555.993.84 1.49 2 1.49 3.476 0 .973-.265 1.891-.794 2.764-.53.874-1.345 1.577-2.45 2.12-1.105.541-2.516.81-4.237.81-2.338 0-4.225-.434-5.661-1.308-1.436-.873-2.152-2.18-2.152-3.922 0-1.477.716-2.76 2.152-3.84a7.26 7.26 0 0 1-1.142-.63c-.319-.218-.6-.45-.844-.694v-.762l2.88-3.045c-1.279-1.126-1.92-2.57-1.92-4.337 0-1.105.269-2.106.811-3.012.542-.906 1.307-1.622 2.3-2.152.994-.53 2.198-.794 3.609-.794a8.12 8.12 0 0 1 2.582.397h6.223v2.582l-2.814.198c.443.84.663 1.767.663 2.781 0 1.105-.265 2.106-.795 3.013-.53.906-1.295 1.622-2.301 2.151-1.005.53-2.189.795-3.558.795Zm-3.973 6.918c0 .816.381 1.428 1.142 1.838.762.41 1.693.612 2.798.612 1.104 0 1.92-.215 2.582-.645.662-.43.993-1.01.993-1.738 0-.596-.215-1.093-.646-1.49-.43-.397-1.287-.641-2.565-.728a26.31 26.31 0 0 1-2.516-.298c-.641.352-1.097.74-1.374 1.158-.277.418-.414.849-.414 1.291Zm3.973-10.162c.86 0 1.572-.232 2.135-.695.563-.464.844-1.126.844-1.987 0-.86-.281-1.523-.844-1.986-.563-.463-1.275-.695-2.135-.695-.906 0-1.635.232-2.185.695-.55.463-.828 1.126-.828 1.986 0 .861.278 1.523.828 1.986.55.464 1.279.696 2.185.696Zm16.386 8.54c-2.052 0-3.637-.641-4.75-1.92-1.113-1.278-1.672-3.157-1.672-5.627v-9.27h4.204v8.872c0 1.412.286 2.496.861 3.245.575.749 1.477 1.125 2.714 1.125 1.171 0 2.135-.418 2.897-1.258.761-.84 1.142-2.007 1.142-3.509v-8.474h4.237v16.42h-3.741l-.331-2.782a5.781 5.781 0 0 1-2.201 2.318c-.96.575-2.081.86-3.36.86Zm12.314-.397v-16.42h3.741l.331 2.782a5.783 5.783 0 0 1 2.202-2.318c.96-.575 2.089-.86 3.393-.86 2.031 0 3.608.641 4.733 1.92 1.126 1.278 1.689 3.157 1.689 5.627v9.27h-4.238v-8.873c0-1.41-.285-2.495-.86-3.244-.575-.749-1.469-1.125-2.682-1.125-1.212 0-2.168.418-2.929 1.258-.762.84-1.142 2.007-1.142 3.509v8.474h-4.238ZM56.11 11.644c-.596 0-1.121-.103-1.576-.306a2.49 2.49 0 0 1-1.076-.881c-.26-.385-.397-.849-.406-1.395h1.565c.016.38.153.695.41.956.256.26.616.389 1.07.389.394 0 .709-.095.94-.286a.931.931 0 0 0 .348-.757c0-.314-.104-.592-.306-.778-.203-.186-.476-.335-.816-.45l-1.088-.373c-.625-.215-1.105-.493-1.431-.836-.327-.34-.493-.79-.493-1.357-.008-.48.108-.89.343-1.233a2.34 2.34 0 0 1 .969-.799c.41-.19.881-.286 1.415-.286s1.018.096 1.432.29c.414.195.736.464.972.811.236.348.36.762.377 1.242h-1.59a1.094 1.094 0 0 0-.33-.758c-.215-.219-.51-.33-.886-.33-.323-.009-.596.07-.815.235-.22.166-.331.406-.331.724 0 .27.087.484.256.642.17.157.402.293.696.401.293.108.629.223 1.01.348a6.9 6.9 0 0 1 1.1.488c.331.186.6.43.799.736.202.307.302.696.302 1.176 0 .426-.108.819-.323 1.183-.215.364-.538.654-.96.873-.426.22-.948.331-1.564.331h-.013Zm6.464-.14v-8.11h1.481v8.11h-1.481Zm5.375 0v-8.11h1.481l3.811 5.71v-5.71h1.482v8.11H73.24L69.431 5.8v5.703h-1.482Zm14.346.14c-.82 0-1.523-.174-2.11-.525a3.516 3.516 0 0 1-1.357-1.473c-.319-.63-.476-1.358-.476-2.185 0-.828.157-1.556.476-2.19a3.535 3.535 0 0 1 1.357-1.48c.587-.356 1.29-.534 2.11-.534.973 0 1.771.24 2.392.724.62.484 1.01 1.158 1.163 2.031h-1.635a1.758 1.758 0 0 0-.641-1.038c-.327-.253-.762-.377-1.304-.377-.749 0-1.336.257-1.762.766-.427.509-.638 1.208-.638 2.098 0 .89.211 1.585.638 2.09.426.504 1.013.757 1.762.757.542 0 .977-.12 1.304-.352a1.63 1.63 0 0 0 .641-.98h1.635c-.153.835-.542 1.485-1.163 1.956-.62.472-1.42.708-2.392.708v.004Zm7.184-.14v-8.11h1.481v3.372h3.637V3.393h1.482v8.11h-1.482V7.97H90.96v3.534h-1.481Z" fill="#000"/><path d="M21.517 24.385a2.868 2.868 0 1 0 0-5.735 2.868 2.868 0 0 0 0 5.735Z" fill="#EB5454"/><path d="M35.143 23.669a2.153 2.153 0 0 1-2.151-2.152c0-6.34-5.14-11.474-11.475-11.474s-11.474 5.139-11.474 11.474 5.139 11.475 11.474 11.475c4.378 0 8.185-2.45 10.117-6.058a6.459 6.459 0 0 0 9.965-5.42c0-11.09-8.992-20.082-20.082-20.082S1.436 10.428 1.436 21.517c0 11.09 8.992 20.082 20.081 20.082a20.01 20.01 0 0 0 14.202-5.884l-3.042-3.042a15.727 15.727 0 0 1-11.156 4.622c-8.714 0-15.778-7.063-15.778-15.778 0-8.714 7.06-15.778 15.774-15.778 8.715 0 15.778 7.064 15.778 15.778a2.153 2.153 0 0 1-2.152 2.152Zm-13.626 5.02a7.172 7.172 0 1 1 .001-14.344 7.172 7.172 0 0 1 0 14.343Z" fill="#EB5454"/></svg>