<svg id="Layer_1" data-name="Layer 1" xmlns="http://www.w3.org/2000/svg" viewBox="0 0 169.64 70"><defs><style>.cls-1{fill:#0364b8}.cls-3{fill:#28a8ea}.cls-4{fill:#0078d4;fill-rule:evenodd}.cls-10{fill-opacity:.1}</style></defs><path class="cls-1" d="M161.13 0h-43a3.52 3.52 0 00-3.51 3.51v4L138.86 15l25.78-7.5v-4a3.53 3.53 0 00-3.51-3.5z"/><path d="M168.76 38.51a28.15 28.15 0 00.88-3.51 1.67 1.67 0 00-.83-1.44L141.67 18.1a3.35 3.35 0 00-.36-.21 3.77 3.77 0 00-3.34 0 3.35 3.35 0 00-.36.21l-27.09 15.44a1.67 1.67 0 00-.83 1.44 28.15 28.15 0 00.88 3.51l28.73 21z" fill="#0a2767"/><path class="cls-3" d="M149.64 7.5h-17.5l-5 7.5 5 7.5 17.5 15h15v-15z"/><path class="cls-4" d="M114.64 7.5h17.5v15h-17.5z"/><path d="M149.64 7.5h15v15h-15z" fill="#50d9ff" fill-rule="evenodd"/><path class="cls-1" d="M149.64 37.5l-17.5-15h-17.5v15l17.5 15 27.08 4.42z"/><path class="cls-4" d="M132.14 22.5h17.5v15h-17.5z"/><path d="M114.64 37.5h17.5v15h-17.5z" fill="#064a8c" fill-rule="evenodd"/><path class="cls-4" d="M149.64 37.5h15v15h-15z"/><path d="M140.12 58l-29.49-21.5 1.24-2.17 27.27 15.57a1.28 1.28 0 001.05 0l27.33-15.6 1.24 2.17z" fill-opacity=".5" fill="#0a2767"/><path d="M168.81 36.44L141.67 51.9a3.74 3.74 0 01-3.65.23l9.44 12.65 20.63 4.49a3.75 3.75 0 001.55-3V35a1.65 1.65 0 01-.83 1.44z" fill="#1490df"/><path d="M169.64 66.25v-1.84l-25-14.23-3 1.72a3.77 3.77 0 01-3.65.23l9.44 12.65 20.63 4.49a3.74 3.74 0 001.55-3z" fill-opacity=".05"/><path class="cls-10" d="M169.51 67.21l-27.35-15.59-.49.28a3.77 3.77 0 01-3.65.23l9.44 12.65 20.63 4.49a3.76 3.76 0 001.43-2.08z"/><path class="cls-3" d="M110.51 36.48l-.08-.05a1.63 1.63 0 01-.77-1.4v31.23a3.76 3.76 0 003.72 3.74h52.51a3.58 3.58 0 00.92-.13 1.39 1.39 0 00.45-.14.34.34 0 00.15-.06 2.52 2.52 0 00.58-.32l.1-.08z"/><path class="cls-10" d="M134.64 56.67V15.84a3.37 3.37 0 00-3.33-3.34h-16.59v18.64l-4.21 2.4a1.68 1.68 0 00-.83 1.44V60h21.67a3.37 3.37 0 003.29-3.33z"/><path d="M132.14 59.17V18.33a3.37 3.37 0 00-3.33-3.33h-14.09v16.14l-4.21 2.4a1.68 1.68 0 00-.83 1.44v27.53h19.17a3.37 3.37 0 003.29-3.34zm0-5V18.33a3.37 3.37 0 00-3.33-3.33h-14.09v16.14l-4.21 2.4a1.68 1.68 0 00-.83 1.44v22.53h19.17a3.37 3.37 0 003.29-3.34zm-2.5 0V18.33a3.37 3.37 0 00-3.33-3.33h-11.59v16.14l-4.21 2.4a1.68 1.68 0 00-.83 1.44v22.53h16.67a3.37 3.37 0 003.29-3.34z" fill-opacity=".2"/><path d="M93 15h33.3a3.35 3.35 0 013.34 3.33v33.34A3.36 3.36 0 01126.3 55H93a3.35 3.35 0 01-3.33-3.33V18.33A3.34 3.34 0 0193 15z" fill="#0078d4"/><path d="M99.31 28.67a10.41 10.41 0 014.1-4.54 12.42 12.42 0 016.53-1.63 11.5 11.5 0 016 1.55 10.44 10.44 0 014 4.33 14.07 14.07 0 011.4 6.37 14.78 14.78 0 01-1.45 6.67 10.55 10.55 0 01-4.11 4.49 12 12 0 01-6.26 1.59 11.8 11.8 0 01-6.17-1.57 10.53 10.53 0 01-4-4.34 13.7 13.7 0 01-1.41-6.3 15.15 15.15 0 011.39-6.62zm4.37 10.64a6.74 6.74 0 002.31 3 6 6 0 003.61 1.09 6.1 6.1 0 006.09-4.12 11.36 11.36 0 00.72-4.16 12.54 12.54 0 00-.67-4.21 6.68 6.68 0 00-2.17-3.11 6 6 0 00-3.82-1.18 6.25 6.25 0 00-3.69 1.1 6.92 6.92 0 00-2.36 3 12 12 0 000 8.59z" fill="#fff"/><path d="M0 0h33.26v33.26H0z" fill="#f25022"/><path d="M36.74 0H70v33.26H36.74z" fill="#7fba00"/><path d="M0 36.74h33.26V70H0z" fill="#00a4ef"/><path d="M36.74 36.74H70V70H36.74z" fill="#ffb900"/></svg>