<svg xmlns="http://www.w3.org/2000/svg" width="152" height="80"><path d="M77.5 0C118.64 0 152 17.9 152 40s-33.35 40-74.5 40S0 62.1 0 40 36.35 0 77.5 0z" fill-rule="evenodd" fill="#777bb3"/><path d="M32.33 21.35h15.95q7.03.06 10.18 4.05t2.08 10.88a20.86 20.86 0 0 1-1.84 6.19 18.39 18.39 0 0 1-3.8 5.47 13.3 13.3 0 0 1-6.38 3.92 29.34 29.34 0 0 1-7.02.84h-7.14L32.09 64h-8.27l8.51-42.64m6.97 6.78-3.58 17.84a4.38 4.38 0 0 0 .72.06h.83a31.32 31.32 0 0 0 9.52-1.14q3.81-1.24 5.12-8.68 1.07-6.24-2.14-7.2a26.73 26.73 0 0 0-7.92-.89q-.71.06-1.37.06h-1.24l.05-.06M69.97 9.99h8.21l-2.32 11.36h7.38q6.07.12 9.05 2.5 3.03 2.38 1.78 9.04L90.1 52.7h-8.34l3.81-18.91q.6-2.98-.36-4.23t-4.1-1.25l-6.6-.06L69.6 52.7h-8.2L69.97 10m32.93 11.35h15.95q7.02.06 10.18 4.05t2.08 10.88a20.86 20.86 0 0 1-1.84 6.19 18.39 18.39 0 0 1-3.81 5.47 13.3 13.3 0 0 1-6.37 3.92 29.34 29.34 0 0 1-7.02.84h-7.15L102.66 64h-8.28l8.52-42.65m6.96 6.78-3.57 17.85a4.38 4.38 0 0 0 .72.05h.83a31.32 31.32 0 0 0 9.52-1.13q3.81-1.25 5.12-8.68 1.07-6.24-2.14-7.2a26.72 26.72 0 0 0-7.92-.9q-.71.07-1.37.07h-1.25l.06-.06" fill="#fff" fill-rule="evenodd"/></svg>