<svg xmlns="http://www.w3.org/2000/svg" viewBox="0 0 713 103"><path d="M150.3 32.9c-7.2 0-11.9 2.4-11.9 6.6s4.9 6.1 12.1 6.9c10.3.9 23.7 2.6 23.7 16.6 0 9.9-9.4 17-23.8 17-9.1 0-17.8-2-25.5-9.9l6.1-7.9c5.1 5.1 12 8 19.2 7.9 6.2 0 12.3-1.9 12.3-6.9s-4.8-6.7-13-7.4c-10.4-.9-22.8-4-22.8-15.9s12.8-16.4 23.2-16.4c7.8-.2 15.3 2.3 21.5 7.1l-6.1 7.1c-4.2-3.3-9.5-5-15-4.8zm62.5 36.6c5.9 0 12.7-2 16.2-5.8l7.6 7.1a33.7 33.7 0 01-24 9.2c-18.3 0-30.1-11-30.1-28.2 0-16.4 12.2-28.2 29.9-28.2 16.4 0 27.7 9.3 27.7 27.8l-.2 4.8h-45.2c.9 8.3 7.8 13.3 18.1 13.3zm-.4-36c-8.5 0-15.8 4.5-17.6 13.2h33.9c-.8-8.6-6.6-13.2-16.3-13.2zm81.7 15c0-9.3-5.4-14.6-15.1-14.6a15.7 15.7 0 00-15.7 16.4v28.5h-11.7v-54h10.7l.7 7.5a24.1 24.1 0 0118.8-8.8c13.5 0 24 8.1 24 24.9v30.3H294l.1-30.2zM377 78.7h-11l-.7-8.5A22.4 22.4 0 01346 80c-16.2 0-28.5-10.4-28.5-28.2 0-18.3 12.1-28.2 28.3-28.2 6.8 0 16 3.2 19.6 9.6V2.5h11.7l-.1 76.2zm-47.9-27a17 17 0 0017.6 17.8c9.6 0 17.5-7.9 17.5-17.7s-7.8-17.7-17.5-17.7c-9.9 0-17.6 6.7-17.6 17.6zM398.7 1c1.9-.2 3.7.5 5.1 1.8S406 6 406 7.9a7.2 7.2 0 01-14.4 0c0-1.9.7-3.8 2.1-5.1s3.2-1.9 5-1.8zm5.8 77.7h-11.7V24.8h11.7v53.9zm58.2-30.2c0-9.3-5.4-14.6-15.1-14.6a15.7 15.7 0 00-15.7 16.4v28.5h-11.7v-54h10.6l.7 7.5a24.2 24.2 0 0118.8-8.8c13.5 0 24 8.1 24 24.9v30.3h-11.7l.1-30.2zm38.4-14.9c3.6-6.4 12.8-10.1 19.6-10.1 16.1 0 28.3 9.9 28.3 28.2 0 17.9-13.1 28.2-28.4 28.2a23 23 0 01-19.5-9.8l-.7 8.5h-11V2.5h11.7v31.1zm.7 18.1c-.1 4.8 1.8 9.4 5.2 12.8a17 17 0 0012.7 5c10.2 0 17.6-6.9 17.6-17.8S529.8 34 519.7 34a17.5 17.5 0 00-17.9 17.7zm71.7 27h-11.7V2.5h11.7v76.2zm27.1-24.6c0 9.2 5.3 15.5 15.2 15.5 4.2 0 8.3-1.7 11.2-4.7 2.9-3.1 4.5-7.2 4.3-11.5V24.8H643v53.9h-10.5l-.7-7.4c-4.8 5.8-11.9 9-19.2 8.7-13.7 0-23.5-9.5-23.5-25.7V24.8h11.7l-.2 29.3zm85.1 15.4c5.9 0 12.7-2 16.2-5.8l7.6 7.1a33.7 33.7 0 01-24 9.2c-18.3 0-30.1-11-30.1-28.2 0-16.4 12.2-28.2 29.9-28.2 16.4 0 27.7 9.3 27.7 27.8l-.2 4.8h-45.3c1 8.3 7.9 13.3 18.2 13.3zm-.4-36c-8.5 0-15.9 4.5-17.6 13.2h33.8c-.7-8.6-6.6-13.2-16.2-13.2z" fill="#091e3f"/><path d="M90.8 26.3c-3.6-6.4-9.6-11-16.7-12.9-1.5-.4-3-.6-4.5-.8a27.1 27.1 0 00-44.7.1 27.4 27.4 0 00-22.4 39A27.9 27.9 0 003.6 77a27.1 27.1 0 0021.3 13.7 27 27 0 0044.8-.1 27.5 27.5 0 0022.3-39 27.9 27.9 0 00-1.2-25.3zm-6.8 4c2.2 3.8 3 8.1 2.3 12.4a27.5 27.5 0 00-37.4 0A19 19 0 0184 30.3zM47.2 9.9c4.2 0 8.3 1.5 11.5 4.2a27.2 27.2 0 00-18.1 31.7 18.7 18.7 0 016.6-35.9zM10.6 30.8c2.1-3.6 5.5-6.4 9.5-8a27.2 27.2 0 0018.7 31.6 19 19 0 01-21.3 1.7 18.3 18.3 0 01-7-25.3h.1zM10.5 73c-2.2-3.8-3-8.1-2.3-12.4a28 28 0 0037.4 0A19 19 0 0110.5 73zm36.9 20.4c-4.2 0-8.3-1.5-11.5-4.2a27.3 27.3 0 0018.2-31.6c8.2 3.3 13 11.9 11.4 20.6a18.8 18.8 0 01-18.1 15.2zm34.7-20.8a19 19 0 01-9.2 8 27 27 0 00-18.1-31.7 18 18 0 0120.7-1.6 18.6 18.6 0 016.6 25.3z" fill="#0092ff"/></svg>