<svg xmlns="http://www.w3.org/2000/svg" viewBox="0 0 403.52 76.84"><g data-name="Layer 2"><g data-name="Layer 1"><path d="M0 0h105.69v76.64a16.45 16.45 0 01-1.87.2H1.49c-.5 0-1-.07-1.49-.11zm102.57 73.68V4.57l-96 69a11.22 11.22 0 001.25.22h35.2a5.15 5.15 0 002.67-1c4.22-2.94 8.37-6 12.55-9l18.5-13.24L78.52 53 49.81 73.68zM3.19 4.5v67.8l47.39-34.09zM7.5 3.22a6 6 0 00.71.78Q30.1 19.59 52 35.17c1.39 1 2.2.44 3.23-.31L96.8 4.6c.48-.35.89-.77 1.59-1.38zm198.33 22.6v49.81h-15V1.82c.83-.05 1.7-.14 2.57-.14 4.66 0 9.32.09 14-.05a3.6 3.6 0 013.94 2.42c5.66 12.09 11.46 24.12 17.24 36.17.38.78.81 1.53 1.45 2.74.7-1.32 1.18-2.16 1.6-3 5.87-12 11.76-24 17.55-36a3.32 3.32 0 013.55-2.27c5.55.13 11.11.05 16.82.05v74h-15V26.11l-.66-.22c-.4.71-.84 1.4-1.22 2.13-5.43 10.29-10.89 20.56-16.24 30.89a3.14 3.14 0 01-3.44 2c-2.64-.17-5.84.75-7.81-.43s-2.71-4.35-3.94-6.68q-6.87-13-13.7-26.07c-.37-.71-.8-1.39-1.2-2.09zM361.6 75.7h-15.27V1.92a6.68 6.68 0 011.24-.23c10.73.08 21.47.05 32.19.33a28 28 0 018.24 1.7c10.57 3.63 16.21 12.49 15.43 23.84-.69 10.1-7.94 18.11-18.73 20.38a55.82 55.82 0 01-9.4 1c-4.48.17-9 0-13.72 0zm.06-38.19h13.52a22.85 22.85 0 004.2-.44c5.13-1 8.41-5 8.82-10.55.43-5.82-2.39-11-7.36-12.4-6.3-1.83-12.78-.58-19.18-.85zM175.1 5.57c-1.28 4.34-2.5 8.43-3.78 12.76-1.7-.78-3.23-1.5-4.78-2.19a37.39 37.39 0 00-19.67-3.25c-5.5.6-8.76 4-8.57 8.78a7.46 7.46 0 004.56 6.62c3.95 1.87 8.15 3.22 12.19 4.9 5 2.06 10.18 3.73 14.72 6.49 7.78 4.74 10.75 13.14 8.51 21.69a17.84 17.84 0 01-8.47 10.86 30.75 30.75 0 01-13.91 4.34c-11.79.89-23.22-.65-34-5.74-.3-.14-.57-.32-1-.59 1-4.21 2-8.43 3.06-12.94a42.71 42.71 0 0018.7 6.76 77.58 77.58 0 0012.66.24c3.62-.22 6.87-1.67 8-5.61s-.36-7.63-4.31-9.91c-3-1.76-6.48-2.87-9.76-4.23-5.27-2.19-10.74-4-15.78-6.62s-8.92-6.92-10-12.86c-1.5-7.95 1.27-14.28 7.84-18.94a30.51 30.51 0 0116-5.33 59.25 59.25 0 0127.79 4.77zm125.25 7.69h-21.48c0-3.62-.07-7 .09-10.47 0-.4 1.28-1 2-1.06 3.9-.11 7.82-.05 11.73-.05h44.48v11.51h-21.5v62.42h-15.32z"/><path d="M7.5 3.22h90.89c-.7.61-1.11 1-1.59 1.38L55.19 34.86c-1 .75-1.84 1.31-3.23.31Q30.13 19.54 8.21 4a6 6 0 01-.71-.78z" fill="#21b193"/><path d="M361.66 37.51V13.25c6.4.27 12.88-1 19.18.85 5 1.44 7.79 6.58 7.36 12.4-.41 5.54-3.69 9.51-8.82 10.55a22.85 22.85 0 01-4.2.44c-4.47.05-8.93.02-13.52.02z" fill="#fff"/></g></g></svg>