<svg xmlns="http://www.w3.org/2000/svg" viewBox="0 0 403.5 76.8"><g data-name="Layer 2"><g data-name="Layer 1"><path d="M0 0h105.7v76.6a16.4 16.4 0 01-1.9.2H0zm102.6 73.7V4.6l-96 69a11.2 11.2 0 001.2.2H43a5.2 5.2 0 002.7-1l12.5-9 18.5-13.3 1.8 2.5-28.7 20.7zM3.2 4.5v67.8l47.4-34zm4.3-1.3a6 6 0 00.7.8L52 35.2c1.4 1 2.2.4 3.2-.3L96.8 4.6c.5-.3.9-.8 1.6-1.4zm198.3 22.6v49.8h-15V1.8l2.6-.1h14a3.6 3.6 0 014 2.3c5.6 12.1 11.4 24.2 17.2 36.2L230 43l1.6-3 17.6-36a3.3 3.3 0 013.5-2.3h16.9v74h-15V26.1l-.7-.2-1.2 2.1c-5.5 10.3-11 20.6-16.3 31a3.1 3.1 0 01-3.4 2c-2.6-.3-5.8.7-7.8-.5s-2.7-4.4-4-6.7l-13.7-26c-.3-.8-.8-1.5-1.2-2.2zm155.8 49.9h-15.3V1.9a6.7 6.7 0 011.3-.2c10.7 0 21.4 0 32.2.3a28 28 0 018.2 1.7 22.2 22.2 0 0115.4 23.9c-.7 10-8 18-18.7 20.3a55.8 55.8 0 01-9.4 1c-4.5.2-9 0-13.7 0zm0-38.2h13.6a22.9 22.9 0 004.2-.4c5.1-1 8.4-5 8.8-10.6.4-5.8-2.4-11-7.4-12.4-6.3-1.8-12.7-.6-19.1-.8zm-186.5-32l-3.8 12.8-4.8-2.2A37.4 37.4 0 00147 13c-5.5.6-8.8 4-8.6 8.8a7.5 7.5 0 004.6 6.6c4 1.9 8.1 3.2 12.2 4.9 5 2 10.1 3.7 14.7 6.5a18.9 18.9 0 018.5 21.7 17.8 17.8 0 01-8.5 10.8 30.8 30.8 0 01-13.9 4.4c-11.8.9-23.2-.7-34-5.8l-1-.6 3-12.9a42.7 42.7 0 0018.8 6.8 77.6 77.6 0 0012.6.2c3.6-.2 6.9-1.7 8-5.6s-.3-7.6-4.3-10c-3-1.7-6.5-2.8-9.8-4.1-5.2-2.2-10.7-4-15.7-6.7s-9-6.9-10-12.8c-1.5-8 1.2-14.3 7.8-19a30.5 30.5 0 0116-5.3 59.3 59.3 0 0127.8 4.8zm125.3 7.8h-21.5V2.8c0-.4 1.3-1 2-1 4-.2 7.9-.1 11.8-.1h44.5v11.5h-21.5v62.4h-15.3z"/><path d="M7.5 3.2h90.9l-1.6 1.4-41.6 30.3c-1 .7-1.9 1.3-3.2.3L8.2 4a6 6 0 01-.7-.8z" fill="#21b193"/><path d="M361.7 37.5V13.2c6.4.3 12.8-1 19.1.9 5 1.4 7.8 6.6 7.4 12.4-.4 5.5-3.7 9.5-8.8 10.6a22.9 22.9 0 01-4.2.4h-13.5z" fill="#fff"/></g></g></svg>