<svg xmlns="http://www.w3.org/2000/svg" width="181" height="60"><defs><style>.cls-1{fill:#ccc;fill-rule:evenodd}</style></defs><path id="Rounded_Rectangle_1" data-name="Rounded Rectangle 1" class="cls-1" d="M47.12 46.08h34.3a4.28 4.28 0 110 8.56h-34.3a4.28 4.28 0 110-8.56z"/><path id="Rounded_Rectangle_1-2" data-name="Rounded Rectangle 1" class="cls-1" d="M25.7 26.78h55.7a4.28 4.28 0 014.3 4.28v.02a4.28 4.28 0 01-4.3 4.28H25.7a4.28 4.28 0 01-4.28-4.28v-.02a4.28 4.28 0 014.29-4.28z"/><path id="Rounded_Rectangle_1-3" data-name="Rounded Rectangle 1" class="cls-1" d="M4.28 6.42h77.13a4.28 4.28 0 014.28 4.28v.02A4.28 4.28 0 0181.41 15H4.28A4.28 4.28 0 010 10.72v-.02a4.28 4.28 0 014.28-4.28z"/><path id="_" data-name="" d="M178.88 57.78a6.91 6.91 0 01-5.19 2.2h-68.95a6.9 6.9 0 01-5.19-2.2 7.32 7.32 0 01-2.11-5.26v-44a7.33 7.33 0 012.11-5.27 6.91 6.91 0 015.19-2.2h68.95a6.92 6.92 0 015.19 2.2 7.34 7.34 0 012.11 5.27v44a7.33 7.33 0 01-2.11 5.26zm-8.84-49.45L139.31 33 108.58 8.33q-2.7-2.3-4.8-.39a2.67 2.67 0 00-.77 2.2 3.33 3.33 0 00.96 1.82l19.98 18.37-19.21 19.9a1.74 1.74 0 00-.2 2.48 1.4 1.4 0 001.26.58 2.53 2.53 0 001.44-.39l21.5-18.17 10.57 9.37 10.37-9.38L171.2 52.9a2.54 2.54 0 001.44.38 1.96 1.96 0 001.44-.57q.96-1.15-.38-2.49l-19.21-19.9 19.97-18.36a4.02 4.02 0 001.06-1.82 2.27 2.27 0 00-.87-2.2q-1.92-1.9-4.6.39z" fill="#819eaf" fill-rule="evenodd"/></svg>