<svg viewBox="0 0 32 16" xmlns="http://www.w3.org/2000/svg" xml:space="preserve" style="fill-rule:evenodd;clip-rule:evenodd;stroke-linejoin:round;stroke-miterlimit:2"><path d="M18.19 14.262a.59.59 0 0 1-.503-.894c.038-.063 3.788-6.316 1.853-9.433-.404-.651-.858-.993-1.348-1.018-.951-.042-1.992 1.022-2.312 1.438a.592.592 0 0 1-.464.226.592.592 0 0 1-.47-.945c.063-.08 1.536-1.981 3.305-1.896.898.045 1.669.574 2.289 1.573 1.45 2.334.429 5.813-.579 8.159 1.049-.727 2.344-1.442 3.58-1.635a.59.59 0 0 1 .182 1.165c-2.306.358-5.093 3.065-5.12 3.092a.59.59 0 0 1-.413.168Z" style="fill:#7cb1f4;fill-rule:nonzero"/><path d="M3.68 9.303c0 .315-.082.594-.248.841a1.59 1.59 0 0 1-.715.572 2.724 2.724 0 0 1-1.096.204c-.35 0-.639-.024-.88-.068A3.075 3.075 0 0 1 0 10.604V9.382c.271.135.552.236.842.314.289.079.56.113.805.113.21 0 .365-.035.463-.105a.324.324 0 0 0 .148-.27.295.295 0 0 0-.06-.182.677.677 0 0 0-.19-.158 8.22 8.22 0 0 0-.699-.326C.966 8.617.71 8.471.535 8.33a1.31 1.31 0 0 1-.381-.486 1.56 1.56 0 0 1-.124-.65c0-.471.176-.832.528-1.094.353-.261.837-.392 1.452-.392.544 0 1.099.121 1.664.364l-.435 1.059c-.491-.217-.915-.326-1.272-.326-.185 0-.319.031-.403.094a.281.281 0 0 0-.126.235c0 .099.053.189.16.267.107.079.396.223.868.431.453.197.767.408.943.634.177.225.265.51.265.853l.006-.016Zm2.954 1.541L5.56 7.188h-.033l.076 1.451v2.205H4.345V5.768h1.891l1.096 3.604h.028l1.077-3.604h1.894v5.076H9.023V8.619l.006-.386.048-1.038h-.032l-1.06 3.649H6.634Zm6.85 0h-1.419V6.889h-1.283V5.768h3.982v1.121h-1.279l-.001 3.955Zm5.697-3.465c0 .567-.174 1.005-.519 1.314-.346.309-.842.463-1.476.463h-.399v1.684h-1.419V5.764h1.818c.663 0 1.161.141 1.495.421.333.28.5.678.5 1.195v-.001Zm-2.401.66h.266c.213 0 .383-.058.505-.174a.632.632 0 0 0 .189-.479c0-.343-.197-.514-.589-.514h-.371v1.167Zm7.259-.167h2.268v2.736a6.456 6.456 0 0 1-2.03.305c-.81 0-1.436-.227-1.878-.68-.441-.453-.663-1.1-.663-1.941 0-.819.243-1.457.726-1.913.483-.456 1.162-.684 2.034-.684a4.9 4.9 0 0 1 .936.091 3.8 3.8 0 0 1 .767.229l-.449 1.076a2.865 2.865 0 0 0-1.247-.271c-.414 0-.735.131-.961.391-.226.26-.339.633-.339 1.116 0 .471.102.836.307 1.085.205.249.5.373.885.373.211 0 .405-.019.582-.059v-.795h-.938V7.872ZM32 8.299c0 .855-.216 1.504-.65 1.948-.434.445-1.069.667-1.905.667-.825 0-1.456-.223-1.896-.673-.44-.45-.66-1.098-.66-1.952 0-.841.219-1.49.657-1.935.437-.445 1.073-.669 1.906-.669.836 0 1.47.222 1.901.664.431.441.644 1.097.644 1.95H32Zm-3.615 0c0 .982.353 1.473 1.06 1.473.359 0 .626-.119.8-.358.173-.238.26-.61.26-1.11 0-.507-.088-.882-.264-1.124-.175-.242-.439-.37-.789-.37-.712 0-1.067.495-1.067 1.486v.003Z" style="fill:#222a35;fill-rule:nonzero"/></svg>