<?xml version="1.0" encoding="UTF-8" standalone="no"?><!DOCTYPE svg PUBLIC "-//W3C//DTD SVG 1.1//EN" "http://www.w3.org/Graphics/SVG/1.1/DTD/svg11.dtd"><svg width="100%" height="100%" viewBox="0 0 32 16" version="1.1" xmlns="http://www.w3.org/2000/svg" xmlns:xlink="http://www.w3.org/1999/xlink" xml:space="preserve" xmlns:serif="http://www.serif.com/" style="fill-rule:evenodd;clip-rule:evenodd;stroke-linejoin:round;stroke-miterlimit:2;"><g><g><path d="M18.19,14.262c-0.129,0.001 -0.258,-0.042 -0.366,-0.127c-0.231,-0.184 -0.291,-0.515 -0.137,-0.767c0.038,-0.063 3.788,-6.316 1.853,-9.433c-0.404,-0.651 -0.858,-0.993 -1.348,-1.018c-0.951,-0.042 -1.992,1.022 -2.312,1.438c-0.112,0.142 -0.283,0.226 -0.464,0.226c-0.323,-0 -0.589,-0.266 -0.589,-0.59c0,-0.128 0.042,-0.252 0.119,-0.355c0.063,-0.08 1.536,-1.981 3.305,-1.896c0.898,0.045 1.669,0.574 2.289,1.573c1.45,2.334 0.429,5.813 -0.579,8.159c1.049,-0.727 2.344,-1.442 3.58,-1.635c0.326,-0.048 0.623,0.171 0.674,0.492c0.004,0.03 0.007,0.06 0.007,0.091c-0,0.289 -0.213,0.537 -0.499,0.582c-2.306,0.358 -5.093,3.065 -5.12,3.092c-0.11,0.108 -0.259,0.168 -0.413,0.168l0,0Z" style="fill:#7cb1f4;fill-rule:nonzero;"/><path d="M3.68,9.303c0,0.315 -0.082,0.594 -0.248,0.841c-0.165,0.247 -0.404,0.438 -0.715,0.572c-0.311,0.135 -0.673,0.204 -1.096,0.204c-0.35,-0 -0.639,-0.024 -0.88,-0.068c-0.241,-0.043 -0.485,-0.13 -0.741,-0.248l0,-1.222c0.271,0.135 0.552,0.236 0.842,0.314c0.289,0.079 0.56,0.113 0.805,0.113c0.21,0 0.365,-0.035 0.463,-0.105c0.098,-0.071 0.148,-0.162 0.148,-0.27c0.001,-0.065 -0.02,-0.129 -0.06,-0.182c-0.039,-0.052 -0.103,-0.105 -0.19,-0.158c-0.087,-0.053 -0.32,-0.161 -0.699,-0.326c-0.343,-0.151 -0.599,-0.297 -0.774,-0.438c-0.175,-0.141 -0.298,-0.303 -0.381,-0.486c-0.083,-0.183 -0.124,-0.399 -0.124,-0.65c-0,-0.471 0.176,-0.832 0.528,-1.094c0.353,-0.261 0.837,-0.392 1.452,-0.392c0.544,-0 1.099,0.121 1.664,0.364l-0.435,1.059c-0.491,-0.217 -0.915,-0.326 -1.272,-0.326c-0.185,-0 -0.319,0.031 -0.403,0.094c-0.084,0.062 -0.126,0.14 -0.126,0.235c0,0.099 0.053,0.189 0.16,0.267c0.107,0.079 0.396,0.223 0.868,0.431c0.453,0.197 0.767,0.408 0.943,0.634c0.177,0.225 0.265,0.51 0.265,0.853l0.006,-0.016Zm2.954,1.541l-1.074,-3.656l-0.033,-0l0.076,1.451l0,2.205l-1.258,0l0,-5.076l1.891,0l1.096,3.604l0.028,0l1.077,-3.604l1.894,0l0,5.076l-1.308,0l0,-2.225l0.006,-0.386l0.048,-1.038l-0.032,0l-1.06,3.649l-1.351,0Zm6.85,0l-1.419,0l-0,-3.955l-1.283,0l-0,-1.121l3.982,-0l-0,1.121l-1.279,0l-0.001,3.955Zm5.697,-3.465c0,0.567 -0.174,1.005 -0.519,1.314c-0.346,0.309 -0.842,0.463 -1.476,0.463l-0.399,0l0,1.684l-1.419,0l-0,-5.076l1.818,0c0.663,0 1.161,0.141 1.495,0.421c0.333,0.28 0.5,0.678 0.5,1.195l0,-0.001Zm-2.401,0.66l0.266,-0c0.213,-0 0.383,-0.058 0.505,-0.174c0.122,-0.116 0.189,-0.275 0.189,-0.479c-0,-0.343 -0.197,-0.514 -0.589,-0.514l-0.371,-0l0,1.167Zm7.259,-0.167l2.268,-0l-0,2.736c-0.616,0.203 -1.293,0.305 -2.03,0.305c-0.81,0 -1.436,-0.227 -1.878,-0.68c-0.441,-0.453 -0.663,-1.1 -0.663,-1.941c0,-0.819 0.243,-1.457 0.726,-1.913c0.483,-0.456 1.162,-0.684 2.034,-0.684c0.314,0 0.628,0.031 0.936,0.091c0.296,0.057 0.55,0.137 0.767,0.229l-0.449,1.076c-0.378,-0.18 -0.794,-0.271 -1.247,-0.271c-0.414,0 -0.735,0.131 -0.961,0.391c-0.226,0.26 -0.339,0.633 -0.339,1.116c-0,0.471 0.102,0.836 0.307,1.085c0.205,0.249 0.5,0.373 0.885,0.373c0.211,0 0.405,-0.019 0.582,-0.059l0,-0.795l-0.938,0l0,-1.059Zm7.961,0.427c-0,0.855 -0.216,1.504 -0.65,1.948c-0.434,0.445 -1.069,0.667 -1.905,0.667c-0.825,-0 -1.456,-0.223 -1.896,-0.673c-0.44,-0.45 -0.66,-1.098 -0.66,-1.952c0,-0.841 0.219,-1.49 0.657,-1.935c0.437,-0.445 1.073,-0.669 1.906,-0.669c0.836,0 1.47,0.222 1.901,0.664c0.431,0.441 0.644,1.097 0.644,1.95l0.003,0Zm-3.615,0c-0,0.982 0.353,1.473 1.06,1.473c0.359,-0 0.626,-0.119 0.8,-0.358c0.173,-0.238 0.26,-0.61 0.26,-1.11c-0,-0.507 -0.088,-0.882 -0.264,-1.124c-0.175,-0.242 -0.439,-0.37 -0.789,-0.37c-0.712,-0 -1.067,0.495 -1.067,1.486l-0,0.003Z" style="fill:#222a35;fill-rule:nonzero;"/></g></g></svg>