<svg data-name="2-Color Gray Orange" xmlns="http://www.w3.org/2000/svg" viewBox="0 0 500 194.18"><path d="M1.9 115.58l7.79-9.33c5.4 4.45 11 7.28 17.9 7.28 5.39 0 8.65-2.14 8.65-5.65v-.17c0-3.34-2.06-5.06-12.08-7.62C12.09 97 4.3 93.66 4.3 81.76v-.17c0-10.88 8.73-18.07 21-18.07a34.74 34.74 0 0122.26 7.62l-6.85 9.94c-5.31-3.69-10.54-5.91-15.59-5.91s-7.7 2.31-7.7 5.22v.17c0 3.94 2.57 5.23 12.93 7.88 12.16 3.17 19 7.54 19 18v.17c0 11.91-9.08 18.58-22 18.58a38.06 38.06 0 01-25.45-9.61zm55.53-51.2h24.49c14.3 0 22.94 8.48 22.94 20.72v.17c0 13.87-10.79 21.07-24.23 21.07h-10v18h-13.2zm23.63 30.23c6.59 0 10.45-3.94 10.45-9.08v-.17c0-5.91-4.11-9.08-10.71-9.08H70.62v18.33zM123.53 64h12.16l25.69 60.37h-13.79l-5.48-13.45h-25.34l-5.48 13.45H97.84zm13.87 35.23l-8-19.44-8 19.44zm30.22-34.85H195c7.62 0 13.53 2.14 17.47 6.08 3.33 3.34 5.13 8.05 5.13 13.7v.17c0 9.68-5.22 15.76-12.84 18.58l14.64 21.41H204l-12.85-19.18H180.8v19.18h-13.18zm26.54 29.11c6.42 0 10.11-3.42 10.11-8.48v-.17c0-5.65-3.94-8.56-10.37-8.56h-13.1v17.21zm93.57-29.11h21.75c13.19 0 22.27 6.76 22.27 18.32v.17c0 12.59-10.88 19.1-23.38 19.1h-16.19v22.35h-4.45zm20.9 33.48c11.13 0 18.66-5.82 18.66-14.73V83c0-9.51-7.36-14.47-18.15-14.47h-17v29.33zm94.43 17.72l2.91-3.34c6.6 6.08 12.68 8.91 21.5 8.91 9 0 15.16-5.05 15.16-11.9v-.17c0-6.34-3.35-10-17-12.76-14.39-2.91-20.21-7.79-20.21-16.87v-.17c0-8.91 8.13-15.76 19.27-15.76 8.73 0 14.47 2.4 20.55 7.28l-2.83 3.51a25.75 25.75 0 00-17.9-6.76c-8.81 0-14.64 5-14.64 11.3V79c0 6.34 3.26 10.19 17.47 13.1 13.88 2.83 19.7 7.79 19.7 16.53v.17c0 9.68-8.31 16.35-19.87 16.35-9.55.02-16.91-3.15-24.11-9.57zm69.7-47.09h-20.9v-4.11h46.24v4.11h-20.89v55.83h-4.45zM239.82 89.6l20.75-25.22h16.1l-24.35 28.47 26.1 31.47h-17l-21.6-26.76v26.76h-13.18V64.38h13.18z" fill="#55555a"/><path d="M389.37 50.72c-6.68 5-8 13.92-8.17 19.93-10.55-12.2 19.55-48.11-14.65-70.3 21.17 27.4-30.13 54.33-30.13 94.69 0 15.83 9.89 29.77 31.6 34.61 21.3-4.54 31.81-18.78 31.81-34.6 0-23.59-14.68-31.49-10.46-44.33zm-21.3 66a21 21 0 1121-21 21 21 0 01-21 21z" fill="#fa6423"/></svg>