<svg xmlns="http://www.w3.org/2000/svg" viewBox="0 0 562.3 193.9"><path fill="#dc7e28" d="M562.3 41.4v133.4l-18.1 18.1V62.3z"/><linearGradient id="a" gradientUnits="userSpaceOnUse" x1="421" y1="59.1" x2="542" y2="192.3"><stop offset="0" stop-color="#f8c51b"/><stop offset="1" stop-color="#e78f24"/></linearGradient><path fill="url(#a)" d="M422.3 62.3h122v130.6h-122z"/><path fill="#fdd600" d="M441.4 41.5l-19.1 20.8h121.9l18.1-20.9z"/><path fill="#90c7ea" d="M290.3 47.2l120-16.7-10.1 28.8-118.3 16.1z"/><linearGradient id="b" gradientUnits="userSpaceOnUse" x1="286.2" y1="75.3" x2="410.9" y2="175.5"><stop offset="0" stop-color="#1f8aca"/><stop offset="1" stop-color="#01659e"/></linearGradient><path fill="url(#b)" d="M400.2 59.3l16.7 117-118.3 16.6-16.7-117.5z"/><path fill="#0b98d5" d="M400.2 59.3l16.7 117 9-25.3-15.5-119.8-.1-.7"/><linearGradient id="c" gradientUnits="userSpaceOnUse" x1="218.1" y1="80.8" x2="218.1" y2="190.1"><stop offset="0" stop-color="#269f49"/><stop offset="1" stop-color="#008a54"/></linearGradient><path fill="url(#c)" d="M189 37.2l106.2 48-47.9 108.7L141.1 146z"/><path fill="#95cea0" d="M178 0l11 37.2 106.2 48-8.9-35.6z"/><path fill="#69bf6d" d="M178 0l-42.8 101.4 5.9 44.6L189 37.2z"/><linearGradient id="d" gradientUnits="userSpaceOnUse" x1="59.5" y1="70.1" x2="78.3" y2="183.6"><stop offset="0" stop-color="#d81f32"/><stop offset="1" stop-color="#bb2637"/></linearGradient><path fill="url(#d)" d="M118.7 59.1l17.5 115.2-117.3 18.4L0 77.3z"/><path fill="#761216" d="M126.7 17.2l17.4 116.2-7.9 40.9-17.5-115.2z"/><path d="M525.6 109.3a48.6 48.6 0 00-25.9-26.7 48.6 48.6 0 00-36.6 0A44.4 44.4 0 00447.9 93a46.4 46.4 0 00-10.6 16.2 53.6 53.6 0 00-3.5 19.8c0 7.1 1.2 13.7 3.6 19.8a48.7 48.7 0 0025.6 26.7 48.4 48.4 0 0062.7-26.7 53.6 53.6 0 00-.1-39.5zm-25.1 43a24 24 0 01-19.1 8.5c-8.2 0-14.5-2.8-19.2-8.4a35.2 35.2 0 01-7.1-23.3c0-10.1 2.4-18 7-23.6 4.7-5.7 11-8.5 19.2-8.5 8.1 0 14.4 2.8 19.1 8.5a36 36 0 017 23.6c.2 9.9-2.2 17.6-6.9 23.2zM78.6 125.9zm27.5 30a9 9 0 00-3.7-2.5c-1.6-.5-3.4-.8-5.7-.8-2.1 0-4.5.2-7.2.7l-31 5.3c.3-2.4 1.5-5.5 3.6-9.3 2.3-4.3 5.8-9.4 10.3-15.4l3.6-4.8 2.5-3.2a76.5 76.5 0 0013.2-22.8 52 52 0 001.8-10.2l.1-2.8c0-2.4-.2-4.9-.6-7.2-.4-2.2-.9-4-1.6-5.4a7.8 7.8 0 00-2.7-3.2c-1.3-.8-3-1.1-5.4-1.1-1.9 0-4.2.2-6.9.7L40.5 80c-4.3.7-7.5 2-9.6 3.9a7.8 7.8 0 00-2.5 5.8l.2 1.8a8 8 0 004.6 6.4c1.5.7 3.3 1 5.5 1 1.4 0 3-.2 4.8-.4l30-5.1.1 1.6c0 1.9-.3 3.7-1 5.5-.9 2.5-3.1 6-6.7 10.5l-4.6 5.7a140.6 140.6 0 00-17.4 25.1 56.4 56.4 0 00-5.2 14.1 35.6 35.6 0 00-.4 13c.4 2.4 1 4.4 1.8 5.9a7.4 7.4 0 003.1 3.4c1.2.6 2.9.9 5.2.9 3 0 7-.4 12.1-1.3l32.5-5.6c5.8-1 9.8-2.4 12.1-4.3a7.4 7.4 0 002.8-6.1l-.2-1.9a7.1 7.1 0 00-1.6-4zm147.3-77.8a44.2 44.2 0 00-15.2-10.4 45.7 45.7 0 00-17.9-3.8h-.3a50 50 0 00-34.3 15.5 57 57 0 00-11.2 17.5 57 57 0 00-4.7 20.2l-.1 2.3a50 50 0 0012.7 33.1 46.2 46.2 0 0033.3 14.2h.2c6.1 0 12.1-1.3 18-3.9a51.2 51.2 0 0016.4-11.5 57.3 57.3 0 0011.3-17.5 57.6 57.6 0 004.7-20.2v-1.9a51.3 51.3 0 00-12.9-33.6zm-11.6 47.4c-4 9.4-9.3 15.9-15.8 19.5a22.4 22.4 0 01-20.8.7 23.2 23.2 0 01-14.1-15.4c-.7-2.4-1-4.9-1-7.6 0-5.3 1.3-11.1 4-17.3a38.6 38.6 0 0116-19.8 22.4 22.4 0 0120.9-.7c7.4 3.1 12 8.2 13.9 15.5.6 2.4 1 4.8 1 7.5 0 5.2-1.4 11.1-4.1 17.6zm138.3-43.8c-.5-3.6-1.8-6.4-3.8-8.2a8.3 8.3 0 00-5.9-2.2l-1.8.1a9.3 9.3 0 00-6.9 4.2c-1 1.7-1.6 3.7-1.6 6.1l.2 2.8 4.3 30.4-34 5-4.3-30.4a13 13 0 00-3.7-8.1 8.4 8.4 0 00-5.9-2.3l-1.6.1a9.8 9.8 0 00-7.1 4.2 10.9 10.9 0 00-1.6 6.1l.2 2.9 11.6 79.2c.5 3.6 1.8 6.4 3.9 8.2a9 9 0 006 2.1l2-.2a8.6 8.6 0 006.6-4.2c1-1.7 1.5-3.7 1.5-6l-.2-2.9-4.8-31.3 34-5 4.8 31.3c.5 3.6 1.8 6.3 3.8 8.2a9 9 0 006 2.2l1.8-.1a8.7 8.7 0 006.8-4.2c1-1.7 1.5-3.7 1.5-6l-.2-2.9-11.6-79.1z" fill="#fff"/><path fill="#ec473f" d="M0 77.3l2.3-11.6 5.9-29.5 118.5-19-8 41.9z"/></svg>