<svg xmlns="http://www.w3.org/2000/svg" viewBox="0 0 562.3 193.9"><path fill="#dc7e28" d="M562.3 41.4v133.4l-18.1 18.1V62.3z"/><linearGradient id="a" gradientUnits="userSpaceOnUse" x1="421.008" y1="59.066" x2="541.982" y2="192.343"><stop offset=".006" stop-color="#f8c51b"/><stop offset="1" stop-color="#e78f24"/></linearGradient><path fill="url(#a)" d="M422.3 62.3h122v130.6h-122z"/><path fill="#fdd600" d="M441.4 41.5l-19.1 20.8h121.9l18.1-20.9z"/><path fill="#90c7ea" d="M290.3 47.2l120-16.7-10.1 28.8-118.3 16.1z"/><linearGradient id="b" gradientUnits="userSpaceOnUse" x1="286.163" y1="75.325" x2="410.923" y2="175.512"><stop offset=".006" stop-color="#1f8aca"/><stop offset="1" stop-color="#01659e"/></linearGradient><path fill="url(#b)" d="M400.2 59.3l16.7 117-118.3 16.6-16.7-117.5z"/><path fill="#0b98d5" d="M400.2 59.3l16.7 117 9-25.3-15.5-119.8-.1-.7"/><linearGradient id="c" gradientUnits="userSpaceOnUse" x1="218.128" y1="80.759" x2="218.128" y2="190.084"><stop offset="0" stop-color="#269f49"/><stop offset="1" stop-color="#008a54"/></linearGradient><path fill="url(#c)" d="M189 37.2l106.2 48-47.9 108.7L141.1 146z"/><path fill="#95cea0" d="M178 0l11 37.2 106.2 48-8.9-35.6z"/><path fill="#69bf6d" d="M178 0l-42.8 101.4 5.9 44.6L189 37.2z"/><linearGradient id="d" gradientUnits="userSpaceOnUse" x1="59.535" y1="70.064" x2="78.336" y2="183.568"><stop offset="0" stop-color="#d81f32"/><stop offset="1" stop-color="#bb2637"/></linearGradient><path fill="url(#d)" d="M118.7 59.1l17.5 115.2-117.3 18.4L0 77.3z"/><path fill="#761216" d="M126.7 17.2l17.4 116.2-7.9 40.9-17.5-115.2z"/><path d="M525.6 109.3c-2.4-6.1-6-11.5-10.7-16.3-4.5-4.6-9.6-8.1-15.2-10.4-5.6-2.3-11.7-3.5-18.2-3.5-6.6 0-12.7 1.2-18.4 3.5-5.7 2.3-10.7 5.8-15.2 10.4-4.7 4.7-8.3 10.2-10.6 16.2-2.4 6.1-3.5 12.7-3.5 19.8 0 7.1 1.2 13.7 3.6 19.8 2.4 6.1 5.9 11.6 10.6 16.4 4.4 4.5 9.4 8 15 10.3 5.6 2.3 11.8 3.5 18.5 3.5 6.5 0 12.5-1.2 18.2-3.5 5.6-2.3 10.7-5.7 15.3-10.3 4.7-4.8 8.3-10.3 10.7-16.4 2.4-6.1 3.6-12.7 3.6-19.8-.1-7-1.3-13.6-3.7-19.7zm-25.1 43c-4.7 5.6-11 8.4-19.1 8.5-8.2 0-14.5-2.8-19.2-8.4-4.7-5.6-7.1-13.4-7.1-23.3 0-10.1 2.4-18 7-23.6 4.7-5.7 11-8.5 19.2-8.5 8.1 0 14.4 2.8 19.1 8.5 4.7 5.7 7 13.5 7 23.6.2 9.9-2.2 17.6-6.9 23.2zM78.6 125.9zm27.5 30c-.9-1.1-2.2-1.9-3.7-2.5-1.6-.5-3.4-.8-5.7-.8-2.1 0-4.5.2-7.2.7l-31 5.3c.3-2.4 1.5-5.5 3.6-9.3 2.3-4.3 5.8-9.4 10.3-15.4 1.6-2.1 2.8-3.7 3.6-4.8.6-.7 1.4-1.8 2.5-3.2 7.1-9.3 11.5-16.9 13.2-22.8 1-3.4 1.5-6.8 1.8-10.2.1-.9.1-1.9.1-2.8 0-2.4-.2-4.9-.6-7.2-.4-2.2-.9-4-1.6-5.4-.7-1.4-1.6-2.5-2.7-3.2-1.3-.8-3-1.1-5.4-1.1-1.9 0-4.2.2-6.9.7L40.5 80c-4.3.7-7.5 2-9.6 3.9-1.6 1.5-2.5 3.5-2.5 5.8 0 .6.1 1.2.2 1.8.5 3 2.1 5.3 4.6 6.4 1.5.7 3.3 1 5.5 1 1.4 0 3-.2 4.8-.4l30-5.1c.1.5.1 1.1.1 1.6 0 1.9-.3 3.7-1 5.5-.9 2.5-3.1 6-6.7 10.5-1 1.2-2.5 3.1-4.6 5.7-8.1 9.8-13.9 18.1-17.4 25.1-2.5 4.8-4.2 9.5-5.2 14.1-.6 2.7-.8 5.3-.8 7.8 0 1.8.1 3.5.4 5.2.4 2.4 1 4.4 1.8 5.9.8 1.6 1.8 2.7 3.1 3.4 1.2.6 2.9.9 5.2.9 3 0 7-.4 12.1-1.3l32.5-5.6c5.8-1 9.8-2.4 12.1-4.3 1.9-1.5 2.8-3.6 2.8-6.1 0-.6-.1-1.3-.2-1.9-.1-1.5-.7-2.9-1.6-4zm147.3-77.8c-4.2-4.4-9.2-7.9-15.2-10.4-5.9-2.5-11.9-3.8-17.9-3.8h-.3c-6 .1-12 1.5-18 4.1-6.2 2.7-11.6 6.5-16.3 11.4-4.6 4.9-8.4 10.7-11.2 17.5-2.9 6.7-4.4 13.5-4.7 20.2 0 .8-.1 1.5-.1 2.3 0 6 1 11.8 3.1 17.5 2.2 6 5.4 11.2 9.6 15.6 4.2 4.4 9.4 7.9 15.5 10.5 5.9 2.5 11.8 3.7 17.8 3.7h.2c6.1 0 12.1-1.3 18-3.9 6.3-2.8 11.7-6.6 16.4-11.5 4.7-4.9 8.4-10.7 11.3-17.5 2.9-6.8 4.4-13.5 4.7-20.2v-1.9c0-6-1.1-12-3.2-17.7-2.3-6.2-5.5-11.5-9.7-15.9zm-11.6 47.4c-4 9.4-9.3 15.9-15.8 19.5-3.5 1.9-7.1 2.9-10.8 2.9-3.2 0-6.6-.7-10-2.2-7.4-3.2-12.1-8.3-14.1-15.4-.7-2.4-1-4.9-1-7.6 0-5.3 1.3-11.1 4-17.3 4.1-9.6 9.4-16.2 16-19.8 3.5-1.9 7.1-2.9 10.8-2.9 3.3 0 6.6.7 10.1 2.2 7.4 3.1 12 8.2 13.9 15.5.6 2.4 1 4.8 1 7.5 0 5.2-1.4 11.1-4.1 17.6zm138.3-43.8c-.5-3.6-1.8-6.4-3.8-8.2-1.6-1.5-3.6-2.2-5.9-2.2-.6 0-1.2 0-1.8.1-3.1.4-5.4 1.9-6.9 4.2-1 1.7-1.6 3.7-1.6 6.1 0 .9.1 1.9.2 2.8l4.3 30.4-34 5-4.3-30.4c-.5-3.5-1.7-6.3-3.7-8.1-1.6-1.5-3.6-2.3-5.9-2.3-.5 0-1.1 0-1.6.1-3.2.5-5.6 1.9-7.1 4.2-1.1 1.7-1.6 3.7-1.6 6.1 0 .9.1 1.9.2 2.9l11.6 79.2c.5 3.6 1.8 6.4 3.9 8.2 1.6 1.4 3.7 2.1 6 2.1.6 0 1.3-.1 2-.2 2.9-.4 5.2-1.8 6.6-4.2 1-1.7 1.5-3.7 1.5-6 0-.9-.1-1.9-.2-2.9l-4.8-31.3 34-5 4.8 31.3c.5 3.6 1.8 6.3 3.8 8.2 1.6 1.4 3.7 2.2 6 2.2.6 0 1.2 0 1.8-.1 3.1-.4 5.4-1.8 6.8-4.2 1-1.7 1.5-3.7 1.5-6 0-.9-.1-1.9-.2-2.9l-11.6-79.1z" fill="#fff"/><path fill="#ec473f" d="M0 77.3l2.3-11.6 5.9-29.5 118.5-19-8 41.9z"/></svg>