<svg version="1.1" id="Layer_1" xmlns="http://www.w3.org/2000/svg" x="0" y="0" viewBox="0 0 254.79 80.25" xml:space="preserve"><style>.st0{fill:#4285f4}.st1{fill:#ea4335}</style><g id="XMLID_11_"><path id="XMLID_10_" class="st0" d="M31.87 28.59v8.59H52.4C51.77 42 50.17 45.52 47.72 48c-3 3-7.68 6.28-15.85 6.28-12.64 0-22.52-10.19-22.52-22.83S19.23 8.62 31.87 8.62c6.81 0 11.8 2.69 15.46 6.14l6.04-6.04C48.28 3.77 41.43 0 31.87 0 14.56 0 0 14.1 0 31.42s14.56 31.42 31.87 31.42c9.36 0 16.41-3.07 21.92-8.8 5.65-5.65 7.44-13.65 7.44-20.07 0-1.99-.14-3.84-.45-5.38H31.87z"/><path id="XMLID_24_" class="st1" d="M86.88 21.61c-11.21 0-20.35 8.52-20.35 20.28 0 11.66 9.15 20.28 20.35 20.28s20.35-8.59 20.35-20.28c0-11.77-9.14-20.28-20.35-20.28zm0 32.57c-6.14 0-11.45-5.06-11.45-12.29 0-7.3 5.31-12.29 11.45-12.29s11.45 4.99 11.45 12.29c0 7.22-5.3 12.29-11.45 12.29z"/><path id="XMLID_21_" class="st0" d="M186.65 26.15h-.31c-1.99-2.37-5.83-4.54-10.68-4.54-10.12 0-18.95 8.83-18.95 20.28 0 11.38 8.83 20.28 18.95 20.28 4.85 0 8.69-2.16 10.68-4.61h.31v2.83c0 7.75-4.15 11.9-10.82 11.9-5.45 0-8.83-3.91-10.23-7.23l-7.75 3.21c2.23 5.38 8.13 11.97 17.98 11.97 10.44 0 19.27-6.14 19.27-21.12V22.65h-8.45v3.5zm-10.23 28.03c-6.14 0-10.82-5.24-10.82-12.29 0-7.16 4.68-12.29 10.82-12.29 6.07 0 10.82 5.24 10.82 12.36.04 7.08-4.75 12.22-10.82 12.22z"/><path id="XMLID_18_" d="M132.26 21.61c-11.21 0-20.35 8.52-20.35 20.28 0 11.66 9.15 20.28 20.35 20.28s20.35-8.59 20.35-20.28c0-11.77-9.14-20.28-20.35-20.28zm0 32.57c-6.14 0-11.45-5.06-11.45-12.29 0-7.3 5.31-12.29 11.45-12.29s11.45 4.99 11.45 12.29c0 7.22-5.3 12.29-11.45 12.29z" fill="#fbbc05"/><path id="XMLID_3_" d="M202.08.84h8.76v61.33h-8.76V.84z" fill="#34a853"/><path id="XMLID_14_" class="st1" d="M237.89 54.18c-4.54 0-7.75-2.06-9.84-6.14l27.12-11.21-.91-2.3c-1.68-4.54-6.84-12.92-17.35-12.92-10.44 0-19.13 8.2-19.13 20.28 0 11.38 8.59 20.28 20.11 20.28 9.29 0 14.66-5.69 16.9-8.97l-6.91-4.61c-2.31 3.35-5.45 5.59-9.99 5.59zm-.63-24.96c3.6 0 6.67 1.85 7.68 4.47l-18.33 7.57c.01-8.52 6.05-12.04 10.65-12.04z"/></g></svg>