<svg version="1.1" id="Layer_1" xmlns="http://www.w3.org/2000/svg" x="0" y="0" viewBox="0 0 232.7 60" xml:space="preserve"><style>.st1{fill:none}.st8,.st9{fill-rule:evenodd;clip-rule:evenodd;fill:#86a196}.st9{fill:#fff}</style><path d="m69.1 21.4-4.4 12.4h-.1l-1.9-6.6-2-6.1h-3.1v.4l6 17.9h1.7l4.4-11.7h.1l4.4 11.7h1.6l6.1-17.9v-.4h-3.2l-1.9 6.1-1.8 6.5h-.1l-4.3-12.4h-1.5zm18.6 17.9h-3V21.1h7.5c3.4-.1 6.3 2.5 6.4 5.9v.5c.1 3.4-2.6 6.2-6 6.3h-5l.1 5.5zm-.1-8.1h4.6c2 0 3.5-1.6 3.5-3.6v-.2c.1-1.9-1.3-3.6-3.3-3.7h-4.8v7.5zm29-.7-7.4-9.4h-1.1v18.2h3V27.9l5.3 6.7h.4l5.2-6.7v11.4h3.1V21.1H124l-7.4 9.4zm24.1-2.8v7.9c0 1.1 0 1.9 1.4 1.7v1.9c-1.8.3-3.6.1-3.6-2v-.5c-.7 1.7-2.5 2.8-4.3 2.7-3.8 0-5.7-3.1-5.7-6.6.1-4.2 3.1-6.4 7.1-6.4 1.8.1 3.5.5 5.1 1.3zM138 33v-3.7c-.8-.4-1.7-.5-2.6-.5-2.4 0-4 1.4-4.1 4.1 0 2.3 1.1 4.1 3.4 4.1 2.2 0 3.2-1.7 3.3-4zm6.6-10.1c0 .9.7 1.7 1.6 1.7h.1c.9 0 1.6-.6 1.7-1.5v-.2c-.1-.9-.9-1.6-1.8-1.6-.9.1-1.5.8-1.6 1.6zm3.1 4h-2.8v12.4h2.8V26.9zm3.6-6.6v14.5c0 4.2 1.8 5.2 5.6 4.5l-.1-2.2c-2.1.3-2.7-.3-2.7-2.4V20.3h-2.8zm13.5 13.9c.1 3.8 3.8 5.6 7.4 5.5 3.4 0 7.2-1.5 7.2-5.5 0-4.2-3.4-4.9-7.1-5.3-2.1-.3-4.2-.5-4.2-2.6s2.2-2.7 3.8-2.7 3.9.6 4 2.6h2.9c-.1-3.7-3.4-5.3-6.8-5.3s-6.8 1.8-6.8 5.5 3.3 4.7 6.6 5c2.1.2 4.6.4 4.6 2.8S174 37 172.1 37s-4.2-.8-4.4-2.8h-2.9zm26.4-3.7-7.4-9.4h-1.1v18.2h3V27.9l5.3 6.7h.4l5.2-6.7v11.4h3V21.1h-1.1l-7.3 9.4zm16.6-6.7v15.5h3V23.8h5.2v-2.7h-13.5v2.7h5.3zm14 15.5h-3V21.1h7.5c3.4-.1 6.3 2.5 6.4 5.9v.5c.1 3.4-2.6 6.2-6 6.3h-5l.1 5.5zm0-8.1h4.6c2 0 3.5-1.6 3.5-3.6v-.2c.1-1.9-1.3-3.6-3.3-3.7h-4.8v7.5z" fill-rule="evenodd" clip-rule="evenodd" fill="#23282c"/><path class="st1" d="M-6.2 0h60v60h-60z"/><path d="M16.7 8.1c-4 2.1-6.9 5.8-7.9 10.2-10 8.3-11.4 23.1-3.1 33.1s23.1 11.4 33.1 3.1 11.4-23.1 3.1-33.1c-.9-1.1-2-2.2-3.1-3.1-1.2-4.9-4.7-9-9.4-10.8-.2-1.2-1-2.2-2.1-2.7C27.2 2.2 25 .3 22.5.4c-1.8.1-3.3 1.1-4 2.8-.8 1.5-1.4 3.2-1.8 4.9z" fill-rule="evenodd" clip-rule="evenodd" fill="#395360"/><path fill="#fbaa6f" d="M18 26h12v14H18z"/><path d="m25.9 33.2-.1-.1c-.6-.5-.8-1.3-.3-2 .5-.6 1.3-.8 2-.3-.5.1-.9.4-1.2.8-.4.5-.6 1-.4 1.6zm-4.5 0c.1-.5 0-1.1-.4-1.5-.3-.4-.7-.7-1.2-.8.6-.5 1.5-.3 2 .3.4.6.3 1.5-.4 2 0-.1 0 0 0 0zm7.2-3.2h.5L28 34.8l-2.1 6.4h-4.3l-3.2-5.4 1.1-3.2c1.1 1.4 1.8 2.3 2.1 2.7.5.5 2.7.5 3.8-.5 1.2-1.5 2.3-3.1 3.2-4.8z" fill-rule="evenodd" clip-rule="evenodd" fill="#dc7f3c"/><path d="M9.7 29H15v-9h-4.1c.6-4.4 3.5-8.2 7.5-10 .8-3.3 1.7-5.6 2.7-6.8l.2-.2h.1c.3-.2.7-.4 1.1-.5 1.3-.2 2.5.7 2.7 1.9.1.7-.1 1.3-.5 1.8h-.1l-.3.3c-.5.5-.9 1-1.3 1.6.8-.8 1.9-1.4 3-1.5.2 0 .5.1.7.2.6.4.9 1.2.5 1.8l-.6.6c5.4 1.2 9.4 5.6 10.1 11l.1.9H33v8h4.8l1.8 13.4c-4.2 2.6-9.5 3.9-15.9 3.9s-11.5-1.3-15.7-4L9.7 29zm15.2 9.4c2.6-4.3 3.9-6.8 3.9-7.6 0-2.2-3.2-4.1-4.9-4.1S19 28.5 19 30.8c0 .8 1.3 3.4 3.8 7.6.2.4.6.6 1.1.6.4 0 .8-.2 1-.6z" fill-rule="evenodd" clip-rule="evenodd" fill="#bdcfc8"/><path class="st1" d="M19 31.1h9.6l-1.6 16h-6.4z"/><path d="M39.8 48.8c-6.6 8.9-19.1 10.7-28 4.1-1.6-1.2-2.9-2.5-4.1-4.1l.8-6.1c.3.1.7.2 1 .2 1.4 0 2.6-1 2.8-2.4v1.2c0 1.6 1.3 2.8 2.8 2.8s2.8-1.3 2.8-2.8v1.6c.1 1.6 1.4 2.8 3 2.7 1.4-.1 2.6-1.2 2.7-2.7 0 1.6 1.3 2.8 2.8 2.8s2.8-1.3 2.8-2.8v-1.6c0 1.6 1.3 2.8 2.8 2.8s2.8-1.3 2.8-2.8v-1.2C35.3 42 36.5 43 38 43c.3 0 .7-.1 1-.2l.8 6z" fill-rule="evenodd" clip-rule="evenodd" fill="#809eb0"/><path d="m8.3 44.7.3-1.9c.3.1.7.2 1 .2 1.4 0 2.6-1 2.8-2.4v1.2c0 1.6 1.3 2.8 2.8 2.8s2.8-1.3 2.8-2.8v1.6c.1 1.6 1.4 2.8 3 2.7 1.4-.1 2.6-1.2 2.7-2.7 0 1.6 1.3 2.8 2.8 2.8s2.8-1.3 2.8-2.8v-1.6c0 1.6 1.3 2.8 2.8 2.8s2.8-1.3 2.8-2.8v-1.2C35.3 42 36.5 43 38 43c.3 0 .7-.1 1-.2l.2 1.9c-1.4.7-3.1.1-3.8-1.3-.1-.3-.2-.5-.3-.8v1.2c0 1.6-1.3 2.8-2.8 2.8s-2.8-1.3-2.8-2.8v1.6c0 1.6-1.3 2.8-2.8 2.8s-2.8-1.3-2.8-2.8c-.1 1.6-1.4 2.8-3 2.7-1.4-.1-2.6-1.2-2.7-2.7v-1.7c0 1.6-1.3 2.8-2.8 2.8s-2.8-1.3-2.8-2.8v-1.2C12.3 44 11 45 9.6 45c-.5 0-.9-.1-1.3-.3z" fill-rule="evenodd" clip-rule="evenodd" fill="#738e9e"/><path class="st8" d="M37.8 22.4c-1-2.9-3-4.7-4.7-4.5-2.2.2-2.7 3.8-2.3 8s1.7 7.6 3.9 7.3 4-3.9 3.7-8c-.1 1.2-.5 2.3-1.4 2.4-1.1.1-1.4-1.2-1.6-2.8s-.1-3 1-3.1c.5-.1 1.1.2 1.4.7z"/><path class="st9" d="M37 21.8c-.6-1.2-1.5-2-2.4-1.9-1.5.1-1.9 2.6-1.6 5.5s1.2 5.2 2.7 5c1.1-.1 1.9-1.5 2.2-3.4-.2.3-.5.5-.9.6-1.1.1-1.4-1.2-1.6-2.8s-.1-3 1-3.1c.2 0 .4 0 .6.1z"/><path class="st8" d="M9.6 22.4c1-2.9 3-4.7 4.7-4.5 2.2.2 2.7 3.8 2.3 8s-1.7 7.6-3.9 7.3-4-3.9-3.7-8c.1 1.2.5 2.3 1.4 2.4 1.1.1 1.4-1.2 1.6-2.8s.1-3-1-3.1c-.6-.1-1.1.2-1.4.7z"/><path class="st9" d="M10.4 21.8c.6-1.2 1.5-2 2.4-1.9 1.5.1 1.9 2.6 1.6 5.5s-1.2 5.2-2.7 5c-1.1-.1-1.9-1.5-2.2-3.4.2.3.5.5.9.6 1.1.1 1.4-1.2 1.6-2.8s.1-3-1-3.1c-.2-.1-.5 0-.6.1z"/><path d="M19 28.6v-.7c0-2.5 1.2-5.3 4.9-5.3s4.9 2.8 4.9 5.3c0 .3 0 .7-.1 1-.8-1.4-2.3-2.2-4.8-2.2-2.5.1-4 .8-4.9 1.9z" fill-rule="evenodd" clip-rule="evenodd" fill="#f4f8ff"/><path class="st8" d="M26.5 9.2 23.3 9l3.9-1.2c.1.6-.2 1.1-.7 1.4zM23 8.1l-1.3 1c.8-1.2 1.5-2.4 2-3.7.3-.8.4-1.7.3-2.6.8.4 1.3 1.3 1.2 2.2-.1.6-.3 1.1-.8 1.5-.5.5-1 1.1-1.4 1.6z"/></svg>