<svg xmlns="http://www.w3.org/2000/svg" fill="#9ea3a8" width="64" height="64" viewBox="0 0 43 34"><path d="M.007 3.585v16.836q0 3.586 3.751 3.585L20 24v-5h10v-4.986l.991-1L34 13V3.585Q34 0 30.249 0H3.758Q.007 0 .007 3.585zm3.517 2.572a1.49 1.49 0 01-.508-.935 1.581 1.581 0 01.274-1.208 1.449 1.449 0 011.094-.663 1.756 1.756 0 011.25.312l11.409 7.716 11.331-7.716a1.96 1.96 0 011.289-.312 1.546 1.546 0 011.094.663 1.4 1.4 0 01.273 1.208 1.67 1.67 0 01-.547.935l-13.44 11.068z"/><path d="M22 28h10l-.009 4.624a1.126 1.126 0 001.922.8l8.25-8.236a1.126 1.126 0 000-1.594l-8.25-8.241a1.126 1.126 0 00-1.922.8v4.866L22 21v7z"/></svg>