<svg width="75" height="75" fill="none" xmlns="http://www.w3.org/2000/svg"><path d="M28.625 10.125c-4.875 2.5-8.625 7.125-9.875 12.75A29.244 29.244 0 0 0 8.125 45.5c0 16.25 13.125 29.375 29.375 29.375S66.875 61.75 66.875 45.5c0-9.125-4.125-17.25-10.625-22.625-1.5-6.25-5.875-11.25-11.75-13.5-.25-1.5-1.25-2.75-2.625-3.375C41.75 2.875 39.25.5 36.125.5 33.75.5 31.75 1.875 30.875 4c-.875 1.5-1.625 3.625-2.25 6.125z" fill="#395360"/><path d="M45.25 32.5h-15V50h15V32.5z" fill="#FBAA6F"/><path d="M40.125 41.5 40 41.375c-.75-.625-1-1.625-.375-2.5.625-.75 1.625-1 2.5-.375-.5.125-1.125.375-1.5 1a2.444 2.444 0 0 0-.5 2zm-5.625 0c.125-.5 0-1.25-.5-1.875-.375-.625-1-.875-1.5-1 .75-.625 1.875-.375 2.5.375s.375 1.875-.375 2.5c0-.125 0 0-.125 0zm9.125-4h.625l-1.375 6-2.625 8h-5.375l-4-6.75 1.375-4c1.375 1.75 2.25 2.875 2.625 3.375.625.625 3.375.625 4.75-.625.875-.875 2.125-2.875 4-6z" fill="#DC7F3C"/><path d="M20 36.25h6.625V25H21.5c.75-5.625 4.5-10.25 9.375-12.5 1-4.25 2.125-7 3.375-8.5l.25-.25.125-.125C35 3.375 35.5 3.125 36 3c1.625-.25 3.125.875 3.375 2.375.125.875-.125 1.625-.625 2.25l-.125.125-.375.375c-.625.625-1.125 1.25-1.75 1.875 1.5-1.25 2.75-1.875 3.75-1.875.25 0 .5.125.875.25.75.5 1.125 1.5.625 2.25-.25.375-.5.625-.75.875 6.625 1.375 11.75 6.875 12.625 13.75l.125 1H49v10h6L57.25 53C52 56.25 45.375 57.875 37.5 57.875S23 56.25 17.75 53L20 36.25zM38.875 48c3.25-5.375 4.875-8.5 4.875-9.5 0-2.75-4-5.125-6.125-5.125-2 0-6.125 2.25-6.125 5.125 0 1 1.625 4.25 4.75 9.5.375.5.75.75 1.375.75s1-.25 1.25-.75z" fill="#BDCFC8"/><path d="M57.625 61c-4.5 6.125-11.875 10.125-20.125 10.125s-15.5-4-20-10l1-7.625c.375.125.875.25 1.25.25 1.75 0 3.25-1.375 3.5-3v1.5c0 2 1.625 3.5 3.5 3.5s3.5-1.625 3.5-3.5v-1.5 3.5c0 2 1.625 3.5 3.5 3.5s3.5-1.625 3.5-3.5v-3.5 3.5c0 2 1.625 3.5 3.5 3.5 2 0 3.5-1.625 3.5-3.5v-3.5 1.5c0 2 1.625 3.5 3.5 3.5 2 0 3.5-1.625 3.5-3.5v-1.5c.25 1.75 1.75 3 3.5 3 .5 0 .875-.125 1.25-.25l1.625 7.5z" fill="#809EB0"/><path d="m18.25 55.875.375-2.375c.375.125.875.25 1.25.25 1.75 0 3.25-1.375 3.5-3v1.5c0 2 1.625 3.5 3.5 3.5s3.5-1.625 3.5-3.5v-1.5 3.5c0 2 1.625 3.5 3.5 3.5s3.5-1.625 3.5-3.5v-3.5 3.5c0 2 1.625 3.5 3.5 3.5 2 0 3.5-1.625 3.5-3.5v-3.5 1.5c0 2 1.625 3.5 3.5 3.5 2 0 3.5-1.625 3.5-3.5v-1.5c.25 1.75 1.75 3 3.5 3 .5 0 .875-.125 1.25-.25l.375 2.375c-.5.25-1 .375-1.625.375-1.75 0-3.25-1.375-3.5-3v1.5c0 2-1.625 3.5-3.5 3.5-2 0-3.5-1.625-3.5-3.5v-1.5 3.5c0 2-1.625 3.5-3.5 3.5-2 0-3.5-1.625-3.5-3.5v-3.5 3.5c0 2-1.625 3.5-3.5 3.5s-3.5-1.625-3.5-3.5v-3.5 1.5c0 2-1.625 3.5-3.5 3.5s-3.5-1.625-3.5-3.5v-1.5c-.25 1.75-1.75 3-3.5 3-.625 0-1.25-.25-1.625-.375z" fill="#738E9E"/><path d="M55 28c-1.25-3.625-3.75-5.875-5.875-5.625-2.75.25-3.375 4.75-2.875 10s2.125 9.5 4.875 9.125c2.625-.25 5-4.875 4.625-10-.125 1.5-.625 2.875-1.75 3-1.375.125-1.75-1.5-2-3.5-.125-2-.125-3.75 1.25-3.875.75-.125 1.375.25 1.75.875z" fill="#86A196"/><path d="M54 27.25c-.75-1.5-1.875-2.375-3-2.375-1.875.25-2.375 3.25-2 6.875s1.5 6.5 3.375 6.25c1.375-.125 2.375-1.875 2.75-4.25-.25.375-.625.625-1.125.75-1.375.125-1.75-1.5-2-3.5-.125-2-.125-3.75 1.25-3.875.25 0 .5 0 .75.125z" fill="#fff"/><path d="M19.75 28c1.25-3.625 3.75-5.875 5.875-5.625 2.75.25 3.375 4.75 2.875 10s-2.125 9.5-4.875 9.125c-2.625-.25-5-4.875-4.625-10 .125 1.5.625 2.875 1.75 3 1.375.125 1.75-1.5 2-3.5.125-2 .125-3.75-1.25-3.875-.625-.125-1.25.25-1.75.875z" fill="#86A196"/><path d="M20.75 27.25c.75-1.5 1.875-2.375 3-2.375 1.875.25 2.375 3.25 2 6.875s-1.5 6.5-3.375 6.25C21 37.875 20 36.125 19.625 33.75c.25.375.625.625 1.125.75 1.375.125 1.75-1.5 2-3.5.125-2 .125-3.75-1.25-3.875-.25 0-.5 0-.75.125z" fill="#fff"/><path d="M31.5 35.75c0-.25-.125-.625-.125-.875 0-3.125 1.5-6.625 6.125-6.625s6.125 3.5 6.125 6.625c0 .5 0 .875-.125 1.25-1-1.625-2.875-2.75-6-2.75-2.875.125-4.875 1-6 2.375z" fill="#F4F8FF"/><path d="M41 11.5c-2.25-.125-3.625-.25-4-.25l4.875-1.5c0 .75-.25 1.25-.875 1.75zm-4.5-1.375-1.625 1.25c1.125-1.5 2-3.125 2.5-4.625.375-.875.5-2 .375-3.25 1.125.5 1.625 1.5 1.625 2.75 0 .5-.375 1.375-1 1.875-.375.375-1 1-1.875 2z" fill="#86A196"/></svg>