<svg id="recommended_-_orange_overlay" data-name="recommended - orange overlay" xmlns="http://www.w3.org/2000/svg" width="159" height="22"><defs><style>.cls-2{fill:#fff;fill-rule:evenodd}</style></defs><path id="reocmmended_bg" data-name="reocmmended bg" d="M0 0h155a4 4 0 0 1 4 4v18H4a4 4 0 0 1-4-4V0z" fill="#fb963c"/><path id="recommended" class="cls-2" d="M1524.28 1519.89a3.713 3.713 0 0 1 2.55.8 2.721 2.721 0 0 1 .92 2.19 3.405 3.405 0 0 1-.47 1.82 2.434 2.434 0 0 1-1.51 1.08v.03a1.994 1.994 0 0 1 .81.32 1.891 1.891 0 0 1 .49.53 2.042 2.042 0 0 1 .27.7 6.668 6.668 0 0 1 .14.8c.02.28.04.56.05.85a7.893 7.893 0 0 0 .08.85 5.045 5.045 0 0 0 .18.79 1.922 1.922 0 0 0 .36.66h-1.69a.973.973 0 0 1-.22-.48 4.45 4.45 0 0 1-.07-.68q-.015-.375-.03-.81a5.839 5.839 0 0 0-.1-.84c-.04-.28-.1-.55-.16-.8a1.693 1.693 0 0 0-.3-.65 1.437 1.437 0 0 0-.55-.45 2.013 2.013 0 0 0-.89-.17h-3.72v4.88h-1.52v-11.42h5.38zm.32 5.18a2.22 2.22 0 0 0 .84-.31 1.732 1.732 0 0 0 .58-.62 2.176 2.176 0 0 0 .21-1.02 2.043 2.043 0 0 0-.48-1.41 1.968 1.968 0 0 0-1.55-.54h-3.78v3.98h3.17a5.512 5.512 0 0 0 1.01-.08zm13.55-5.18v1.28h-6.37v3.63h5.94v1.28h-5.94v3.95h6.42v1.28h-7.94v-11.42h7.89zm9.19 1.61a3.555 3.555 0 0 0-2.07-.6 3.676 3.676 0 0 0-1.75.38 3.618 3.618 0 0 0-1.2 1.03 4.6 4.6 0 0 0-.7 1.48 7.07 7.07 0 0 0-.22 1.73 7.879 7.879 0 0 0 .22 1.85 4.521 4.521 0 0 0 .7 1.52 3.557 3.557 0 0 0 1.21 1.03 3.717 3.717 0 0 0 1.76.38 3.431 3.431 0 0 0 1.33-.24 3.08 3.08 0 0 0 1.68-1.74 4.308 4.308 0 0 0 .28-1.31h1.52a5.151 5.151 0 0 1-1.48 3.36 4.839 4.839 0 0 1-3.46 1.2 5.428 5.428 0 0 1-2.32-.46 4.576 4.576 0 0 1-1.65-1.25 5.658 5.658 0 0 1-.98-1.89 8.07 8.07 0 0 1-.33-2.34 7.745 7.745 0 0 1 .35-2.34 5.756 5.756 0 0 1 1.03-1.91 4.743 4.743 0 0 1 1.7-1.29 5.389 5.389 0 0 1 2.33-.47 5.8 5.8 0 0 1 1.69.24 4.54 4.54 0 0 1 1.43.7 4.145 4.145 0 0 1 1.04 1.16 4.09 4.09 0 0 1 .54 1.61h-1.52a2.819 2.819 0 0 0-1.13-1.83zm6.16 5.8a4.694 4.694 0 0 0 .7 1.52 3.781 3.781 0 0 0 1.23 1.08 4.228 4.228 0 0 0 3.59 0 3.781 3.781 0 0 0 1.23-1.08 4.694 4.694 0 0 0 .7-1.52 6.4 6.4 0 0 0 0-3.4 4.694 4.694 0 0 0-.7-1.52 3.781 3.781 0 0 0-1.23-1.08 4.228 4.228 0 0 0-3.59 0 3.781 3.781 0 0 0-1.23 1.08 4.694 4.694 0 0 0-.7 1.52 6.4 6.4 0 0 0 0 3.4zm-1.4-3.95a5.6 5.6 0 0 1 1.03-1.91 5.124 5.124 0 0 1 1.71-1.33 6.049 6.049 0 0 1 4.77 0 5.124 5.124 0 0 1 1.71 1.33 5.6 5.6 0 0 1 1.03 1.91 7.407 7.407 0 0 1 0 4.5 5.6 5.6 0 0 1-1.03 1.91 5.1 5.1 0 0 1-1.71 1.32 6.049 6.049 0 0 1-4.77 0 5.1 5.1 0 0 1-1.71-1.32 5.6 5.6 0 0 1-1.03-1.91 7.407 7.407 0 0 1 0-4.5zm14.96-3.46l3.6 9.6 3.62-9.6h2.08v11.42h-1.44v-9.5h-.03l-3.57 9.5h-1.3l-3.56-9.5h-.04v9.5h-1.44v-11.42h2.08zm14.34 0l3.6 9.6 3.62-9.6h2.08v11.42h-1.44v-9.5h-.04l-3.56 9.5h-1.3l-3.57-9.5h-.03v9.5h-1.44v-11.42h2.08zm20.11 0v1.28h-6.37v3.63h5.94v1.28h-5.94v3.95h6.42v1.28h-7.94v-11.42h7.89zm3.89 0l6.02 9.26h.03v-9.26h1.44v11.42h-1.67l-5.96-9.17h-.04v9.17h-1.44v-11.42h1.62zm14.4 10.14a5.574 5.574 0 0 0 .64-.04 3.326 3.326 0 0 0 .82-.19 3.832 3.832 0 0 0 .85-.44 2.832 2.832 0 0 0 .76-.78 4.181 4.181 0 0 0 .55-1.24 6.328 6.328 0 0 0 .22-1.8 7.855 7.855 0 0 0-.2-1.84 3.432 3.432 0 0 0-.66-1.37 2.86 2.86 0 0 0-1.17-.87 4.839 4.839 0 0 0-1.78-.29h-2.56v8.86h2.53zm-.13-10.14a5.738 5.738 0 0 1 4.07 1.34 5.385 5.385 0 0 1 1.42 4.1 9.354 9.354 0 0 1-.32 2.55 4.655 4.655 0 0 1-.99 1.87 4.228 4.228 0 0 1-1.71 1.16 6.842 6.842 0 0 1-2.47.4h-3.92v-11.42h3.92zm15.63 0v1.28h-6.36v3.63h5.93v1.28h-5.93v3.95h6.41v1.28h-7.93v-11.42h7.88zm6.34 10.14a5.574 5.574 0 0 0 .64-.04 3.326 3.326 0 0 0 .82-.19 3.832 3.832 0 0 0 .85-.44 2.832 2.832 0 0 0 .76-.78 4.181 4.181 0 0 0 .55-1.24 6.328 6.328 0 0 0 .22-1.8 7.855 7.855 0 0 0-.2-1.84 3.432 3.432 0 0 0-.66-1.37 2.86 2.86 0 0 0-1.17-.87 4.839 4.839 0 0 0-1.78-.29h-2.56v8.86h2.53zm-.13-10.14a5.738 5.738 0 0 1 4.07 1.34 5.385 5.385 0 0 1 1.42 4.1 9.354 9.354 0 0 1-.32 2.55 4.655 4.655 0 0 1-.99 1.87 4.228 4.228 0 0 1-1.71 1.16 6.842 6.842 0 0 1-2.47.4h-3.92v-11.42h3.92z" transform="translate(-1493 -1514)"/><path id="star" class="cls-2" d="M1504.56 1518.67l-1.78 3.62-4 .58a.872.872 0 0 0-.48 1.49l2.89 2.82-.69 3.98a.875.875 0 0 0 1.27.92l3.58-1.88 3.57 1.88a.877.877 0 0 0 1.27-.92l-.69-3.98 2.89-2.82a.872.872 0 0 0-.48-1.49l-3.99-.58-1.79-3.62a.876.876 0 0 0-1.57 0z" transform="translate(-1493 -1514)"/></svg>