<svg id="recommended_-_orange_overlay" data-name="recommended - orange overlay" xmlns="http://www.w3.org/2000/svg" width="159" height="22"><defs><style>.cls-2{fill:#fff;fill-rule:evenodd}</style></defs><path id="reocmmended_bg" data-name="reocmmended bg" d="M0 0h155a4 4 0 0 1 4 4v18H4a4 4 0 0 1-4-4V0z" fill="#E27730"/><path id="recommended" class="cls-2" d="M1524.3 1519.9a3.7 3.7 0 0 1 2.5.8 2.7 2.7 0 0 1 1 2.2 3.4 3.4 0 0 1-.5 1.8 2.4 2.4 0 0 1-1.5 1v.1a2 2 0 0 1 .8.3 1.9 1.9 0 0 1 .5.6 2 2 0 0 1 .2.7 6.7 6.7 0 0 1 .2.8v.8a7.9 7.9 0 0 0 .1.9 5 5 0 0 0 .2.7 2 2 0 0 0 .4.7h-1.7a1 1 0 0 1-.3-.5 4.5 4.5 0 0 1 0-.7v-.8a5.8 5.8 0 0 0-.2-.8l-.1-.8a1.7 1.7 0 0 0-.3-.7 1.4 1.4 0 0 0-.6-.4 2 2 0 0 0-.9-.2h-3.7v5h-1.5v-11.5h5.4zm.3 5.2a2.2 2.2 0 0 0 .8-.3 1.7 1.7 0 0 0 .6-.7 2.2 2.2 0 0 0 .2-1 2 2 0 0 0-.5-1.4 2 2 0 0 0-1.5-.5h-3.8v4h3.2a5.5 5.5 0 0 0 1-.1zm13.6-5.2v1.3h-6.4v3.6h6v1.3h-6v4h6.4v1.2h-8V1520h8zm9.1 1.6a3.6 3.6 0 0 0-2-.6 3.7 3.7 0 0 0-1.8.4 3.6 3.6 0 0 0-1.2 1 4.6 4.6 0 0 0-.7 1.5 7 7 0 0 0-.2 1.7 7.9 7.9 0 0 0 .2 1.9 4.5 4.5 0 0 0 .7 1.5 3.6 3.6 0 0 0 1.2 1 3.7 3.7 0 0 0 1.8.4 3.4 3.4 0 0 0 1.3-.2 3 3 0 0 0 1.7-1.8 4.3 4.3 0 0 0 .3-1.3h1.5a5.2 5.2 0 0 1-1.5 3.4 4.8 4.8 0 0 1-3.4 1.2 5.4 5.4 0 0 1-2.4-.5 4.6 4.6 0 0 1-1.6-1.2 5.7 5.7 0 0 1-1-2 8 8 0 0 1-.3-2.3 7.7 7.7 0 0 1 .3-2.3 5.8 5.8 0 0 1 1-2 4.7 4.7 0 0 1 1.8-1.2 5.4 5.4 0 0 1 2.3-.5 5.8 5.8 0 0 1 1.7.3 4.5 4.5 0 0 1 1.4.7 4.1 4.1 0 0 1 1 1.1 4 4 0 0 1 .6 1.6h-1.5a2.8 2.8 0 0 0-1.2-1.8zm6.2 5.8a4.7 4.7 0 0 0 .7 1.5 3.8 3.8 0 0 0 1.2 1.1 4.2 4.2 0 0 0 3.6 0 3.8 3.8 0 0 0 1.2-1 4.7 4.7 0 0 0 .7-1.6 6.4 6.4 0 0 0 0-3.4 4.7 4.7 0 0 0-.7-1.5 3.8 3.8 0 0 0-1.2-1.1 4.2 4.2 0 0 0-3.6 0 3.8 3.8 0 0 0-1.2 1 4.7 4.7 0 0 0-.7 1.6 6.4 6.4 0 0 0 0 3.4zm-1.4-4a5.6 5.6 0 0 1 1-1.9 5.1 5.1 0 0 1 1.7-1.3 6 6 0 0 1 4.8 0 5.1 5.1 0 0 1 1.7 1.3 5.6 5.6 0 0 1 1 2 7.4 7.4 0 0 1 0 4.4 5.6 5.6 0 0 1-1 2 5.1 5.1 0 0 1-1.7 1.3 6 6 0 0 1-4.8 0 5.1 5.1 0 0 1-1.7-1.3 5.6 5.6 0 0 1-1-2 7.4 7.4 0 0 1 0-4.5zm15-3.4 3.6 9.6 3.6-9.6h2v11.4h-1.4v-9.5l-3.6 9.5h-1.3l-3.5-9.5v9.5h-1.5V1520h2zm14.3 0 3.6 9.6 3.6-9.6h2.1v11.4h-1.4v-9.5l-3.6 9.5h-1.3l-3.6-9.5v9.5h-1.5V1520h2.1zm20.1 0v1.3h-6.4v3.6h6v1.3h-6v4h6.5v1.2h-8V1520h8zm3.9 0 6 9.2v-9.2h1.5v11.4h-1.7l-6-9.2v9.2h-1.4V1520h1.6zm14.4 10.1a5.6 5.6 0 0 0 .6 0 3.3 3.3 0 0 0 .9-.2 3.8 3.8 0 0 0 .8-.4 2.8 2.8 0 0 0 .8-.8 4.2 4.2 0 0 0 .5-1.3 6.3 6.3 0 0 0 .2-1.8 7.9 7.9 0 0 0-.2-1.8 3.4 3.4 0 0 0-.6-1.4 2.9 2.9 0 0 0-1.2-.8 4.8 4.8 0 0 0-1.8-.3h-2.5v8.8h2.5zm-.1-10.1a5.7 5.7 0 0 1 4 1.3 5.4 5.4 0 0 1 1.5 4.1 9.4 9.4 0 0 1-.4 2.6 4.7 4.7 0 0 1-1 1.8 4.2 4.2 0 0 1-1.7 1.2 6.8 6.8 0 0 1-2.4.4h-4V1520h4zm15.6 0v1.3h-6.4v3.6h6v1.3h-6v4h6.4v1.2h-7.9V1520h7.9zm6.3 10.1a5.6 5.6 0 0 0 .7 0 3.3 3.3 0 0 0 .8-.2 3.8 3.8 0 0 0 .8-.4 2.8 2.8 0 0 0 .8-.8 4.2 4.2 0 0 0 .6-1.3 6.3 6.3 0 0 0 .2-1.8 7.9 7.9 0 0 0-.2-1.8 3.4 3.4 0 0 0-.7-1.4 2.9 2.9 0 0 0-1.2-.8 4.8 4.8 0 0 0-1.7-.3h-2.6v8.8h2.5zm0-10.1a5.7 5.7 0 0 1 4 1.3 5.4 5.4 0 0 1 1.4 4.1 9.4 9.4 0 0 1-.3 2.6 4.7 4.7 0 0 1-1 1.8 4.2 4.2 0 0 1-1.7 1.2 6.8 6.8 0 0 1-2.5.4h-4V1520h4z" transform="translate(-1493 -1514)"/><path id="star" class="cls-2" d="m1504.6 1518.7-1.8 3.6-4 .6a.9.9 0 0 0-.5 1.5l2.9 2.8-.7 4a.9.9 0 0 0 1.3.9l3.6-1.9 3.5 1.9a.9.9 0 0 0 1.3-1l-.7-4 2.9-2.7a.9.9 0 0 0-.5-1.5l-4-.6-1.8-3.6a.9.9 0 0 0-1.5 0z" transform="translate(-1493 -1514)"/></svg>