<svg xmlns="http://www.w3.org/2000/svg" width="181" height="60"><defs><style>.cls-1{fill:#ccc;fill-rule:evenodd}</style></defs><path id="Rounded_Rectangle_1" data-name="Rounded Rectangle 1" class="cls-1" d="M47.124 46.084h34.292a4.277 4.277 0 1 1 0 8.555H47.124a4.277 4.277 0 1 1 0-8.555z"/><path id="Rounded_Rectangle_1-2" data-name="Rounded Rectangle 1" class="cls-1" d="M25.707 26.777h55.7a4.284 4.284 0 0 1 4.284 4.284v.016a4.284 4.284 0 0 1-4.284 4.284h-55.7a4.284 4.284 0 0 1-4.284-4.284v-.016a4.284 4.284 0 0 1 4.284-4.284z"/><path id="Rounded_Rectangle_1-3" data-name="Rounded Rectangle 1" class="cls-1" d="M4.284 6.416H81.41a4.284 4.284 0 0 1 4.284 4.284v.016A4.284 4.284 0 0 1 81.41 15H4.284A4.284 4.284 0 0 1 0 10.716V10.7a4.284 4.284 0 0 1 4.284-4.284z"/><path id="_" data-name="" d="M178.878 57.783a6.911 6.911 0 0 1-5.186 2.2h-68.954a6.9 6.9 0 0 1-5.186-2.2 7.317 7.317 0 0 1-2.113-5.261V8.516a7.327 7.327 0 0 1 2.113-5.261 6.914 6.914 0 0 1 5.186-2.2h68.954a6.922 6.922 0 0 1 5.186 2.2 7.338 7.338 0 0 1 2.113 5.261v44.005a7.328 7.328 0 0 1-2.113 5.262zm-8.835-49.458l-30.732 24.681L108.58 8.325q-2.693-2.3-4.8-.383a2.672 2.672 0 0 0-.768 2.2 3.334 3.334 0 0 0 .96 1.818l19.976 18.367-19.208 19.9a1.743 1.743 0 0 0-.192 2.487 1.392 1.392 0 0 0 1.249.574 2.532 2.532 0 0 0 1.44-.383l21.512-18.176 10.562 9.371 10.372-9.375L171.2 52.9a2.536 2.536 0 0 0 1.441.383 1.958 1.958 0 0 0 1.44-.574q.96-1.148-.384-2.487l-19.207-19.9 19.971-18.362a4.023 4.023 0 0 0 1.056-1.818 2.274 2.274 0 0 0-.864-2.2q-1.923-1.91-4.61.383z" fill="#819eaf" fill-rule="evenodd"/></svg>