<svg width="16" height="16" fill="none" xmlns="http://www.w3.org/2000/svg"><path opacity=".5" d="M8 .25A7.749 7.749 0 0 0 .25 8 7.749 7.749 0 0 0 8 15.75 7.749 7.749 0 0 0 15.75 8 7.749 7.749 0 0 0 8 .25Zm0 14A6.228 6.228 0 0 1 1.75 8 6.248 6.248 0 0 1 8 1.75c3.438 0 6.25 2.813 6.25 6.25A6.248 6.248 0 0 1 8 14.25Zm3.156-8.188c.156-.125.156-.375 0-.53l-.687-.688c-.156-.157-.406-.157-.531 0L8 6.78 6.031 4.844c-.125-.157-.375-.157-.531 0l-.688.687c-.156.157-.156.407 0 .532L6.75 8 4.812 9.969c-.156.125-.156.375 0 .531l.688.688c.156.156.406.156.531 0L8 9.25l1.938 1.938c.124.156.374.156.53 0l.688-.688c.156-.156.156-.406 0-.531L9.22 8l1.937-1.938Z" fill="#6F6F84"/></svg>