<svg width="16" height="16" fill="none" xmlns="http://www.w3.org/2000/svg"><path d="M8 .25A7.749 7.749 0 00.25 8 7.749 7.749 0 008 15.75 7.749 7.749 0 0015.75 8 7.749 7.749 0 008 .25zm3.781 9.813c.156.124.156.374 0 .53l-1.219 1.22c-.156.156-.406.156-.53 0L8 9.75l-2.063 2.063c-.125.156-.375.156-.53 0l-1.22-1.25c-.156-.126-.156-.376 0-.532L6.25 8 4.187 5.969c-.156-.125-.156-.375 0-.532l1.25-1.218c.125-.157.375-.157.532 0L8 6.25l2.031-2.031c.125-.157.375-.157.531 0l1.22 1.218c.155.157.155.407 0 .532L9.75 8l2.031 2.063z" fill="#d63638"/></svg>