<svg width="18" height="24" fill="none" xmlns="http://www.w3.org/2000/svg"><path d="M5.75 19.969c0 .117 0 .234.078.351l.977 1.407a.57.57 0 00.508.273h3.085a.569.569 0 00.508-.273l.977-1.407a1.14 1.14 0 00.078-.351V18.25H5.75v1.719zM8.875 14.5c.664 0 1.25-.547 1.25-1.25 0-.664-.586-1.25-1.25-1.25-.703 0-1.25.586-1.25 1.25 0 .703.547 1.25 1.25 1.25zm0-12.5C4.852 2 2 5.242 2 8.875a6.82 6.82 0 001.68 4.531c.664.742 1.68 2.305 2.03 3.594h1.876c0-.156 0-.352-.078-.547-.196-.703-.86-2.5-2.422-4.258a5.186 5.186 0 01-1.211-3.32c-.04-2.852 2.305-5 5-5 2.734 0 5 2.266 5 5 0 1.21-.469 2.383-1.25 3.32-1.523 1.72-2.227 3.555-2.422 4.258-.078.195-.078.352-.078.547H12c.352-1.29 1.367-2.852 2.031-3.594 1.055-1.21 1.719-2.773 1.719-4.531C15.75 5.085 12.664 2 8.875 2zm-.39 8.75h.742a.632.632 0 00.625-.547l.507-3.75c.04-.351-.273-.703-.625-.703H7.977c-.352 0-.665.352-.625.703l.507 3.75c.04.313.313.547.625.547z" fill="#888"/></svg>