<svg width="19" height="16" fill="none" xmlns="http://www.w3.org/2000/svg"><path d="M18.781 13.781L11.281.75c-.562-.969-2.031-1-2.594 0l-7.5 13.031C.625 14.75 1.344 16 2.5 16h14.969c1.156 0 1.875-1.219 1.312-2.219zM10 11.062c.781 0 1.438.657 1.438 1.438 0 .813-.657 1.438-1.438 1.438A1.414 1.414 0 018.562 12.5c0-.781.625-1.438 1.438-1.438zM8.625 5.907c-.031-.22.156-.407.375-.407h1.969c.219 0 .406.187.375.406l-.219 4.25c-.031.219-.188.344-.375.344H9.219c-.188 0-.344-.125-.375-.344l-.219-4.25z" fill="#E27730"/></svg>