<svg xmlns="http://www.w3.org/2000/svg" width="32" height="19.136" viewBox="0 0 32 19.136"><defs><style>.a-amazonses{fill:#262f3e;}.b-amazonses{fill:#f59931;}</style></defs><g transform="translate(0.035 -6.396)"><path class="a-amazonses" d="M8.983,13.346a3.22,3.22,0,0,0,.117.947,5.7,5.7,0,0,0,.341.766.463.463,0,0,1,.074.245.421.421,0,0,1-.2.319l-.671.447a.51.51,0,0,1-.277.1.49.49,0,0,1-.319-.149,3.293,3.293,0,0,1-.383-.5c-.106-.181-.213-.383-.33-.628A3.932,3.932,0,0,1,4.2,16.358a2.916,2.916,0,0,1-2.129-.766,2.734,2.734,0,0,1-.788-2.043,2.74,2.74,0,0,1,.969-2.192,3.872,3.872,0,0,1,2.608-.83,8.426,8.426,0,0,1,1.128.085c.394.053.8.138,1.224.234v-.777a2.358,2.358,0,0,0-.5-1.7,2.45,2.45,0,0,0-1.735-.49,4.842,4.842,0,0,0-1.149.138,8.48,8.48,0,0,0-1.149.362,3.054,3.054,0,0,1-.373.138.653.653,0,0,1-.17.032c-.149,0-.224-.106-.224-.33V7.695a.673.673,0,0,1,.075-.373.8.8,0,0,1,.3-.223A6.127,6.127,0,0,1,3.629,6.62a6.453,6.453,0,0,1,1.66-.2,3.889,3.889,0,0,1,2.788.862A3.522,3.522,0,0,1,8.961,9.9v3.448h.021ZM4.662,14.964a3.449,3.449,0,0,0,1.1-.192,2.372,2.372,0,0,0,1.011-.681,1.689,1.689,0,0,0,.362-.681,3.821,3.821,0,0,0,.106-.926v-.447a8.888,8.888,0,0,0-.979-.181,8.019,8.019,0,0,0-1-.064,2.454,2.454,0,0,0-1.586.426,1.483,1.483,0,0,0-.522,1.224,1.486,1.486,0,0,0,.394,1.128A1.476,1.476,0,0,0,4.662,14.964Zm8.546,1.149a.594.594,0,0,1-.4-.106.867.867,0,0,1-.224-.415l-2.5-8.227a1.864,1.864,0,0,1-.1-.426.233.233,0,0,1,.255-.266h1.043a.59.59,0,0,1,.415.106.871.871,0,0,1,.213.415L13.7,14.24l1.66-7.046a.747.747,0,0,1,.2-.415.732.732,0,0,1,.426-.106h.851a.64.64,0,0,1,.426.106.717.717,0,0,1,.2.415l1.682,7.131,1.841-7.131A.913.913,0,0,1,21.2,6.78a.694.694,0,0,1,.415-.106h.99a.237.237,0,0,1,.266.266,1.061,1.061,0,0,1-.021.17,1.514,1.514,0,0,1-.074.266L20.211,15.6a.816.816,0,0,1-.224.415.681.681,0,0,1-.4.106h-.915a.64.64,0,0,1-.426-.106.755.755,0,0,1-.2-.426L16.39,8.727l-1.639,6.854a.831.831,0,0,1-.2.426.66.66,0,0,1-.426.106Zm13.676.287a7.043,7.043,0,0,1-1.639-.192,4.842,4.842,0,0,1-1.224-.426.767.767,0,0,1-.33-.3.751.751,0,0,1-.064-.3v-.543c0-.224.085-.33.245-.33a.6.6,0,0,1,.192.032c.064.021.16.064.266.106a5.789,5.789,0,0,0,1.171.373,6.391,6.391,0,0,0,1.266.128,2.872,2.872,0,0,0,1.554-.351,1.146,1.146,0,0,0,.553-1.011,1.036,1.036,0,0,0-.287-.745,2.67,2.67,0,0,0-1.075-.553l-1.543-.479a3.246,3.246,0,0,1-1.7-1.086,2.536,2.536,0,0,1-.532-1.543A2.369,2.369,0,0,1,24.021,8a2.736,2.736,0,0,1,.766-.873,3.378,3.378,0,0,1,1.107-.553A4.639,4.639,0,0,1,27.235,6.4a5.343,5.343,0,0,1,.713.043c.245.032.468.075.692.117s.415.106.607.17a2.323,2.323,0,0,1,.447.192.92.92,0,0,1,.319.266.574.574,0,0,1,.1.351v.5c0,.223-.085.341-.245.341a1.107,1.107,0,0,1-.4-.128,4.869,4.869,0,0,0-2.043-.415,2.747,2.747,0,0,0-1.416.3,1.028,1.028,0,0,0-.5.947,1,1,0,0,0,.319.756,3.179,3.179,0,0,0,1.171.585L28.5,10.9a3.237,3.237,0,0,1,1.65,1.022,2.408,2.408,0,0,1,.49,1.49,2.736,2.736,0,0,1-.277,1.235,2.862,2.862,0,0,1-.777.937,3.431,3.431,0,0,1-1.181.6A5.061,5.061,0,0,1,26.884,16.4Z"/><path class="b-amazonses" d="M28.9,21.573a22.956,22.956,0,0,1-12.963,3.959A23.452,23.452,0,0,1,.106,19.5c-.33-.3-.032-.7.362-.468a31.917,31.917,0,0,0,15.837,4.2,31.6,31.6,0,0,0,12.08-2.469C28.97,20.5,29.47,21.147,28.9,21.573Zm1.458-1.66c-.447-.575-2.959-.277-4.1-.138-.341.043-.394-.255-.085-.479,2-1.4,5.29-1,5.673-.532s-.106,3.768-1.98,5.343c-.287.245-.564.117-.436-.2C29.853,22.85,30.8,20.477,30.353,19.913Z"/></g></svg>