<svg xmlns="http://www.w3.org/2000/svg" width="111.855" height="111.855" viewBox="0 0 111.855 111.855"><defs><style>.a-arrow{fill:#b6b6b6;}</style></defs><path class="a-arrow" d="M5.257,3.426A4.667,4.667,0,0,1,12.072.653c8.022,5.479,15.546,11.279,23.116,17.358,2.551,2.048-.7,5.714-3.35,4.341-3.513-1.818-6.971-3.66-10.4-5.54a102.86,102.86,0,0,1,6.872,12.711,105.942,105.942,0,0,1,9.024,30.218,95.215,95.215,0,0,1-1.25,32.623c-1.715,8.051-4.7,23.074-12.589,27.348a2.2,2.2,0,0,1-3.267-1.875c-.366-4.506,2.394-8.761,3.933-12.912a93.085,93.085,0,0,0,4.115-14.714,89.208,89.208,0,0,0,.674-30.252,81.91,81.91,0,0,0-8.454-25.868,90.064,90.064,0,0,0-9.251-13.367l-.322,1.617c-.964,4.858-1.308,9.4-4.42,13.353-1.74,2.206-5.361.79-6.022-1.59-1.324-4.765.413-9.521,1.395-14.258C2.527,16.689,5.113,4.121,5.257,3.426Z" transform="translate(27.002 111.855) rotate(-135)"/></svg>