<?xml version="1.0" encoding="UTF-8" standalone="no"?><!DOCTYPE svg PUBLIC "-//W3C//DTD SVG 1.1//EN" "http://www.w3.org/Graphics/SVG/1.1/DTD/svg11.dtd"><svg width="100%" height="100%" viewBox="0 0 32 32" version="1.1" xmlns="http://www.w3.org/2000/svg" xmlns:xlink="http://www.w3.org/1999/xlink" xml:space="preserve" xmlns:serif="http://www.serif.com/" style="fill-rule:evenodd;clip-rule:evenodd;stroke-linejoin:round;stroke-miterlimit:2;"><g id="Logo-horizontal" serif:id="Logo horizontal"><path id="Path-25675" serif:id="Path 25675" d="M30.656,12.669c-1.058,-1.374 -2.615,-2.277 -4.333,-2.513c-0.209,-0.033 -0.421,-0.051 -0.633,-0.053c-0.212,-0 -0.433,-0.02 -0.583,-0.013l-1.958,-0c-0.197,-0 -0.385,0.077 -0.524,0.216c-0.138,0.139 -0.216,0.327 -0.216,0.524l-0,1.199c-0,0.197 0.078,0.385 0.216,0.524c0.139,0.139 0.327,0.217 0.524,0.217l1.958,-0c0.141,-0.002 0.283,0.004 0.425,0.018c0.126,0.007 0.25,0.025 0.372,0.053c0.976,0.19 1.84,0.756 2.406,1.575c0.546,0.803 0.778,1.779 0.652,2.742c-0.125,0.972 -0.609,1.862 -1.359,2.493c-0.382,0.321 -0.825,0.558 -1.305,0.696c-0.536,0.143 -1.094,0.198 -1.648,0.163l-4.044,0.016c-2.697,0.013 -5.393,0.023 -8.091,0l-4.046,-0.014l-1.769,-0l-0.188,-0.013c-0.498,-0.034 -0.985,-0.165 -1.433,-0.387c-0.877,-0.457 -1.544,-1.237 -1.86,-2.174c-0.314,-0.918 -0.284,-1.919 0.085,-2.816c0.371,-0.92 1.09,-1.658 2,-2.052c0.468,-0.198 0.971,-0.299 1.479,-0.297l2.023,-0c2.162,-0 4.111,-0.02 6.195,-0l-2.423,2.673c-0.054,0.06 -0.095,0.131 -0.121,0.207c-0.027,0.076 -0.037,0.157 -0.031,0.238c0.006,0.08 0.028,0.159 0.064,0.231c0.037,0.072 0.088,0.135 0.15,0.187l0.789,0.652c0.128,0.106 0.293,0.157 0.458,0.141c0.165,-0.015 0.318,-0.095 0.424,-0.223l3.87,-4.659c0.182,-0.218 0.282,-0.493 0.282,-0.777c-0,-0.284 -0.1,-0.559 -0.282,-0.778l-3.87,-4.659c-0.052,-0.063 -0.117,-0.116 -0.19,-0.154c-0.072,-0.038 -0.152,-0.062 -0.234,-0.07c-0.082,-0.007 -0.164,0.001 -0.243,0.026c-0.078,0.024 -0.151,0.064 -0.215,0.116l-0.789,0.652c-0.062,0.052 -0.113,0.116 -0.15,0.188c-0.037,0.072 -0.058,0.15 -0.064,0.231c-0.006,0.08 0.005,0.161 0.032,0.237c0.026,0.077 0.068,0.147 0.122,0.207l2.422,2.675c-2.076,0.013 -4.024,0 -6.194,0l-2.024,0c-0.844,-0.009 -1.683,0.135 -2.476,0.426c-1.63,0.604 -2.96,1.819 -3.709,3.387c-0.365,0.79 -0.568,1.646 -0.596,2.516c-0.028,0.87 0.12,1.737 0.434,2.549c0.638,1.62 1.889,2.922 3.482,3.624c0.776,0.352 1.614,0.548 2.466,0.579l0.316,0.013l1.771,-0l4.046,-0.015c2.696,-0.018 5.393,0 8.091,0l4.044,0.017c0.794,0.039 1.588,-0.031 2.363,-0.211c0.828,-0.215 1.609,-0.584 2.302,-1.087c0.699,-0.509 1.291,-1.153 1.739,-1.894c0.449,-0.742 0.744,-1.564 0.869,-2.421c0.132,-0.865 0.087,-1.747 -0.132,-2.594c-0.217,-0.847 -0.605,-1.641 -1.138,-2.334Z" style="fill:#5457ff;fill-rule:nonzero;"/></g></svg>