<svg xmlns="http://www.w3.org/2000/svg" width="31.367" height="32" viewBox="0 0 31.367 32"><defs><style>.a-google{fill:#4285f4;}.b-google{fill:#34a853;}.c-google{fill:#fbbc04;}.d-google{fill:#ea4335;}</style></defs><g transform="translate(0.003 0.001)"><path class="a-google" d="M31.364,16.367a18.816,18.816,0,0,0-.276-3.251H16v6.161h8.642a7.406,7.406,0,0,1-3.2,4.862v4H26.6a15.626,15.626,0,0,0,4.768-11.77Z"/><path class="b-google" d="M16,32A15.316,15.316,0,0,0,26.6,28.136l-5.156-4A9.7,9.7,0,0,1,7.019,19.065H1.7v4.121A16,16,0,0,0,16,32Z"/><path class="c-google" d="M7.014,19.065a9.583,9.583,0,0,1,0-6.126V8.818H1.7a16.013,16.013,0,0,0,0,14.368Z"/><path class="d-google" d="M16,6.332a8.694,8.694,0,0,1,6.138,2.4L26.7,4.162A15.377,15.377,0,0,0,16,0,16,16,0,0,0,1.7,8.818l5.315,4.121A9.57,9.57,0,0,1,16,6.332Z"/></g></svg>