<svg xmlns="http://www.w3.org/2000/svg" width="150" height="158.961" viewBox="0 0 150 158.961">
  <g id="loading" transform="translate(5.152 11.873)">
    <circle id="Ellipse_23" data-name="Ellipse 23" cx="75" cy="75" r="75" transform="translate(-5.152 -2.912)" fill="#395360"/>
    <g id="loading-track" transform="translate(1.848 4.088)" fill="none" stroke="rgba(255,255,255,0.1)" stroke-width="14">
      <circle cx="68" cy="68" r="68" stroke="none"/>
      <circle cx="68" cy="68" r="61" fill="none"/>
    </g>
    <g id="loading-seqment" transform="translate(1.848 4.088) rotate(-68 68 68)" fill="none" stroke="#6aa08b" stroke-linecap="round" stroke-width="14" stroke-dasharray="75 1000">
      <circle cx="68" cy="68" r="61" fill="none"/>
      <animateTransform attributeType="xml" attributeName="transform" type="rotate" from="0 68 68" to="360 68 68" dur="0.75s" additive="sum" repeatCount="indefinite"/>
    </g>
    <g id="loading-mascot" transform="translate(15.413 -11.873)">
      <path id="Path_4" data-name="Path 4" d="M38.258,18.437A35.872,35.872,0,0,0,19.944,42.1a54.9,54.9,0,0,0-7.184,77.03A54.247,54.247,0,0,0,89.4,126.353a54.843,54.843,0,0,0,0-84.251A35.8,35.8,0,0,0,67.71,16.9a7.907,7.907,0,0,0-4.816-6.26A10.71,10.71,0,0,0,42.38,6.8,57.072,57.072,0,0,0,38.258,18.437Z" transform="translate(-0.24 -0.381)" fill="#395360" fill-rule="evenodd"/>
      <rect id="Rectangle_2" data-name="Rectangle 2" width="27.784" height="32.578" transform="translate(41.121 59.616)" fill="#fbaa6f"/>
      <path id="Path_5" data-name="Path 5" d="M35.656,37.4l-.278-.186a3.318,3.318,0,0,1-.729-4.619,3.28,3.28,0,0,1,4.6-.733h0A4.71,4.71,0,0,0,35.656,37.4Zm-10.373,0a4.2,4.2,0,0,0-.9-3.584,4.417,4.417,0,0,0-2.848-1.885h0a3.28,3.28,0,0,1,4.6.733,3.318,3.318,0,0,1-.729,4.619h0A1.369,1.369,0,0,1,25.283,37.4ZM42,30h1.227L40.75,41.216,35.8,56.179H25.862L18.43,43.706l2.477-7.47c2.477,3.328,4.144,5.4,4.955,6.236,1.25,1.233,6.205,1.233,8.683-1.257A60.876,60.876,0,0,0,42,30Z" transform="translate(23.687 38.924)" fill="#dc7f3c" fill-rule="evenodd"/>
      <path id="Path_6" data-name="Path 6" d="M12.029,64.19H24.207V43.247h-9.4a30.233,30.233,0,0,1,17.365-23.27Q34.812,8.344,38.447,4.27l.417-.4.255-.233h0a5.2,5.2,0,0,1,2.5-1.094A5.4,5.4,0,0,1,46.6,11.321h-.139a3.749,3.749,0,0,1-.695.675,34.6,34.6,0,0,0-3.033,3.653,11.55,11.55,0,0,1,6.946-3.49,3.212,3.212,0,0,1,1.528.372A3.1,3.1,0,0,1,52.385,16.7,2.988,2.988,0,0,1,51,18,30.191,30.191,0,0,1,74.473,43.6l.278,2.024H65.883V64.237H77.066l4.144,31.251q-14.656,9.145-36.7,9.145T8,95.465ZM47.06,86.04q8.96-14.869,8.96-17.708c0-5.189-7.525-9.448-11.276-9.448S33.469,63.12,33.469,68.332q0,2.838,8.821,17.732a2.866,2.866,0,0,0,2.454,1.326,2.5,2.5,0,0,0,2.315-1.3Z" transform="translate(9.968 2.407)" fill="#bdcfc8" fill-rule="evenodd"/>
      <path id="Path_7" data-name="Path 7" d="M18.96,31.07H41.3L37.575,68.465H22.688Z" transform="translate(24.384 40.344)" fill="none"/>
      <path id="Path_8" data-name="Path 8" d="M82.019,59.9a46.2,46.2,0,0,1-74.3,0L9.665,45.682a6.169,6.169,0,0,0,2.315.442,6.565,6.565,0,0,0,6.506-5.655h0v2.839a6.576,6.576,0,1,0,13.151,0h0v3.77a6.6,6.6,0,0,0,13.174,0h0a6.576,6.576,0,1,0,13.151,0V43.425a6.576,6.576,0,1,0,13.151,0V40.586h0a6.76,6.76,0,0,0,9.03,5.352Z" transform="translate(9.6 52.817)" fill="#809eb0" fill-rule="evenodd"/>
      <path id="Path_9" data-name="Path 9" d="M8.3,50.13l.6-4.4a6.17,6.17,0,0,0,2.315.442,6.565,6.565,0,0,0,6.506-5.655h0v2.839a6.576,6.576,0,1,0,13.151,0v3.77a6.6,6.6,0,0,0,13.174,0h0a6.576,6.576,0,1,0,13.151,0h0v-3.77a6.576,6.576,0,1,0,13.151,0V40.52h0a6.76,6.76,0,0,0,9.03,5.352l.579,4.4a6.584,6.584,0,0,1-8.826-3.046,6.67,6.67,0,0,1-.6-1.934h0v2.839a6.576,6.576,0,1,1-13.151,0V51.9a6.576,6.576,0,1,1-13.151,0h0a6.6,6.6,0,0,1-13.174,0V48.013a6.576,6.576,0,1,1-13.151,0h0V45.174h0a6.563,6.563,0,0,1-6.645,5.771,6.686,6.686,0,0,1-2.964-.7Z" transform="translate(10.363 52.884)" fill="#738e9e" fill-rule="evenodd"/>
      <path id="Path_10" data-name="Path 10" d="M47.193,28.391C44.878,21.712,40.247,17.477,36.265,17.9c-5.094.535-6.344,8.749-5.3,18.616S34.9,54.1,39.992,53.569s9.261-9.052,8.52-18.616c-.185,2.862-1.2,5.306-3.218,5.468-2.593.233-3.334-2.769-3.681-6.562s-.324-6.981,2.315-7.167A3.493,3.493,0,0,1,47.193,28.391Z" transform="translate(39.726 22.825)" fill="#86a196" fill-rule="evenodd"/>
      <path id="Path_11" data-name="Path 11" d="M42.337,24.217c-1.459-2.816-3.473-4.538-5.534-4.3-3.5.349-4.33,5.98-3.635,12.729s2.709,12.054,6.182,11.635c2.57-.279,4.469-3.49,5-7.865a2.685,2.685,0,0,1-2.061,1.326c-2.593.233-3.334-2.769-3.681-6.562s-.324-6.981,2.315-7.167A3.7,3.7,0,0,1,42.337,24.217Z" transform="translate(42.776 25.509)" fill="#fff" fill-rule="evenodd"/>
      <path id="Path_12" data-name="Path 12" d="M10.4,28.391c2.315-6.678,6.946-10.914,10.928-10.495,5.094.535,6.344,8.749,5.3,18.616S22.693,54.1,17.6,53.569s-9.261-9.052-8.52-18.616c.185,2.862,1.181,5.306,3.218,5.468,2.593.233,3.334-2.769,3.658-6.562s.347-6.981-2.315-7.167a3.491,3.491,0,0,0-3.311,1.652Z" transform="translate(11.274 22.825)" fill="#86a196" fill-rule="evenodd"/>
      <path id="Path_13" data-name="Path 13" d="M11.514,24.217c1.459-2.816,3.5-4.538,5.557-4.3,3.473.349,4.33,5.98,3.612,12.729S18,44.694,14.5,44.275c-2.57-.279-4.469-3.49-5-7.865a2.73,2.73,0,0,0,2.084,1.326c2.57.233,3.334-2.769,3.658-6.562s.324-6.981-2.315-7.167a3.9,3.9,0,0,0-1.482.163Z" transform="translate(11.941 25.509)" fill="#fff" fill-rule="evenodd"/>
      <path id="Path_14" data-name="Path 14" d="M19.015,36.552a12.385,12.385,0,0,1,0-1.606c0-5.748,2.8-12.286,11.276-12.286S41.566,29.2,41.566,34.946a10.242,10.242,0,0,1-.3,2.327C39.413,34.132,35.94,32.2,30.152,32.2,24.664,32.27,21.1,33.876,19.015,36.552Z" transform="translate(24.422 29.184)" fill="#f4f8ff" fill-rule="evenodd"/>
      <path id="Path_15" data-name="Path 15" d="M32.886,17.666l-7.363-.372,9.1-2.7A3.143,3.143,0,0,1,32.886,17.666Zm-8.15-2.374L21.68,17.619a39.073,39.073,0,0,0,4.631-8.656,15.323,15.323,0,0,0,.741-6.213,5.5,5.5,0,0,1,2.8,5.236A5.67,5.67,0,0,1,28.117,11.5,34.713,34.713,0,0,0,24.736,15.292Z" transform="translate(27.962 2.763)" fill="#86a196" fill-rule="evenodd"/>
    </g>
  </g>
</svg>
