<svg xmlns="http://www.w3.org/2000/svg" width="31.967" height="32" viewBox="0 0 31.967 32"><defs><style>.a-mailgun{fill:#c02126;}</style></defs><path class="a-mailgun" d="M15.984,9.957a6.059,6.059,0,1,0,6.059,6.027A6.067,6.067,0,0,0,15.984,9.957ZM6.551,15.984a9.433,9.433,0,0,1,18.866,0A9.919,9.919,0,0,1,25.351,17a1.454,1.454,0,0,0,1.507,1.6c1.539,0,1.7-2,1.7-2.653a12.544,12.544,0,1,0-3.243,8.516l2.588,2.194a16.006,16.006,0,1,1,4.061-10.678c0,3.537-1.7,6.42-5.077,6.42a3.233,3.233,0,0,1-2.882-1.441A9.441,9.441,0,0,1,6.551,15.984Zm9.433-2.751a2.782,2.782,0,0,1,2.784,2.784,2.784,2.784,0,0,1-5.568,0A2.824,2.824,0,0,1,15.984,13.232Z"/></svg>