<?xml version="1.0" encoding="UTF-8" standalone="no"?><!DOCTYPE svg PUBLIC "-//W3C//DTD SVG 1.1//EN" "http://www.w3.org/Graphics/SVG/1.1/DTD/svg11.dtd"><svg width="100%" height="100%" viewBox="0 0 46 46" version="1.1" xmlns="http://www.w3.org/2000/svg" xml:space="preserve" style="fill-rule:evenodd;clip-rule:evenodd;stroke-linejoin:round;stroke-miterlimit:2;"><g><g><path class="wp-mail-smtp-one-click-sign-in-icon__border" d="M43,5c0,-1.104 -0.896,-2 -2,-2l-36,0c-1.104,0 -2,0.896 -2,2l0,36c0,1.104 0.896,2 2,2l36,0c1.104,0 2,-0.896 2,-2l0,-36Z" fill="#4285f4"/></g><g><path class="wp-mail-smtp-one-click-sign-in-icon__bg" d="M42,5c0,-0.552 -0.448,-1 -1,-1l-36,0c-0.552,0 -1,0.448 -1,1l0,36c0,0.552 0.448,1 1,1l36,0c0.552,0 1,-0.448 1,-1l0,-36Z" fill="#fff"/></g><rect class="wp-mail-smtp-one-click-sign-in-icon__symbol" x="14" y="14" width="8.556" height="8.556" fill="#f25022"/><rect class="wp-mail-smtp-one-click-sign-in-icon__symbol" x="23.444" y="14" width="8.556" height="8.556" fill="#7fba00"/><rect class="wp-mail-smtp-one-click-sign-in-icon__symbol" x="14" y="23.444" width="8.556" height="8.556" fill="#00a4ef"/><rect class="wp-mail-smtp-one-click-sign-in-icon__symbol" x="23.444" y="23.444" width="8.556" height="8.556" fill="#ffb900"/></g></svg>
