<svg xmlns="http://www.w3.org/2000/svg" width="32" height="31.985" viewBox="0 0 32 31.985"><defs><style>.a-outlook{fill:#0364b8;}.b-outlook{fill:#0a2767;}.c-outlook{fill:#28a8ea;}.d-outlook,.m-outlook{fill:#0078d4;}.d-outlook,.e-outlook,.g-outlook{fill-rule:evenodd;}.e-outlook{fill:#50d9ff;}.f-outlook{fill:none;}.g-outlook{fill:#064a8c;}.h-outlook{fill:rgba(10,39,103,0.5);}.i-outlook{fill:#1490df;}.j-outlook{fill:rgba(0,0,0,0.05);}.k-outlook{fill:rgba(0,0,0,0.1);}.l-outlook{fill:rgba(0,0,0,0.2);}.n-outlook{fill:#fff;}</style></defs><g transform="translate(7.996 2.006)"><path class="a-outlook" d="M87.3,13.8H70.11a1.421,1.421,0,0,0-1.41,1.41v1.6l9.7,2.98,10.308-3V15.2A1.418,1.418,0,0,0,87.3,13.8Z" transform="translate(-66.708 -13.8)"/><path class="b-outlook" d="M78.64,70.346a11.747,11.747,0,0,0,.349-1.41.7.7,0,0,0-.334-.582H78.64L67.809,62.19c-.044-.029-.1-.058-.145-.087a1.541,1.541,0,0,0-1.338,0c-.044.029-.1.058-.145.087L55.349,68.354h-.015a.666.666,0,0,0-.334.582,11.747,11.747,0,0,0,.349,1.41l11.486,8.4Z" transform="translate(-55 -54.95)"/><path class="c-outlook" d="M112.014,34.4h-6.993L103,37.4l2.021,3,6.993,5.99H118V40.39Z" transform="translate(-96.021 -31.405)"/></g><path class="d-outlook" d="M68.7,34.4h6.993v5.99H68.7Z" transform="translate(-58.712 -29.399)"/><path class="e-outlook" d="M165,34.4h5.99v5.99H165Z" transform="translate(-141.011 -29.399)"/><path class="a-outlook" d="M82.7,81.69,75.708,75.7H68.7v5.99l6.993,5.99,10.831,1.774Z" transform="translate(-58.712 -64.694)"/><path class="f-outlook" d="M69,34.4H88.962" transform="translate(-58.968 -29.399)"/><path class="d-outlook" d="M116.9,75.6h6.993v5.99H116.9Z" transform="translate(-99.904 -64.609)"/><path class="g-outlook" d="M68.7,116.9h6.993v5.99H68.7Z" transform="translate(-58.712 -99.904)"/><path class="d-outlook" d="M165,116.9h5.99v5.99H165Z" transform="translate(-141.011 -99.904)"/><g transform="translate(0 6.993)"><path class="h-outlook" d="M69.491,117.594,57.7,109l.494-.872s10.744,6.121,10.9,6.208a.532.532,0,0,0,.422-.015c.16-.087,10.933-6.223,10.933-6.223l.494.872Z" transform="translate(-49.311 -99.377)"/><path class="i-outlook" d="M145.4,110.582h0l-.015.015-10.831,6.164a1.483,1.483,0,0,1-1.454.087l3.78,5.06,8.244,1.8h0a1.475,1.475,0,0,0,.625-1.207V110a.733.733,0,0,1-.349.582Z" transform="translate(-113.749 -101)"/><path class="j-outlook" d="M145.734,158.126v-.741l-9.974-5.685-1.207.683a1.483,1.483,0,0,1-1.454.087l3.78,5.06,8.244,1.8h0a1.5,1.5,0,0,0,.611-1.207Z" transform="translate(-113.749 -136.638)"/><path class="k-outlook" d="M145.676,161.937,134.743,155.7l-.189.116a1.483,1.483,0,0,1-1.454.087l3.78,5.06,8.244,1.8h0a1.482,1.482,0,0,0,.552-.829Z" transform="translate(-113.749 -140.056)"/><path class="c-outlook" d="M55.349,110.6h0l-.044-.029A.665.665,0,0,1,55,110v12.489a1.5,1.5,0,0,0,1.5,1.5H77.492a1.465,1.465,0,0,0,.363-.044.82.82,0,0,0,.174-.058c.015,0,.044-.015.058-.015a.737.737,0,0,0,.233-.131l.044-.029Z" transform="translate(-47.004 -101)"/><path class="k-outlook" d="M64.988,65.765V49.438A1.353,1.353,0,0,0,63.651,48.1H57.035v7.458l-1.687.96h-.015A.666.666,0,0,0,55,57.1v10h8.665A1.35,1.35,0,0,0,64.988,65.765Z" transform="translate(-47.004 -48.1)"/><path class="l-outlook" d="M64,72.665V56.338A1.353,1.353,0,0,0,62.662,55H57.035v6.455l-1.687.96h-.015A.666.666,0,0,0,55,63V73.988h7.662A1.34,1.34,0,0,0,64,72.665Zm0-2.006V56.338A1.353,1.353,0,0,0,62.662,55H57.035v6.455l-1.687.96h-.015A.666.666,0,0,0,55,63v9h7.662A1.353,1.353,0,0,0,64,70.658Zm-1,0V56.338A1.353,1.353,0,0,0,61.659,55H57.035v6.455l-1.687.96h-.015A.666.666,0,0,0,55,63v9h6.659A1.343,1.343,0,0,0,63,70.658Z" transform="translate(-47.004 -53.997)"/><path class="m-outlook" d="M1.338,55H14.67a1.343,1.343,0,0,1,1.338,1.338V69.67a1.343,1.343,0,0,1-1.338,1.338H1.338A1.343,1.343,0,0,1,0,69.67V56.338A1.334,1.334,0,0,1,1.338,55Z" transform="translate(0 -53.997)"/><path class="n-outlook" d="M23.262,78.057a4.223,4.223,0,0,1,1.643-1.817,4.989,4.989,0,0,1,2.6-.654,4.538,4.538,0,0,1,2.413.625,4.171,4.171,0,0,1,1.6,1.73,5.545,5.545,0,0,1,.552,2.544,5.823,5.823,0,0,1-.582,2.661,4.241,4.241,0,0,1-1.643,1.788,4.858,4.858,0,0,1-2.5.64,4.922,4.922,0,0,1-2.472-.625,4.206,4.206,0,0,1-1.614-1.73A5.4,5.4,0,0,1,22.7,80.7a6.366,6.366,0,0,1,.567-2.646Zm1.745,4.26a2.677,2.677,0,0,0,.93,1.192,2.434,2.434,0,0,0,1.439.436,2.524,2.524,0,0,0,1.541-.451,2.615,2.615,0,0,0,.9-1.192,4.654,4.654,0,0,0,.291-1.672,5.127,5.127,0,0,0-.276-1.687,2.578,2.578,0,0,0-.872-1.236,2.3,2.3,0,0,0-1.527-.465,2.568,2.568,0,0,0-1.483.436,2.748,2.748,0,0,0-.945,1.207,4.812,4.812,0,0,0,0,3.431Z" transform="translate(-19.395 -71.588)"/></g><path class="f-outlook" d="M0,0H31.985V31.985H0Z"/></svg>