<svg width="156" height="32" viewBox="0 0 156 32" fill="none" xmlns="http://www.w3.org/2000/svg">
<g>
<path d="M19.5717 3.04376C20.5216 3.56889 21.1112 4.56855 21.1112 5.65389L21.1111 26.3461C21.1111 27.4315 20.5216 28.4311 19.5717 28.9562L14.7474 31.6234C12.7596 32.7224 10.3219 31.2846 10.3219 29.0133L10.3219 2.98673C10.3219 0.715369 12.7596 -0.722365 14.7474 0.376611L19.5717 3.04376Z" fill="#211FA6"/>
<path d="M7.84086 5.47966C7.95451 5.69055 8.014 5.92636 8.014 6.16592V25.8167C8.014 26.0562 7.95451 26.2921 7.84086 26.5029C7.12802 27.8258 5.12071 27.3193 5.12071 25.8167L5.12071 6.16592C5.12071 4.66325 7.12802 4.15683 7.84086 5.47966Z" fill="#211FA6"/>
<path d="M2.72015 9.39097C2.8338 9.60186 2.89329 9.83767 2.89329 10.0772L2.89329 21.9378C2.89329 22.1773 2.83379 22.4132 2.72015 22.624C2.00731 23.9469 -6.56837e-08 23.4405 0 21.9378L5.94733e-07 10.0772C6.60417e-07 8.57456 2.00731 8.06814 2.72015 9.39097Z" fill="#211FA6"/>
</g>
<g transform="translate(31.89 5.91)">
<path d="M0 17.3702C0 17.3702 2.37238 20.0153 6.68084 20.0153C10.7166 20.0153 13.0617 17.4247 13.0617 14.3434C13.0617 8.15336 3.95397 8.99869 3.95397 5.56283C3.95397 4.19939 5.2356 3.24498 6.87172 3.24498C9.29864 3.24498 11.1529 4.93564 11.1529 4.93564L12.68 2.07243C12.68 2.07243 10.7166 0 6.89899 0C3.19044 0 0.409031 2.39965 0.409031 5.61736C0.409031 11.562 9.54406 10.962 9.54406 14.4252C9.54406 16.0068 8.20789 16.7703 6.73538 16.7703C4.00851 16.7703 1.90881 14.7251 1.90881 14.7251L0 17.3702Z" fill="#09092C"/>
<path d="M14.2264 12.7345C14.2264 16.6885 17.0896 20.0153 21.698 20.0153C25.1612 20.0153 27.2881 18.0246 27.2881 18.0246L25.952 15.5432C25.952 15.5432 24.1795 17.0702 21.9435 17.0702C19.871 17.0702 17.9895 15.8159 17.7713 13.389H27.3699C27.3699 13.389 27.4517 12.4618 27.4517 12.0528C27.4517 8.37151 25.2975 5.45375 21.289 5.45375C17.1442 5.45375 14.2264 8.45331 14.2264 12.7345ZM17.8804 11.0166C18.2076 9.21684 19.4347 8.12609 21.2072 8.12609C22.7343 8.12609 23.9068 9.13503 23.9613 11.0166H17.8804Z" fill="#09092C"/>
<path d="M29.489 19.688H32.9521V13.3071C32.9521 12.6527 33.0067 12.0255 33.1976 11.4529C33.7157 9.78948 35.0791 8.61692 36.9334 8.61692C38.7059 8.61692 39.1422 9.76221 39.1422 11.4529V19.688H42.578V10.7439C42.578 7.06261 40.8328 5.45375 37.7514 5.45375C34.9428 5.45375 33.4157 7.17168 32.8158 8.34424H32.7613C32.7613 8.34424 32.8158 7.90794 32.8158 7.38983V5.78097H29.489V19.688Z" fill="#09092C"/>
<path d="M43.9728 12.7345C43.9728 17.043 46.3724 20.0153 50.1355 20.0153C53.326 20.0153 54.4985 17.6429 54.4985 17.6429H54.5531C54.5531 17.6429 54.4985 18.0246 54.4985 18.5427V19.688H57.7708V0.327226H54.3077V6.43543C54.3077 6.87173 54.3349 7.22622 54.3349 7.22622H54.2804C54.2804 7.22622 53.326 5.45375 50.2719 5.45375C46.5906 5.45375 43.9728 8.31697 43.9728 12.7345ZM47.4632 12.7345C47.4632 9.98036 49.0448 8.42604 50.9536 8.42604C53.2714 8.42604 54.4167 10.553 54.4167 12.7072C54.4167 15.7886 52.7261 17.0975 50.9263 17.0975C48.8812 17.0975 47.4632 15.3796 47.4632 12.7345Z" fill="#09092C"/>
<path d="M61.3247 19.688H73.2138V16.6612H64.8423V0.327226H61.3247V19.688Z" fill="#09092C"/>
<path d="M73.9554 15.6795C73.9554 18.4609 76.1914 20.0153 78.6729 20.0153C81.8361 20.0153 82.9268 17.5611 82.8995 17.5611H82.9541C82.9541 17.5611 82.8995 17.9974 82.8995 18.5427V19.688H86.09V10.9893C86.09 7.47164 83.963 5.45375 80.309 5.45375C77.0095 5.45375 74.8553 7.17168 74.8553 7.17168L76.1642 9.65314C76.1642 9.65314 77.9912 8.31697 79.9818 8.31697C81.5088 8.31697 82.6541 8.94415 82.6541 10.7712V10.962H82.1906C79.9272 10.962 73.9554 11.262 73.9554 15.6795ZM77.4458 15.5159C77.4458 13.5798 80.309 13.3344 82.0815 13.3344H82.6814V13.6616C82.6814 15.3523 81.3725 17.3157 79.5455 17.3157C78.1275 17.3157 77.4458 16.4431 77.4458 15.5159Z" fill="#09092C"/>
<path d="M86.5276 24.5146C86.5276 24.5146 87.7547 25.4145 89.4181 25.4145C91.5178 25.4145 93.4538 24.3237 94.4355 21.7877L100.653 5.78097H96.8624L94.1356 13.8525C93.8901 14.5888 93.672 15.6795 93.672 15.6795H93.6175C93.6175 15.6795 93.372 14.5342 93.0994 13.798L90.1816 5.78097H86.2822L92.145 19.4699L91.6268 20.697C91.1087 21.9241 90.1816 22.4967 89.2272 22.4967C88.4364 22.4967 87.6729 21.9241 87.6729 21.9241L86.5276 24.5146Z" fill="#09092C"/>
<path d="M100.362 12.7345C100.362 16.6885 103.226 20.0153 107.834 20.0153C111.297 20.0153 113.424 18.0246 113.424 18.0246L112.088 15.5432C112.088 15.5432 110.316 17.0702 108.08 17.0702C106.007 17.0702 104.126 15.8159 103.907 13.389H113.506C113.506 13.389 113.588 12.4618 113.588 12.0528C113.588 8.37151 111.434 5.45375 107.425 5.45375C103.28 5.45375 100.362 8.45331 100.362 12.7345ZM104.016 11.0166C104.344 9.21684 105.571 8.12609 107.343 8.12609C108.87 8.12609 110.043 9.13503 110.097 11.0166H104.016Z" fill="#09092C"/>
<path d="M115.625 19.688H119.088V14.1797C119.088 13.3617 119.17 12.5982 119.388 11.9164C120.043 9.84402 121.706 8.99869 123.179 8.99869C123.642 8.99869 123.997 9.05322 123.997 9.05322V5.64463C123.997 5.64463 123.697 5.59009 123.369 5.59009C121.242 5.59009 119.579 7.17168 118.952 9.1623H118.897C118.897 9.1623 118.952 8.69873 118.952 8.18063V5.78097H115.625V19.688Z" fill="#09092C"/>
</g>
</svg>
