<svg width="22" height="32" viewBox="0 0 22 32" fill="none" xmlns="http://www.w3.org/2000/svg">
<path d="M19.6297 3.04376C20.5823 3.56889 21.1736 4.56855 21.1736 5.65389L21.1736 26.3461C21.1736 27.4315 20.5823 28.4311 19.6297 28.9562L14.7911 31.6234C12.7975 32.7224 10.3526 31.2846 10.3526 29.0133L10.3526 2.98673C10.3526 0.715369 12.7975 -0.722365 14.7911 0.376611L19.6297 3.04376Z" fill="#211F9A"/>
<path d="M7.86376 5.47965C7.97774 5.69054 8.03741 5.92636 8.03741 6.16592V25.8167C8.03741 26.0562 7.97774 26.292 7.86376 26.5029C7.14882 27.8258 5.13557 27.3193 5.13557 25.8167L5.13557 6.16591C5.13557 4.66324 7.14882 4.15683 7.86376 5.47965Z" fill="#211F9A"/>
<path d="M2.72819 9.39095C2.84217 9.60184 2.90183 9.83765 2.90183 10.0772L2.90183 21.9378C2.90183 22.1773 2.84216 22.4131 2.72819 22.624C2.01324 23.9469 -6.58777e-08 23.4404 0 21.9378L5.9649e-07 10.0772C6.62367e-07 8.57454 2.01324 8.06812 2.72819 9.39095Z" fill="#211F9A"/>
</svg>
