<svg xmlns="http://www.w3.org/2000/svg" width="32" height="23.251" viewBox="0 0 32 23.251"><defs><style>.a-smtpcom{fill:#21b193;}</style></defs><g transform="translate(0 -4.36)"><path d="M0,4.36H32V27.55a3.353,3.353,0,0,1-.575.061H.454c-.151,0-.3-.03-.454-.03ZM31.061,26.672V5.752L2,26.641a1.52,1.52,0,0,0,.363.061H13.018a1.585,1.585,0,0,0,.817-.3c1.272-.878,2.543-1.816,3.784-2.725l5.6-4,.545.757-8.689,6.237ZM.969,5.722V26.248l14.35-10.324Zm1.3-.394c.061.091.151.151.212.242l13.26,9.446c.424.3.666.121.969-.091L29.306,5.752c.151-.121.272-.242.484-.424Z"/><path class="a-smtpcom" d="M2.271,5.328H29.79c-.212.182-.333.3-.484.424L16.711,14.925c-.3.242-.545.394-.969.091L2.482,5.57A1.731,1.731,0,0,1,2.271,5.328Z"/></g></svg>