<svg width="12" height="12" viewBox="0 0 12 12" fill="none" xmlns="http://www.w3.org/2000/svg">
<path d="M11.7188 0.1875C11.8594 0.1875 12 0.328125 12 0.46875V4.96875C12 5.13281 11.8594 5.25 11.7188 5.25H7.21875C7.05469 5.25 6.9375 5.13281 6.9375 4.96875V4.33594C6.9375 4.17188 7.05469 4.05469 7.21875 4.05469L10.1719 4.125C9.44531 2.53125 7.85156 1.40625 6 1.40625C3.44531 1.40625 1.40625 3.46875 1.40625 6C1.40625 8.55469 3.44531 10.5938 6 10.5938C7.17188 10.5938 8.22656 10.1719 9.04688 9.44531C9.16406 9.35156 9.32812 9.35156 9.42188 9.44531L9.89062 9.91406C10.0078 10.0312 10.0078 10.2188 9.89062 10.3359C8.85938 11.25 7.47656 11.8125 6 11.8125C2.78906 11.8125 0.1875 9.23438 0.1875 6.02344C0.164062 2.83594 2.76562 0.210938 5.97656 0.210938C7.99219 0.1875 9.79688 1.21875 10.8281 2.78906L10.7812 0.492188C10.7812 0.328125 10.8984 0.1875 11.0625 0.1875H11.7188Z" fill="#2271B1"/>
</svg>
