<svg width="12" height="12" fill="none" xmlns="http://www.w3.org/2000/svg"><path d="M11.719.188c.14 0 .281.14.281.28v4.5c0 .165-.14.282-.281.282h-4.5a.27.27 0 0 1-.282-.281v-.633a.27.27 0 0 1 .282-.281l2.953.07C9.445 2.531 7.852 1.406 6 1.406A4.586 4.586 0 0 0 1.406 6 4.571 4.571 0 0 0 6 10.594a4.546 4.546 0 0 0 3.047-1.149c.117-.093.281-.093.375 0l.469.47a.297.297 0 0 1 0 .42A5.889 5.889 0 0 1 6 11.813c-3.21 0-5.813-2.578-5.813-5.789C.165 2.836 2.767.211 5.978.211a5.732 5.732 0 0 1 4.851 2.578L10.781.492c0-.164.117-.304.281-.304h.657Z" fill="#2271B1"/></svg>