<svg width="11" height="11" fill="none" xmlns="http://www.w3.org/2000/svg"><path d="M5.5.047a5.327 5.327 0 0 1 5.328 5.328A5.327 5.327 0 0 1 5.5 10.703 5.327 5.327 0 0 1 .172 5.375 5.327 5.327 0 0 1 5.5.047Zm2.6 6.746L6.703 5.375 8.1 3.979c.107-.086.107-.258 0-.366l-.838-.838c-.108-.107-.28-.107-.366 0L5.5 4.172 4.104 2.775c-.108-.107-.28-.107-.366 0l-.86.838c-.107.108-.107.28 0 .366l1.419 1.396-1.418 1.396c-.108.108-.108.28 0 .366l.838.86c.107.107.28.107.365 0L5.5 6.577l1.396 1.418c.086.108.258.108.366 0l.838-.838c.107-.107.107-.28 0-.365Z" fill="#D63638"/></svg>