<svg width="11" height="11" viewBox="0 0 11 11" fill="none" xmlns="http://www.w3.org/2000/svg">
<path d="M5.5 0.046875C8.44336 0.046875 10.8281 2.43164 10.8281 5.375C10.8281 8.31836 8.44336 10.7031 5.5 10.7031C2.55664 10.7031 0.171875 8.31836 0.171875 5.375C0.171875 2.43164 2.55664 0.046875 5.5 0.046875ZM8.09961 6.79297L6.70312 5.375L8.09961 3.97852C8.20703 3.89258 8.20703 3.7207 8.09961 3.61328L7.26172 2.77539C7.1543 2.66797 6.98242 2.66797 6.89648 2.77539L5.5 4.17188L4.10352 2.77539C3.99609 2.66797 3.82422 2.66797 3.73828 2.77539L2.87891 3.61328C2.77148 3.7207 2.77148 3.89258 2.87891 3.97852L4.29688 5.375L2.87891 6.77148C2.77148 6.87891 2.77148 7.05078 2.87891 7.13672L3.7168 7.99609C3.82422 8.10352 3.99609 8.10352 4.08203 7.99609L5.5 6.57812L6.89648 7.99609C6.98242 8.10352 7.1543 8.10352 7.26172 7.99609L8.09961 7.1582C8.20703 7.05078 8.20703 6.87891 8.09961 6.79297Z" fill="#D63638"/>
</svg>
