<svg width="11" height="11" viewBox="0 0 11 11" fill="none" xmlns="http://www.w3.org/2000/svg">
<path d="M10.8281 5.375C10.8281 8.31836 8.42188 10.7031 5.5 10.7031C2.55664 10.7031 0.171875 8.31836 0.171875 5.375C0.171875 2.45312 2.55664 0.046875 5.5 0.046875C8.42188 0.046875 10.8281 2.45312 10.8281 5.375ZM4.87695 8.21094L8.83008 4.25781C8.95898 4.12891 8.95898 3.89258 8.83008 3.76367L8.33594 3.29102C8.20703 3.14062 7.99219 3.14062 7.86328 3.29102L4.64062 6.51367L3.11523 5.00977C2.98633 4.85938 2.77148 4.85938 2.64258 5.00977L2.14844 5.48242C2.01953 5.61133 2.01953 5.84766 2.14844 5.97656L4.38281 8.21094C4.51172 8.33984 4.74805 8.33984 4.87695 8.21094Z" fill="#008A20"/>
</svg>
