<svg width="11" height="11" viewBox="0 0 11 11" fill="none" xmlns="http://www.w3.org/2000/svg">
<path d="M5.5 0.046875C8.44336 0.046875 10.8281 2.43164 10.8281 5.375C10.8281 8.31836 8.44336 10.7031 5.5 10.7031C2.55664 10.7031 0.171875 8.31836 0.171875 5.375C0.171875 2.43164 2.55664 0.046875 5.5 0.046875ZM7.47656 6.77148C7.51953 6.72852 7.5625 6.64258 7.5625 6.55664C7.5625 6.44922 7.49805 6.36328 7.43359 6.29883L6.1875 5.375V2.28125C6.1875 2.10938 6.01562 1.9375 5.84375 1.9375H5.15625C4.96289 1.9375 4.8125 2.10938 4.8125 2.28125V5.63281C4.8125 5.91211 4.91992 6.14844 5.13477 6.29883L6.57422 7.37305C6.61719 7.41602 6.70312 7.45898 6.76758 7.45898C6.89648 7.45898 6.98242 7.39453 7.04688 7.30859L7.47656 6.77148Z" fill="#BD8600"/>
</svg>
