<svg width="46" height="45" fill="none" xmlns="http://www.w3.org/2000/svg"><path d="M23 .219C10.691.219.719 10.28.719 22.5.719 34.809 10.69 44.781 23 44.781c12.219 0 22.281-9.972 22.281-22.281C45.281 10.281 35.22.219 23 .219zm0 9.883c2.066 0 3.773 1.707 3.773 3.773 0 2.156-1.707 3.773-3.773 3.773-2.156 0-3.773-1.617-3.773-3.773 0-2.066 1.617-3.773 3.773-3.773zm5.031 22.82c0 .629-.539 1.078-1.078 1.078h-7.906c-.629 0-1.078-.45-1.078-1.078v-2.156c0-.54.449-1.078 1.078-1.078h1.078v-5.75h-1.078c-.629 0-1.078-.45-1.078-1.079v-2.156c0-.539.449-1.078 1.078-1.078h5.75c.539 0 1.078.54 1.078 1.078v8.985h1.078c.54 0 1.078.539 1.078 1.078v2.156z" fill="#3582C4"/></svg>