<svg width="14" height="15" fill="none" xmlns="http://www.w3.org/2000/svg"><path d="M7 .469c3.719 0 6.781 3.062 6.781 6.781 0 3.746-3.062 6.781-6.781 6.781A6.78 6.78 0 0 1 .219 7.25C.219 3.531 3.254.469 7 .469Zm0 12.25a5.467 5.467 0 0 0 5.469-5.469c0-3.008-2.461-5.469-5.469-5.469A5.467 5.467 0 0 0 1.531 7.25 5.45 5.45 0 0 0 7 12.719Zm0-9.242c.629 0 1.148.52 1.148 1.148 0 .656-.52 1.148-1.148 1.148a1.121 1.121 0 0 1-1.148-1.148c0-.629.492-1.148 1.148-1.148Zm1.531 6.945a.332.332 0 0 1-.328.328H5.797a.316.316 0 0 1-.328-.328v-.656c0-.164.136-.329.328-.329h.328v-1.75h-.328a.316.316 0 0 1-.328-.328v-.656c0-.164.136-.328.328-.328h1.75c.164 0 .328.164.328.328v2.734h.328c.164 0 .328.165.328.329v.656Z" fill="#646970"/></svg>