<svg width="14" height="15" viewBox="0 0 14 15" fill="none" xmlns="http://www.w3.org/2000/svg">
<path d="M7 0.46875C10.7188 0.46875 13.7812 3.53125 13.7812 7.25C13.7812 10.9961 10.7188 14.0312 7 14.0312C3.25391 14.0312 0.21875 10.9961 0.21875 7.25C0.21875 3.53125 3.25391 0.46875 7 0.46875ZM7 12.7188C10.0078 12.7188 12.4688 10.2852 12.4688 7.25C12.4688 4.24219 10.0078 1.78125 7 1.78125C3.96484 1.78125 1.53125 4.24219 1.53125 7.25C1.53125 10.2852 3.96484 12.7188 7 12.7188ZM7 3.47656C7.62891 3.47656 8.14844 3.99609 8.14844 4.625C8.14844 5.28125 7.62891 5.77344 7 5.77344C6.34375 5.77344 5.85156 5.28125 5.85156 4.625C5.85156 3.99609 6.34375 3.47656 7 3.47656ZM8.53125 10.4219C8.53125 10.6133 8.36719 10.75 8.20312 10.75H5.79688C5.60547 10.75 5.46875 10.6133 5.46875 10.4219V9.76562C5.46875 9.60156 5.60547 9.4375 5.79688 9.4375H6.125V7.6875H5.79688C5.60547 7.6875 5.46875 7.55078 5.46875 7.35938V6.70312C5.46875 6.53906 5.60547 6.375 5.79688 6.375H7.54688C7.71094 6.375 7.875 6.53906 7.875 6.70312V9.4375H8.20312C8.36719 9.4375 8.53125 9.60156 8.53125 9.76562V10.4219Z" fill="#646970"/>
</svg>
