<svg width="34" height="34" fill="none" xmlns="http://www.w3.org/2000/svg"><path d="M17 .984c2.917 0 5.599.73 8.047 2.188a15.401 15.401 0 0 1 5.781 5.781c1.458 2.448 2.188 5.13 2.188 8.047 0 2.917-.73 5.599-2.188 8.047-1.406 2.448-3.333 4.4-5.781 5.86-2.448 1.405-5.13 2.109-8.047 2.109-2.917 0-5.599-.703-8.047-2.11a16.617 16.617 0 0 1-5.86-5.86C1.689 22.6.985 19.917.985 17s.704-5.599 2.11-8.047c1.458-2.448 3.411-4.375 5.86-5.781C11.4 1.714 14.083.984 17 .984Zm2.266 18.75.703-12.89H14.03l.703 12.89h4.532Zm-.157 6.72c.47-.47.703-1.095.703-1.876 0-.833-.234-1.484-.703-1.953-.468-.469-1.172-.703-2.109-.703-.938 0-1.667.234-2.188.703-.468.469-.703 1.12-.703 1.953 0 .781.235 1.406.704 1.875.52.469 1.223.703 2.109.703.937 0 1.666-.234 2.187-.703Z" fill="#D63638"/></svg>