<svg width="16" height="17" fill="none" xmlns="http://www.w3.org/2000/svg"><path d="M8 .5a7.71 7.71 0 0 0-4.02 1.093A7.988 7.988 0 0 0 1.054 4.48C.35 5.703 0 7.043 0 8.5c0 1.457.351 2.797 1.054 4.02a8.3 8.3 0 0 0 2.926 2.926C5.203 16.15 6.543 16.5 8 16.5c1.457 0 2.797-.351 4.02-1.054a7.986 7.986 0 0 0 2.887-2.926A7.709 7.709 0 0 0 16 8.5a7.709 7.709 0 0 0-1.093-4.02 7.693 7.693 0 0 0-2.887-2.887A7.71 7.71 0 0 0 8 .5zm-.624 12.644H6.049l-3.24-4.527 1.328-1.249 2.575 2.42 5.151-5.932 1.327.937-5.814 8.35z" fill="#2271B1"/></svg>