<svg width="16" height="17" fill="none" xmlns="http://www.w3.org/2000/svg"><path d="M8 .5a7.71 7.71 0 014.02 1.093 7.693 7.693 0 012.887 2.887A7.709 7.709 0 0116 8.5a7.709 7.709 0 01-1.093 4.02 7.986 7.986 0 01-2.887 2.926C10.796 16.15 9.457 16.5 8 16.5c-1.457 0-2.797-.351-4.02-1.054a8.3 8.3 0 01-2.926-2.926C.35 11.296 0 9.957 0 8.5c0-1.457.351-2.797 1.054-4.02A7.988 7.988 0 013.98 1.593 7.71 7.71 0 018 .5zm4.995 11.005L9.99 8.5l3.005-3.005-1.99-1.99L8 6.51 4.995 3.505l-1.99 1.99L6.01 8.5l-3.005 3.005 1.99 1.99L8 10.49l3.005 3.005 1.99-1.99z" fill="#D63638"/></svg>