<svg viewBox="0 0 53 53" xmlns="http://www.w3.org/2000/svg" fill-rule="evenodd" clip-rule="evenodd" stroke-miterlimit="10"><path d="M37.6 42.36a1.93 1.93 0 01-1.43.58 1.93 1.93 0 01-1.41-.58l-8.08-8.08-8.09 8.08a1.93 1.93 0 01-1.42.58 1.93 1.93 0 01-1.41-.58l-4.5-4.5a1.93 1.93 0 01-.59-1.42c0-.55.2-1.03.59-1.41l8.08-8.09-8.08-8.08a1.93 1.93 0 01-.59-1.42c0-.55.2-1.03.59-1.41l4.5-4.5a1.93 1.93 0 011.41-.59 1.93 1.93 0 011.42.59l8.09 8.08 8.08-8.08a1.93 1.93 0 011.42-.59 1.93 1.93 0 011.41.59l4.5 4.5c.4.38.58.86.58 1.41 0 .56-.19 1.03-.58 1.42l-8.08 8.08 8.08 8.09c.4.38.58.86.58 1.41s-.19 1.03-.58 1.42l-4.5 4.5z" fill="none" stroke="#d83638" stroke-width="2" stroke-dasharray="4,2"/></svg>