<svg viewBox="0 0 33 33" xmlns="http://www.w3.org/2000/svg" fill-rule="evenodd" clip-rule="evenodd" stroke-linejoin="round" stroke-miterlimit="1.41"><path d="M27.6 32.36a1.93 1.93 0 0 1-1.43.58 1.93 1.93 0 0 1-1.41-.58l-8.09-8.08-8.08 8.08a1.93 1.93 0 0 1-1.42.58 1.93 1.93 0 0 1-1.41-.58l-4.5-4.5a1.93 1.93 0 0 1-.59-1.42c0-.55.2-1.03.59-1.42l8.08-8.08-8.08-8.08a1.93 1.93 0 0 1-.59-1.42c0-.55.2-1.03.59-1.42l4.5-4.5A1.93 1.93 0 0 1 7.18.95c.55 0 1.02.2 1.41.58l8.09 8.09 8.08-8.08a1.93 1.93 0 0 1 1.41-.59c.56 0 1.03.2 1.42.59l4.5 4.5c.4.38.58.86.58 1.41 0 .56-.19 1.03-.58 1.42l-8.08 8.08 8.08 8.08c.4.4.58.87.58 1.42 0 .56-.19 1.03-.58 1.42l-4.5 4.5z" fill="#d83638" fill-rule="nonzero"/></svg>